<svg xmlns="http://www.w3.org/2000/svg" xmlns:xlink="http://www.w3.org/1999/xlink" width="1024.5" height="990"><g transform="translate(-194.625 -210)"><path d="M279.75 649.75c0 10.9-8.84 19.75-19.75 19.75-10.9 0-19.75-8.84-19.75-19.75 0-10.9 8.84-19.75 19.75-19.75 10.9 0 19.75 8.84 19.75 19.75z" stroke="#666" stroke-width="2" fill="#fff"/><path d="M220 635c0-2.76 2.24-5 5-5h70c2.76 0 5 2.24 5 5v148c0 2.76-2.24 5-5 5h-70c-2.76 0-5-2.24-5-5z" fill="none"/><path d="M260 669.5v50.3c0 2.76 1.2 6.9 2.67 9.22L300 788m-40-63.2L220 788m0-98.75h80" stroke="#666" stroke-width="2" fill="none"/><use xlink:href="#a" transform="matrix(1,0,0,1,140,788) translate(75.625 14.6)"/><path d="M740 320c0 33.14-35.82 60-80 60s-80-26.86-80-60 35.82-60 80-60 80 26.86 80 60z" stroke="#666" stroke-width="2" fill="#fff"/><use xlink:href="#b" transform="matrix(1,0,0,1,580,260) translate(44.10499999999999 51.9)"/><use xlink:href="#c" transform="matrix(1,0,0,1,580,260) translate(29.054999999999993 73.5)"/><use xlink:href="#d" transform="matrix(1,0,0,1,580,260) translate(93.055 73.5)"/><path d="M300 720l280-400" stroke="#999" stroke-width="2" fill="none"/><path d="M300.82 720.57l-.82 1.17V720zM580 320l-.82-.57.88-1.26z" fill="#999"/><path d="M740 520c0 33.14-35.82 60-80 60s-80-26.86-80-60 35.82-60 80-60 80 26.86 80 60z" stroke="#666" stroke-width="2" fill="#fff"/><use xlink:href="#e" transform="matrix(1,0,0,1,580,460) translate(39.58 40.65)"/><use xlink:href="#f" transform="matrix(1,0,0,1,580,460) translate(20.154999999999994 62.25)"/><use xlink:href="#g" transform="matrix(1,0,0,1,580,460) translate(84.005 62.25)"/><use xlink:href="#h" transform="matrix(1,0,0,1,580,460) translate(51.504999999999995 83.85000000000001)"/><path d="M740 720c0 33.14-35.82 60-80 60s-80-26.86-80-60 35.82-60 80-60 80 26.86 80 60z" stroke="#666" stroke-width="2" fill="#fff"/><use xlink:href="#i" transform="matrix(1,0,0,1,580,660) translate(23.130000000000003 51.9)"/><use xlink:href="#j" transform="matrix(1,0,0,1,580,660) translate(78.03 51.9)"/><use xlink:href="#k" transform="matrix(1,0,0,1,580,660) translate(21.07999999999999 73.5)"/><use xlink:href="#h" transform="matrix(1,0,0,1,580,660) translate(81.92999999999999 73.5)"/><path d="M740 920c0 33.14-35.82 60-80 60s-80-26.86-80-60 35.82-60 80-60 80 26.86 80 60z" stroke="#666" stroke-width="2" fill="#fff"/><use xlink:href="#l" transform="matrix(1,0,0,1,580,860) translate(31.57999999999999 51.9)"/><use xlink:href="#m" transform="matrix(1,0,0,1,580,860) translate(118.43 51.9)"/><use xlink:href="#n" transform="matrix(1,0,0,1,580,860) translate(45.58 73.5)"/><path d="M300 720l280-200" stroke="#999" stroke-width="2" fill="none"/><path d="M300.58 720.8l-.58.43V720zM580 520l-.58-.8.62-.46z" fill="#999"/><path d="M300 720h280" stroke="#999" stroke-width="2" fill="none"/><path d="M580 720v.38l.03.62H580v-2h.03z" fill="#999"/><path d="M1139.75 249.75c0 10.9-8.84 19.75-19.75 19.75-10.9 0-19.75-8.84-19.75-19.75 0-10.9 8.84-19.75 19.75-19.75 10.9 0 19.75 8.84 19.75 19.75z" stroke="#666" stroke-width="2" fill="#fff"/><path d="M1080 235c0-2.76 2.24-5 5-5h70c2.76 0 5 2.24 5 5v148c0 2.76-2.24 5-5 5h-70c-2.76 0-5-2.24-5-5z" fill="none"/><path d="M1120 269.5v50.3c0 2.76 1.2 6.9 2.67 9.22L1160 388m-40-63.2l-40 63.2m0-98.75h80" stroke="#666" stroke-width="2" fill="none"/><use xlink:href="#o" transform="matrix(1,0,0,1,1000,388) translate(54.599999999999994 14.6)"/><use xlink:href="#p" transform="matrix(1,0,0,1,1000,388) translate(97.5 14.6)"/><use xlink:href="#q" transform="matrix(1,0,0,1,1000,388) translate(155.45 14.6)"/><path d="M740 320h340" fill="none"/><path d="M740 320h10.3m10.3 0h20.6m10.32 0h20.6m10.3 0h20.6m10.3 0h20.62m10.3 0h20.6m10.3 0h20.62m10.3 0h20.6m10.3 0h20.62m10.3 0h20.6m10.3 0h20.6m10.32 0h10.3" stroke="#999" stroke-width="2" fill="none"/><path d="M740 321h-.03l.03-1v-.38l-.03-.62h.03zM1080 318.84v2.32l-16.7 9.88-1.02-1.72 15.76-9.32-15.76-9.32 1-1.72z" fill="#999"/><path d="M740 520l340-200" fill="none"/><path d="M740 520l8.72-5.13m8.72-5.13l17.43-10.25m8.72-5.14l17.43-10.26m8.7-5.13l17.45-10.25m8.72-5.13l17.43-10.27m8.72-5.12l17.44-10.25m8.7-5.13l17.44-10.26m8.72-5.12l17.43-10.26m8.7-5.13l17.45-10.26m8.72-5.13l17.43-10.26m8.72-5.12l17.44-10.25m8.7-5.13l17.45-10.26m8.73-5.13l17.43-10.24m8.72-5.13L1080 320" stroke="#999" stroke-width="2" fill="none"/><path d="M740.5 520.86l-.54.32.04-1.18zM1080 319v3.07l-8.8 15.92-1.75-.98 8.86-16.02-18.3-.05v-2z" fill="#999"/><path d="M740 720l340-400" fill="none"/><path d="M740 720l6.67-7.84m6.66-7.85l13.34-15.67m6.66-7.85l13.34-15.68m6.66-7.85l13.34-15.68m6.66-7.84l13.34-15.7m6.66-7.83l13.34-15.7m6.66-7.83l13.34-15.7m6.66-7.83l13.34-15.7m6.66-7.83l13.34-15.68m6.66-7.84l13.34-15.7m6.66-7.83l13.34-15.7m6.66-7.83l13.34-15.7m6.66-7.83l13.34-15.7m6.66-7.84l13.34-15.7m6.66-7.83l13.34-15.68m6.66-7.85l13.34-15.68m6.66-7.85l13.34-15.68m6.66-7.86L1080 320" stroke="#999" stroke-width="2" fill="none"/><path d="M740.76 720.65l-.8.95.04-1.6zM1080 325.9l-2.4 13.98-1.98-.34 3.1-18.04-17.3 5.97-.65-1.9 19.23-6.63z" fill="#999"/><path d="M1139.75 549.75c0 10.9-8.84 19.75-19.75 19.75-10.9 0-19.75-8.84-19.75-19.75 0-10.9 8.84-19.75 19.75-19.75 10.9 0 19.75 8.84 19.75 19.75z" stroke="#666" stroke-width="2" fill="#fff"/><path d="M1080 535c0-2.76 2.24-5 5-5h70c2.76 0 5 2.24 5 5v148c0 2.76-2.24 5-5 5h-70c-2.76 0-5-2.24-5-5z" fill="none"/><path d="M1120 569.5v50.3c0 2.76 1.2 6.9 2.67 9.22L1160 688m-40-63.2l-40 63.2m0-98.75h80" stroke="#666" stroke-width="2" fill="none"/><use xlink:href="#r" transform="matrix(1,0,0,1,1000,688) translate(98.05 14.6)"/><path d="M740 720l340-100" fill="none"/><path d="M740 720l9.44-2.78m9.45-2.78l18.88-5.55m9.44-2.8l18.9-5.54m9.44-2.78l18.88-5.56m9.45-2.78l18.88-5.55m9.44-2.8l18.9-5.54m9.44-2.78l18.88-5.56m9.45-2.78l18.88-5.55m9.44-2.8l18.9-5.54m9.44-2.78l18.88-5.56m9.45-2.78l18.88-5.55m9.44-2.8l18.9-5.54m9.44-2.78L1080 620" stroke="#999" stroke-width="2" fill="none"/><path d="M740.28 720.96l-.3.1.02-1.06zM1080 618.97v2.5l-12.9 13.84-1.47-1.36 12.5-13.4-17.76-4.48.5-1.94z" fill="#999"/><path d="M1139.75 849.75c0 10.9-8.84 19.75-19.75 19.75-10.9 0-19.75-8.84-19.75-19.75 0-10.9 8.84-19.75 19.75-19.75 10.9 0 19.75 8.84 19.75 19.75z" stroke="#666" stroke-width="2" fill="#fff"/><path d="M1080 835c0-2.76 2.24-5 5-5h70c2.76 0 5 2.24 5 5v148c0 2.76-2.24 5-5 5h-70c-2.76 0-5-2.24-5-5z" fill="none"/><path d="M1120 869.5v50.3c0 2.76 1.2 6.9 2.67 9.22L1160 988m-40-63.2l-40 63.2m0-98.75h80" stroke="#666" stroke-width="2" fill="none"/><use xlink:href="#s" transform="matrix(1,0,0,1,1000,988) translate(43.07499999999999 14.6)"/><use xlink:href="#t" transform="matrix(1,0,0,1,1000,988) translate(105.57499999999999 14.6)"/><use xlink:href="#u" transform="matrix(1,0,0,1,1000,988) translate(148.125 14.6)"/><path d="M740 920h340" fill="none"/><path d="M740 920h10.3m10.3 0h20.6m10.32 0h20.6m10.3 0h20.6m10.3 0h20.62m10.3 0h20.6m10.3 0h20.62m10.3 0h20.6m10.3 0h20.62m10.3 0h20.6m10.3 0h20.6m10.32 0h10.3" stroke="#999" stroke-width="2" fill="none"/><path d="M740 921h-.03l.03-1v-.38l-.03-.62h.03zM1080 918.84v2.32l-16.7 9.88-1.02-1.72 15.76-9.32-15.76-9.32 1-1.72z" fill="#999"/><path d="M660 860v-79" fill="none"/><path d="M660 860v-8.78m0-8.78V824.9m0-8.8v-17.54m0-8.78V781" stroke="#999" stroke-width="2" fill="none"/><path d="M661 860.03l-1-.03h-1 2zM660 780h.57l10.47 17.7-1.72 1.02-9.32-15.76-9.32 15.76-1.72-1 10.48-17.74z" fill="#999"/><path d="M540 795c0-2.76 2.24-5 5-5h230c2.76 0 5 2.24 5 5v50c0 2.76-2.24 5-5 5H545c-2.76 0-5-2.24-5-5z" fill="none"/><g><use xlink:href="#v" transform="matrix(1,0,0,1,540,790) translate(70.07499999999999 33.6)"/></g><path d="M740 1120c0 33.14-35.82 60-80 60s-80-26.86-80-60 35.82-60 80-60 80 26.86 80 60z" stroke="#666" stroke-width="2" fill="#fff"/><g><use xlink:href="#w" transform="matrix(1,0,0,1,580,1060) translate(22.62999999999999 51.9)"/><use xlink:href="#x" transform="matrix(1,0,0,1,580,1060) translate(89.48 51.9)"/><use xlink:href="#y" transform="matrix(1,0,0,1,580,1060) translate(50.58 73.5)"/></g><path d="M740 1120l340-800" fill="none"/><path d="M740 1120l3.9-9.2m3.92-9.2l7.8-18.38m3.92-9.2l7.82-18.4m3.9-9.18l7.82-18.4m3.9-9.2l7.82-18.38m3.9-9.2l7.83-18.4m3.9-9.18l7.82-18.4m3.9-9.2L826 917.7m3.9-9.2l7.82-18.4m3.9-9.18l7.83-18.4m3.9-9.2l7.82-18.38m3.9-9.2l7.82-18.38m3.9-9.2l7.83-18.4m3.9-9.2l7.82-18.38m3.9-9.2l7.83-18.38m3.9-9.2l7.82-18.4m3.9-9.18l7.82-18.4m3.9-9.2l7.82-18.38m3.9-9.2l7.82-18.4m3.9-9.18l7.83-18.4m3.9-9.2l7.82-18.38m3.9-9.2l7.8-18.4m3.92-9.18l7.82-18.4m3.9-9.2l7.82-18.38m3.9-9.2l7.83-18.38m3.9-9.2l7.8-18.4m3.92-9.2l7.82-18.38m3.9-9.2l7.82-18.38m3.9-9.2l7.82-18.4m3.9-9.18l3.92-9.2" stroke="#999" stroke-width="2" fill="none"/><path d="M740.92 1120.4l-1 2.36.08-2.76zM1080 327.6l-.77-5.8-14.74 10.87-1.2-1.6 16.7-12.3z" fill="#999"/><path d="M300 720l280 400" stroke="#999" stroke-width="2" fill="none"/><path d="M300.82 719.43l-.82.57v-1.74zM580 1120.38l.06 1.45-.88-1.26.82-.57z" fill="#999"/><defs><path fill="#333" d="M238-95c0 69-44 99-111 99C63 4 22-25 22-93v-155h51v151c-1 38 19 59 55 60 90 1 49-130 58-211h52v153" id="z"/><path fill="#333" d="M135-194c53 0 70 44 70 98 0 56-19 98-73 100-31 1-45-17-59-34 3 33 2 69 2 105H25l-1-265h48c2 10 0 23 3 31 11-24 29-35 60-35zM114-30c33 0 39-31 40-66 0-38-9-64-40-64-56 0-55 130 0 130" id="A"/><path fill="#333" d="M110-194c64 0 96 36 96 99 0 64-35 99-97 99-61 0-95-36-95-99 0-62 34-99 96-99zm-1 164c35 0 45-28 45-65 0-40-10-65-43-65-34 0-45 26-45 65 0 36 10 65 43 65" id="B"/><path fill="#333" d="M135-150c-39-12-60 13-60 57V0H25l-1-190h47c2 13-1 29 3 40 6-28 27-53 61-41v41" id="C"/><path fill="#333" d="M133-34C117-15 103 5 69 4 32 3 11-16 11-54c-1-60 55-63 116-61 1-26-3-47-28-47-18 1-26 9-28 27l-52-2c7-38 36-58 82-57s74 22 75 68l1 82c-1 14 12 18 25 15v27c-30 8-71 5-69-32zm-48 3c29 0 43-24 42-57-32 0-66-3-65 30 0 17 8 27 23 27" id="D"/><path fill="#333" d="M135-194c52 0 70 43 70 98 0 56-19 99-73 100-30 1-46-15-58-35L72 0H24l1-261h50v104c11-23 29-37 60-37zM114-30c31 0 40-27 40-66 0-37-7-63-39-63s-41 28-41 65c0 36 8 64 40 64" id="E"/><path fill="#333" d="M135-194c87-1 58 113 63 194h-50c-7-57 23-157-34-157-59 0-34 97-39 157H25l-1-190h47c2 12-1 28 3 38 12-26 28-41 61-42" id="F"/><path fill="#333" d="M25-224v-37h50v37H25zM25 0v-190h50V0H25" id="G"/><path fill="#333" d="M147 0L96-86 75-71V0H25v-261h50v150l67-79h53l-66 74L201 0h-54" id="H"/><g id="a"><use transform="matrix(0.05,0,0,0.05,0,0)" xlink:href="#z"/><use transform="matrix(0.05,0,0,0.05,12.950000000000001,0)" xlink:href="#A"/><use transform="matrix(0.05,0,0,0.05,23.900000000000002,0)" xlink:href="#B"/><use transform="matrix(0.05,0,0,0.05,34.85,0)" xlink:href="#C"/><use transform="matrix(0.05,0,0,0.05,41.85,0)" xlink:href="#D"/><use transform="matrix(0.05,0,0,0.05,51.85,0)" xlink:href="#E"/><use transform="matrix(0.05,0,0,0.05,62.800000000000004,0)" xlink:href="#F"/><use transform="matrix(0.05,0,0,0.05,73.75,0)" xlink:href="#G"/><use transform="matrix(0.05,0,0,0.05,78.75,0)" xlink:href="#H"/></g><path d="M194 0L95-120 63-95V0H30v-248h33v124l119-124h40L117-140 236 0h-42" id="I"/><path d="M114-163C36-179 61-72 57 0H25l-1-190h30c1 12-1 29 2 39 6-27 23-49 58-41v29" id="J"/><path d="M100-194c63 0 86 42 84 106H49c0 40 14 67 53 68 26 1 43-12 49-29l28 8c-11 28-37 45-77 45C44 4 14-33 15-96c1-61 26-98 85-98zm52 81c6-60-76-77-97-28-3 7-6 17-6 28h103" id="K"/><path d="M24-231v-30h32v30H24zM24 0v-190h32V0H24" id="L"/><path d="M141-36C126-15 110 5 73 4 37 3 15-17 15-53c-1-64 63-63 125-63 3-35-9-54-41-54-24 1-41 7-42 31l-33-3c5-37 33-52 76-52 45 0 72 20 72 64v82c-1 20 7 32 28 27v20c-31 9-61-2-59-35zM48-53c0 20 12 33 32 33 41-3 63-29 60-74-43 2-92-5-92 41" id="M"/><path d="M117-194c89-4 53 116 60 194h-32v-121c0-31-8-49-39-48C34-167 62-67 57 0H25l-1-190h30c1 10-1 24 2 32 11-22 29-35 61-36" id="N"/><path d="M24-231v-30h32v30H24zM-9 49c24 4 33-6 33-30v-209h32V24c2 40-23 58-65 49V49" id="O"/><g id="b"><use transform="matrix(0.05,0,0,0.05,0,0)" xlink:href="#I"/><use transform="matrix(0.05,0,0,0.05,12,0)" xlink:href="#J"/><use transform="matrix(0.05,0,0,0.05,17.95,0)" xlink:href="#K"/><use transform="matrix(0.05,0,0,0.05,27.950000000000003,0)" xlink:href="#L"/><use transform="matrix(0.05,0,0,0.05,31.899999999999995,0)" xlink:href="#J"/><use transform="matrix(0.05,0,0,0.05,37.85,0)" xlink:href="#M"/><use transform="matrix(0.05,0,0,0.05,47.85,0)" xlink:href="#N"/><use transform="matrix(0.05,0,0,0.05,57.85,0)" xlink:href="#O"/><use transform="matrix(0.05,0,0,0.05,61.800000000000004,0)" xlink:href="#K"/></g><path d="M100-194c62-1 85 37 85 99 1 63-27 99-86 99S16-35 15-95c0-66 28-99 85-99zM99-20c44 1 53-31 53-75 0-43-8-75-51-75s-53 32-53 75 10 74 51 75" id="P"/><path d="M108 0H70L1-190h34L89-25l56-165h34" id="Q"/><path d="M177-190C167-65 218 103 67 71c-23-6-38-20-44-43l32-5c15 47 100 32 89-28v-30C133-14 115 1 83 1 29 1 15-40 15-95c0-56 16-97 71-98 29-1 48 16 59 35 1-10 0-23 2-32h30zM94-22c36 0 50-32 50-73 0-42-14-75-50-75-39 0-46 34-46 75s6 73 46 73" id="R"/><g id="c"><use transform="matrix(0.05,0,0,0.05,0,0)" xlink:href="#N"/><use transform="matrix(0.05,0,0,0.05,10,0)" xlink:href="#P"/><use transform="matrix(0.05,0,0,0.05,20,0)" xlink:href="#Q"/><use transform="matrix(0.05,0,0,0.05,29,0)" xlink:href="#K"/><use transform="matrix(0.05,0,0,0.05,39,0)" xlink:href="#R"/><use transform="matrix(0.05,0,0,0.05,49,0)" xlink:href="#M"/></g><path d="M30 0v-248h187v28H63v79h144v27H63v87h162V0H30" id="S"/><path d="M197 0v-115H63V0H30v-248h33v105h134v-105h34V0h-34" id="T"/><path d="M233-177c-1 41-23 64-60 70L243 0h-38l-65-103H63V0H30v-248c88 3 205-21 203 71zM63-129c60-2 137 13 137-47 0-61-80-42-137-45v92" id="U"/><g id="d"><use transform="matrix(0.05,0,0,0.05,0,0)" xlink:href="#S"/><use transform="matrix(0.05,0,0,0.05,12,0)" xlink:href="#T"/><use transform="matrix(0.05,0,0,0.05,24.950000000000003,0)" xlink:href="#U"/></g><path d="M30-248c118-7 216 8 213 122C240-48 200 0 122 0H30v-248zM63-27c89 8 146-16 146-99s-60-101-146-95v194" id="V"/><path d="M85-194c31 0 48 13 60 33l-1-100h32l1 261h-30c-2-10 0-23-3-31C134-8 116 4 85 4 32 4 16-35 15-94c0-66 23-100 70-100zm9 24c-40 0-46 34-46 75 0 40 6 74 45 74 42 0 51-32 51-76 0-42-9-74-50-73" id="W"/><g id="e"><use transform="matrix(0.05,0,0,0.05,0,0)" xlink:href="#V"/><use transform="matrix(0.05,0,0,0.05,12.950000000000001,0)" xlink:href="#P"/><use transform="matrix(0.05,0,0,0.05,22.950000000000003,0)" xlink:href="#W"/><use transform="matrix(0.05,0,0,0.05,32.95,0)" xlink:href="#M"/><use transform="matrix(0.05,0,0,0.05,42.95,0)" xlink:href="#O"/><use transform="matrix(0.05,0,0,0.05,46.900000000000006,0)" xlink:href="#M"/><use transform="matrix(0.05,0,0,0.05,56.900000000000006,0)" xlink:href="#N"/><use transform="matrix(0.05,0,0,0.05,66.9,0)" xlink:href="#O"/><use transform="matrix(0.05,0,0,0.05,70.85000000000001,0)" xlink:href="#K"/></g><path d="M210-169c-67 3-38 105-44 169h-31v-121c0-29-5-50-35-48C34-165 62-65 56 0H25l-1-190h30c1 10-1 24 2 32 10-44 99-50 107 0 11-21 27-35 58-36 85-2 47 119 55 194h-31v-121c0-29-5-49-35-48" id="X"/><path d="M59-47c-2 24 18 29 38 22v24C64 9 27 4 27-40v-127H5v-23h24l9-43h21v43h35v23H59v120" id="Y"/><g id="f"><use transform="matrix(0.05,0,0,0.05,0,0)" xlink:href="#X"/><use transform="matrix(0.05,0,0,0.05,14.950000000000001,0)" xlink:href="#K"/><use transform="matrix(0.05,0,0,0.05,24.950000000000003,0)" xlink:href="#J"/><use transform="matrix(0.05,0,0,0.05,30.900000000000002,0)" xlink:href="#L"/><use transform="matrix(0.05,0,0,0.05,34.85,0)" xlink:href="#Y"/><use transform="matrix(0.05,0,0,0.05,39.85,0)" xlink:href="#K"/><use transform="matrix(0.05,0,0,0.05,49.85,0)" xlink:href="#Q"/></g><path d="M24 0v-261h32V0H24" id="Z"/><path d="M106-169C34-169 62-67 57 0H25v-261h32l-1 103c12-21 28-36 61-36 89 0 53 116 60 194h-32v-121c2-32-8-49-39-48" id="aa"/><g id="g"><use transform="matrix(0.05,0,0,0.05,0,0)" xlink:href="#Q"/><use transform="matrix(0.05,0,0,0.05,9,0)" xlink:href="#L"/><use transform="matrix(0.05,0,0,0.05,12.949999999999998,0)" xlink:href="#Y"/><use transform="matrix(0.05,0,0,0.05,17.95,0)" xlink:href="#M"/><use transform="matrix(0.05,0,0,0.05,27.950000000000003,0)" xlink:href="#Z"/><use transform="matrix(0.05,0,0,0.05,31.899999999999995,0)" xlink:href="#N"/><use transform="matrix(0.05,0,0,0.05,41.9,0)" xlink:href="#L"/><use transform="matrix(0.05,0,0,0.05,45.85,0)" xlink:href="#aa"/></g><path d="M9 0v-24l116-142H16v-24h144v24L44-24h123V0H9" id="ab"/><path d="M143 0L79-87 56-68V0H24v-261h32v163l83-92h37l-77 82L181 0h-38" id="ac"/><g id="h"><use transform="matrix(0.05,0,0,0.05,0,0)" xlink:href="#ab"/><use transform="matrix(0.05,0,0,0.05,9,0)" xlink:href="#N"/><use transform="matrix(0.05,0,0,0.05,19,0)" xlink:href="#M"/><use transform="matrix(0.05,0,0,0.05,29,0)" xlink:href="#ac"/><use transform="matrix(0.05,0,0,0.05,38,0)" xlink:href="#P"/><use transform="matrix(0.05,0,0,0.05,48,0)" xlink:href="#Q"/></g><path d="M30-248c87 1 191-15 191 75 0 78-77 80-158 76V0H30v-248zm33 125c57 0 124 11 124-50 0-59-68-47-124-48v98" id="ad"/><g id="i"><use transform="matrix(0.05,0,0,0.05,0,0)" xlink:href="#ad"/><use transform="matrix(0.05,0,0,0.05,12,0)" xlink:href="#J"/><use transform="matrix(0.05,0,0,0.05,17.95,0)" xlink:href="#L"/><use transform="matrix(0.05,0,0,0.05,21.9,0)" xlink:href="#ac"/><use transform="matrix(0.05,0,0,0.05,30.899999999999995,0)" xlink:href="#M"/><use transform="matrix(0.05,0,0,0.05,40.9,0)" xlink:href="#ab"/></g><g id="j"><use transform="matrix(0.05,0,0,0.05,0,0)" xlink:href="#X"/><use transform="matrix(0.05,0,0,0.05,14.950000000000001,0)" xlink:href="#K"/><use transform="matrix(0.05,0,0,0.05,24.950000000000003,0)" xlink:href="#J"/><use transform="matrix(0.05,0,0,0.05,30.900000000000002,0)" xlink:href="#L"/><use transform="matrix(0.05,0,0,0.05,34.85,0)" xlink:href="#Y"/><use transform="matrix(0.05,0,0,0.05,39.85,0)" xlink:href="#K"/><use transform="matrix(0.05,0,0,0.05,49.85,0)" xlink:href="#Q"/></g><g id="k"><use transform="matrix(0.05,0,0,0.05,0,0)" xlink:href="#Q"/><use transform="matrix(0.05,0,0,0.05,9,0)" xlink:href="#L"/><use transform="matrix(0.05,0,0,0.05,12.949999999999998,0)" xlink:href="#Y"/><use transform="matrix(0.05,0,0,0.05,17.95,0)" xlink:href="#M"/><use transform="matrix(0.05,0,0,0.05,27.950000000000003,0)" xlink:href="#Z"/><use transform="matrix(0.05,0,0,0.05,31.899999999999995,0)" xlink:href="#N"/><use transform="matrix(0.05,0,0,0.05,41.9,0)" xlink:href="#L"/><use transform="matrix(0.05,0,0,0.05,45.85,0)" xlink:href="#aa"/></g><path d="M127-220V0H93v-220H8v-28h204v28h-85" id="ae"/><path d="M206 0h-36l-40-164L89 0H53L-1-190h32L70-26l43-164h34l41 164 42-164h31" id="af"/><g id="l"><use transform="matrix(0.05,0,0,0.05,0,0)" xlink:href="#ae"/><use transform="matrix(0.05,0,0,0.05,9.950000000000001,0)" xlink:href="#af"/><use transform="matrix(0.05,0,0,0.05,22.900000000000002,0)" xlink:href="#K"/><use transform="matrix(0.05,0,0,0.05,32.900000000000006,0)" xlink:href="#K"/><use transform="matrix(0.05,0,0,0.05,42.900000000000006,0)" xlink:href="#Y"/><use transform="matrix(0.05,0,0,0.05,47.900000000000006,0)" xlink:href="#M"/><use transform="matrix(0.05,0,0,0.05,57.900000000000006,0)" xlink:href="#N"/><use transform="matrix(0.05,0,0,0.05,67.9,0)" xlink:href="#O"/><use transform="matrix(0.05,0,0,0.05,71.85000000000001,0)" xlink:href="#K"/></g><use transform="matrix(0.05,0,0,0.05,0,0)" xlink:href="#P" id="m"/><g id="n"><use transform="matrix(0.05,0,0,0.05,0,0)" xlink:href="#X"/><use transform="matrix(0.05,0,0,0.05,14.950000000000001,0)" xlink:href="#K"/><use transform="matrix(0.05,0,0,0.05,24.950000000000003,0)" xlink:href="#J"/><use transform="matrix(0.05,0,0,0.05,30.900000000000002,0)" xlink:href="#L"/><use transform="matrix(0.05,0,0,0.05,34.85,0)" xlink:href="#Y"/><use transform="matrix(0.05,0,0,0.05,39.85,0)" xlink:href="#Q"/><use transform="matrix(0.05,0,0,0.05,48.85,0)" xlink:href="#M"/><use transform="matrix(0.05,0,0,0.05,58.85,0)" xlink:href="#aa"/></g><path fill="#333" d="M24 0v-248h195v40H76v63h132v40H76v65h150V0H24" id="ag"/><path fill="#333" d="M186 0v-106H76V0H24v-248h52v99h110v-99h50V0h-50" id="ah"/><path fill="#333" d="M240-174c0 40-23 61-54 70L253 0h-59l-57-94H76V0H24v-248c93 4 217-23 216 74zM76-134c48-2 112 12 112-38 0-48-66-32-112-35v73" id="ai"/><g id="o"><use transform="matrix(0.05,0,0,0.05,0,0)" xlink:href="#ag"/><use transform="matrix(0.05,0,0,0.05,12,0)" xlink:href="#ah"/><use transform="matrix(0.05,0,0,0.05,24.950000000000003,0)" xlink:href="#ai"/></g><path fill="#333" d="M169-182c-1-43-94-46-97-3 18 66 151 10 154 114 3 95-165 93-204 36-6-8-10-19-12-30l50-8c3 46 112 56 116 5-17-69-150-10-154-114-4-87 153-88 188-35 5 8 8 18 10 28" id="aj"/><path fill="#333" d="M190-63c-7 42-38 67-86 67-59 0-84-38-90-98-12-110 154-137 174-36l-49 2c-2-19-15-32-35-32-30 0-35 28-38 64-6 74 65 87 74 30" id="ak"/><path fill="#333" d="M185-48c-13 30-37 53-82 52C43 2 14-33 14-96s30-98 90-98c62 0 83 45 84 108H66c0 31 8 55 39 56 18 0 30-7 34-22zm-45-69c5-46-57-63-70-21-2 6-4 13-4 21h74" id="al"/><g id="p"><use transform="matrix(0.05,0,0,0.05,0,0)" xlink:href="#aj"/><use transform="matrix(0.05,0,0,0.05,12,0)" xlink:href="#ak"/><use transform="matrix(0.05,0,0,0.05,22,0)" xlink:href="#D"/><use transform="matrix(0.05,0,0,0.05,32,0)" xlink:href="#A"/><use transform="matrix(0.05,0,0,0.05,42.95,0)" xlink:href="#al"/></g><path fill="#333" d="M199 0l-22-63H83L61 0H9l90-248h61L250 0h-51zm-33-102l-36-108c-10 38-24 72-36 108h72" id="am"/><path fill="#333" d="M24-248c93 1 206-16 204 79-1 75-69 88-152 82V0H24v-248zm52 121c47 0 100 7 100-41 0-47-54-39-100-39v80" id="an"/><path fill="#333" d="M24 0v-248h52V0H24" id="ao"/><g id="q"><use transform="matrix(0.05,0,0,0.05,0,0)" xlink:href="#am"/><use transform="matrix(0.05,0,0,0.05,12.950000000000001,0)" xlink:href="#an"/><use transform="matrix(0.05,0,0,0.05,24.950000000000003,0)" xlink:href="#ao"/></g><path fill="#333" d="M275 0h-61l-44-196L126 0H64L0-248h53L97-49l45-199h58l43 199 44-199h52" id="ap"/><path fill="#333" d="M140-251c80 0 125 45 125 126S219 4 139 4C58 4 15-44 15-125s44-126 125-126zm-1 214c52 0 73-35 73-88 0-50-21-86-72-86-52 0-73 35-73 86s22 88 72 88" id="aq"/><g id="r"><use transform="matrix(0.05,0,0,0.05,0,0)" xlink:href="#ap"/><use transform="matrix(0.05,0,0,0.05,16.95,0)" xlink:href="#ah"/><use transform="matrix(0.05,0,0,0.05,29.899999999999995,0)" xlink:href="#aq"/></g><path fill="#333" d="M136-208V0H84v-208H4v-40h212v40h-80" id="ar"/><path fill="#333" d="M231 0h-52l-39-155L100 0H48L-1-190h46L77-45c9-52 24-97 36-145h53l37 145 32-145h46" id="as"/><path fill="#333" d="M115-3C79 11 28 4 28-45v-112H4v-33h27l15-45h31v45h36v33H77v99c-1 23 16 31 38 25v30" id="at"/><g id="s"><use transform="matrix(0.05,0,0,0.05,0,0)" xlink:href="#ar"/><use transform="matrix(0.05,0,0,0.05,9.600000000000001,0)" xlink:href="#as"/><use transform="matrix(0.05,0,0,0.05,23.6,0)" xlink:href="#G"/><use transform="matrix(0.05,0,0,0.05,28.6,0)" xlink:href="#at"/><use transform="matrix(0.05,0,0,0.05,34.550000000000004,0)" xlink:href="#at"/><use transform="matrix(0.05,0,0,0.05,40.50000000000001,0)" xlink:href="#al"/><use transform="matrix(0.05,0,0,0.05,50.50000000000001,0)" xlink:href="#C"/></g><g id="t"><use transform="matrix(0.05,0,0,0.05,0,0)" xlink:href="#ap"/><use transform="matrix(0.05,0,0,0.05,16.599999999999998,0)" xlink:href="#al"/><use transform="matrix(0.05,0,0,0.05,26.599999999999994,0)" xlink:href="#E"/></g><g id="u"><use transform="matrix(0.05,0,0,0.05,0,0)" xlink:href="#ao"/><use transform="matrix(0.05,0,0,0.05,5,0)" xlink:href="#F"/><use transform="matrix(0.05,0,0,0.05,15.950000000000001,0)" xlink:href="#at"/><use transform="matrix(0.05,0,0,0.05,21.900000000000002,0)" xlink:href="#al"/><use transform="matrix(0.05,0,0,0.05,31.900000000000002,0)" xlink:href="#F"/><use transform="matrix(0.05,0,0,0.05,42.85,0)" xlink:href="#at"/></g><path fill="#333" d="M15-91v-56l181-69v40L49-119l147 57v40" id="au"/><path fill="#333" d="M144 0l-44-69L55 0H2l70-98-66-92h53l41 62 40-62h54l-67 91 71 99h-54" id="av"/><path fill="#333" d="M88-194c31-1 46 15 58 34l-1-101h50l1 261h-48c-2-10 0-23-3-31C134-8 116 4 84 4 32 4 16-41 15-95c0-56 19-97 73-99zm17 164c33 0 40-30 41-66 1-37-9-64-41-64s-38 30-39 65c0 43 13 65 39 65" id="aw"/><path fill="#333" d="M15-22v-40l146-57-146-57v-40l181 69v56" id="ax"/><g id="v"><use transform="matrix(0.05,0,0,0.05,0,0)" xlink:href="#au"/><use transform="matrix(0.05,0,0,0.05,10.5,0)" xlink:href="#au"/><use transform="matrix(0.05,0,0,0.05,21,0)" xlink:href="#al"/><use transform="matrix(0.05,0,0,0.05,31,0)" xlink:href="#av"/><use transform="matrix(0.05,0,0,0.05,41,0)" xlink:href="#at"/><use transform="matrix(0.05,0,0,0.05,46.95,0)" xlink:href="#al"/><use transform="matrix(0.05,0,0,0.05,56.95,0)" xlink:href="#F"/><use transform="matrix(0.05,0,0,0.05,67.9,0)" xlink:href="#aw"/><use transform="matrix(0.05,0,0,0.05,78.85000000000001,0)" xlink:href="#ax"/><use transform="matrix(0.05,0,0,0.05,89.35000000000001,0)" xlink:href="#ax"/></g><path d="M143 4C61 4 22-44 18-125c-5-107 100-154 193-111 17 8 29 25 37 43l-32 9c-13-25-37-40-76-40-61 0-88 39-88 99 0 61 29 100 91 101 35 0 62-11 79-27v-45h-74v-28h105v86C228-13 192 4 143 4" id="ay"/><path d="M101-234c-31-9-42 10-38 44h38v23H63V0H32v-167H5v-23h27c-7-52 17-82 69-68v24" id="az"/><path d="M96-169c-40 0-48 33-48 73s9 75 48 75c24 0 41-14 43-38l32 2c-6 37-31 61-74 61-59 0-76-41-82-99-10-93 101-131 147-64 4 7 5 14 7 22l-32 3c-4-21-16-35-41-35zm19-42H79c-13-18-31-30-41-51 32-2 39 20 59 30 19-10 26-32 57-30-9 21-27 33-39 51" id="aA"/><g id="w"><use transform="matrix(0.05,0,0,0.05,0,0)" xlink:href="#ay"/><use transform="matrix(0.05,0,0,0.05,14,0)" xlink:href="#J"/><use transform="matrix(0.05,0,0,0.05,19.95,0)" xlink:href="#M"/><use transform="matrix(0.05,0,0,0.05,29.950000000000003,0)" xlink:href="#az"/><use transform="matrix(0.05,0,0,0.05,34.95,0)" xlink:href="#L"/><use transform="matrix(0.05,0,0,0.05,38.900000000000006,0)" xlink:href="#aA"/><use transform="matrix(0.05,0,0,0.05,47.900000000000006,0)" xlink:href="#N"/><use transform="matrix(0.05,0,0,0.05,57.900000000000006,0)" xlink:href="#L"/></g><path d="M115-194c55 1 70 41 70 98S169 2 115 4C84 4 66-9 55-30l1 105H24l-1-265h31l2 30c10-21 28-34 59-34zm-8 174c40 0 45-34 45-75s-6-73-45-74c-42 0-51 32-51 76 0 43 10 73 51 73" id="aB"/><g id="x"><use transform="matrix(0.05,0,0,0.05,0,0)" xlink:href="#aB"/><use transform="matrix(0.05,0,0,0.05,10,0)" xlink:href="#J"/><use transform="matrix(0.05,0,0,0.05,15.949999999999998,0)" xlink:href="#L"/><use transform="matrix(0.05,0,0,0.05,19.9,0)" xlink:href="#ac"/><use transform="matrix(0.05,0,0,0.05,28.899999999999995,0)" xlink:href="#M"/><use transform="matrix(0.05,0,0,0.05,38.9,0)" xlink:href="#ab"/></g><g id="y"><use transform="matrix(0.05,0,0,0.05,0,0)" xlink:href="#X"/><use transform="matrix(0.05,0,0,0.05,14.950000000000001,0)" xlink:href="#K"/><use transform="matrix(0.05,0,0,0.05,24.950000000000003,0)" xlink:href="#J"/><use transform="matrix(0.05,0,0,0.05,30.900000000000002,0)" xlink:href="#L"/><use transform="matrix(0.05,0,0,0.05,34.85,0)" xlink:href="#Y"/><use transform="matrix(0.05,0,0,0.05,39.85,0)" xlink:href="#K"/><use transform="matrix(0.05,0,0,0.05,49.85,0)" xlink:href="#Q"/></g></defs></g></svg>