<svg xmlns="http://www.w3.org/2000/svg" xmlns:xlink="http://www.w3.org/1999/xlink" width="1680" height="540"><g transform="translate(-120 -240)"><path d="M140 265c0-2.76 2.24-5 5-5h350c2.76 0 5 2.24 5 5v490c0 2.76-2.24 5-5 5H145c-2.76 0-5-2.24-5-5z" stroke="#000" stroke-width="2" fill="#fff"/><path d="M140 319h360M140 630h360" stroke="#000" stroke-width="2" fill="none"/><use xlink:href="#a" transform="matrix(1,0,0,1,148,260) translate(113.525 22.799999999999997)"/><use xlink:href="#b" transform="matrix(1,0,0,1,148,260) translate(150.525 44.4)"/><use xlink:href="#c" transform="matrix(1,0,0,1,152,327.2) translate(0 21.50000000000002)"/><use xlink:href="#d" transform="matrix(1,0,0,1,152,327.2) translate(15 21.50000000000002)"/><use xlink:href="#e" transform="matrix(1,0,0,1,152,327.2) translate(99.9 21.50000000000002)"/><use xlink:href="#f" transform="matrix(1,0,0,1,152,327.2) translate(109.9 21.50000000000002)"/><use xlink:href="#c" transform="matrix(1,0,0,1,152,327.2) translate(0 43.10000000000002)"/><use xlink:href="#g" transform="matrix(1,0,0,1,152,327.2) translate(15 43.10000000000002)"/><use xlink:href="#e" transform="matrix(1,0,0,1,152,327.2) translate(129.75 43.10000000000002)"/><use xlink:href="#f" transform="matrix(1,0,0,1,152,327.2) translate(139.75 43.10000000000002)"/><use xlink:href="#c" transform="matrix(1,0,0,1,152,327.2) translate(0 64.70000000000003)"/><use xlink:href="#h" transform="matrix(1,0,0,1,152,327.2) translate(15 64.70000000000003)"/><use xlink:href="#e" transform="matrix(1,0,0,1,152,327.2) translate(129.85000000000002 64.70000000000003)"/><use xlink:href="#f" transform="matrix(1,0,0,1,152,327.2) translate(139.85000000000002 64.70000000000003)"/><use xlink:href="#c" transform="matrix(1,0,0,1,152,327.2) translate(0 86.30000000000004)"/><use xlink:href="#i" transform="matrix(1,0,0,1,152,327.2) translate(15 86.30000000000004)"/><use xlink:href="#e" transform="matrix(1,0,0,1,152,327.2) translate(98.55000000000001 86.30000000000004)"/><use xlink:href="#f" transform="matrix(1,0,0,1,152,327.2) translate(108.55000000000001 86.30000000000004)"/><use xlink:href="#c" transform="matrix(1,0,0,1,152,327.2) translate(0 107.90000000000003)"/><use xlink:href="#j" transform="matrix(1,0,0,1,152,327.2) translate(15 107.90000000000003)"/><use xlink:href="#e" transform="matrix(1,0,0,1,152,327.2) translate(87.95 107.90000000000003)"/><use xlink:href="#f" transform="matrix(1,0,0,1,152,327.2) translate(97.95 107.90000000000003)"/><use xlink:href="#c" transform="matrix(1,0,0,1,152,327.2) translate(0 129.50000000000003)"/><use xlink:href="#k" transform="matrix(1,0,0,1,152,327.2) translate(15 129.50000000000003)"/><use xlink:href="#e" transform="matrix(1,0,0,1,152,327.2) translate(150.8 129.50000000000003)"/><use xlink:href="#f" transform="matrix(1,0,0,1,152,327.2) translate(160.8 129.50000000000003)"/><use xlink:href="#c" transform="matrix(1,0,0,1,152,327.2) translate(0 151.10000000000002)"/><use xlink:href="#l" transform="matrix(1,0,0,1,152,327.2) translate(15 151.10000000000002)"/><use xlink:href="#e" transform="matrix(1,0,0,1,152,327.2) translate(120.80000000000001 151.10000000000002)"/><use xlink:href="#f" transform="matrix(1,0,0,1,152,327.2) translate(130.8 151.10000000000002)"/><use xlink:href="#c" transform="matrix(1,0,0,1,152,327.2) translate(0 172.70000000000002)"/><use xlink:href="#m" transform="matrix(1,0,0,1,152,327.2) translate(15 172.70000000000002)"/><use xlink:href="#e" transform="matrix(1,0,0,1,152,327.2) translate(131.75 172.70000000000002)"/><use xlink:href="#f" transform="matrix(1,0,0,1,152,327.2) translate(141.75 172.70000000000002)"/><use xlink:href="#n" transform="matrix(1,0,0,1,152,327.2) translate(0 194.3)"/><use xlink:href="#o" transform="matrix(1,0,0,1,152,327.2) translate(15 194.3)"/><use xlink:href="#p" transform="matrix(1,0,0,1,152,327.2) translate(87.9 194.3)"/><use xlink:href="#q" transform="matrix(1,0,0,1,152,327.2) translate(97.9 194.3)"/><use xlink:href="#r" transform="matrix(1,0,0,1,152,327.2) translate(0 215.9)"/><use xlink:href="#n" transform="matrix(1,0,0,1,152,327.2) translate(0 237.5)"/><use xlink:href="#s" transform="matrix(1,0,0,1,152,327.2) translate(15 237.5)"/><use xlink:href="#p" transform="matrix(1,0,0,1,152,327.2) translate(150.85000000000002 237.5)"/><use xlink:href="#q" transform="matrix(1,0,0,1,152,327.2) translate(160.85000000000002 237.5)"/><use xlink:href="#n" transform="matrix(1,0,0,1,152,327.2) translate(0 259.09999999999997)"/><use xlink:href="#t" transform="matrix(1,0,0,1,152,327.2) translate(15 259.09999999999997)"/><use xlink:href="#p" transform="matrix(1,0,0,1,152,327.2) translate(122.85000000000001 259.09999999999997)"/><use xlink:href="#q" transform="matrix(1,0,0,1,152,327.2) translate(132.85000000000002 259.09999999999997)"/><use xlink:href="#n" transform="matrix(1,0,0,1,152,327.2) translate(0 280.7)"/><use xlink:href="#u" transform="matrix(1,0,0,1,152,327.2) translate(15 280.7)"/><use xlink:href="#p" transform="matrix(1,0,0,1,152,327.2) translate(103.9 280.7)"/><use xlink:href="#v" transform="matrix(1,0,0,1,152,327.2) translate(113.9 280.7)"/><g><use xlink:href="#w" transform="matrix(1,0,0,1,152,638.106463878327) translate(0 17.39999999999999)"/><use xlink:href="#x" transform="matrix(1,0,0,1,152,638.106463878327) translate(15.5 17.39999999999999)"/><use xlink:href="#w" transform="matrix(1,0,0,1,152,638.106463878327) translate(0 38.99999999999999)"/><use xlink:href="#y" transform="matrix(1,0,0,1,152,638.106463878327) translate(15.5 38.99999999999999)"/><use xlink:href="#w" transform="matrix(1,0,0,1,152,638.106463878327) translate(0 60.599999999999994)"/><use xlink:href="#z" transform="matrix(1,0,0,1,152,638.106463878327) translate(15.5 60.599999999999994)"/><use xlink:href="#A" transform="matrix(1,0,0,1,152,638.106463878327) translate(0 82.20000000000002)"/><use xlink:href="#B" transform="matrix(1,0,0,1,152,638.106463878327) translate(15.5 82.20000000000002)"/><use xlink:href="#A" transform="matrix(1,0,0,1,152,638.106463878327) translate(0 103.80000000000001)"/><use xlink:href="#C" transform="matrix(1,0,0,1,152,638.106463878327) translate(15.5 103.80000000000001)"/></g><path d="M600 345c0-2.76 2.24-5 5-5h570c2.76 0 5 2.24 5 5v370c0 2.76-2.24 5-5 5H605c-2.76 0-5-2.24-5-5z" stroke="#000" stroke-width="2" fill="#fff"/><path d="M600 399h580M600 504h580" stroke="#000" stroke-width="2" fill="none"/><g><use xlink:href="#D" transform="matrix(1,0,0,1,608,340) translate(234.05 22.799999999999997)"/><use xlink:href="#E" transform="matrix(1,0,0,1,608,340) translate(262.5 44.4)"/></g><g><use xlink:href="#F" transform="matrix(1,0,0,1,612,407.2) translate(0 16.19999999999999)"/><use xlink:href="#G" transform="matrix(1,0,0,1,612,407.2) translate(10.95 16.19999999999999)"/><use xlink:href="#p" transform="matrix(1,0,0,1,612,407.2) translate(77.80000000000001 16.19999999999999)"/><use xlink:href="#H" transform="matrix(1,0,0,1,612,407.2) translate(87.80000000000001 16.19999999999999)"/><use xlink:href="#I" transform="matrix(1,0,0,1,612,407.2) translate(139.70000000000002 16.19999999999999)"/><use xlink:href="#J" transform="matrix(1,0,0,1,612,407.2) translate(155.20000000000002 16.19999999999999)"/><use xlink:href="#F" transform="matrix(1,0,0,1,612,407.2) translate(0 37.79999999999999)"/><use xlink:href="#K" transform="matrix(1,0,0,1,612,407.2) translate(10.95 37.79999999999999)"/><use xlink:href="#p" transform="matrix(1,0,0,1,612,407.2) translate(83.75000000000001 37.79999999999999)"/><use xlink:href="#H" transform="matrix(1,0,0,1,612,407.2) translate(93.75000000000001 37.79999999999999)"/><use xlink:href="#I" transform="matrix(1,0,0,1,612,407.2) translate(145.65 37.79999999999999)"/><use xlink:href="#L" transform="matrix(1,0,0,1,612,407.2) translate(161.15 37.79999999999999)"/><use xlink:href="#F" transform="matrix(1,0,0,1,612,407.2) translate(0 59.39999999999999)"/><use xlink:href="#M" transform="matrix(1,0,0,1,612,407.2) translate(10.95 59.39999999999999)"/><use xlink:href="#p" transform="matrix(1,0,0,1,612,407.2) translate(95.85000000000001 59.39999999999999)"/><use xlink:href="#N" transform="matrix(1,0,0,1,612,407.2) translate(105.85000000000001 59.39999999999999)"/><use xlink:href="#F" transform="matrix(1,0,0,1,612,407.2) translate(0 81)"/><use xlink:href="#O" transform="matrix(1,0,0,1,612,407.2) translate(10.95 81)"/><use xlink:href="#p" transform="matrix(1,0,0,1,612,407.2) translate(92.85000000000001 81)"/><use xlink:href="#P" transform="matrix(1,0,0,1,612,407.2) translate(102.85000000000001 81)"/></g><g><use xlink:href="#r" transform="matrix(1,0,0,1,612,512.218925831202) translate(0 17.20000000000001)"/><use xlink:href="#Q" transform="matrix(1,0,0,1,612,512.218925831202) translate(0 38.80000000000001)"/><use xlink:href="#R" transform="matrix(1,0,0,1,612,512.218925831202) translate(15 38.80000000000001)"/><use xlink:href="#S" transform="matrix(1,0,0,1,612,512.218925831202) translate(135.85000000000002 38.80000000000001)"/><use xlink:href="#T" transform="matrix(1,0,0,1,612,512.218925831202) translate(145.85000000000002 38.80000000000001)"/><use xlink:href="#U" transform="matrix(1,0,0,1,612,512.218925831202) translate(197.75000000000003 38.80000000000001)"/><use xlink:href="#V" transform="matrix(1,0,0,1,612,512.218925831202) translate(0 60.40000000000001)"/><use xlink:href="#W" transform="matrix(1,0,0,1,612,512.218925831202) translate(15.5 60.40000000000001)"/><use xlink:href="#X" transform="matrix(1,0,0,1,612,512.218925831202) translate(181.2 60.40000000000001)"/><use xlink:href="#S" transform="matrix(1,0,0,1,612,512.218925831202) translate(276.1 60.40000000000001)"/><use xlink:href="#T" transform="matrix(1,0,0,1,612,512.218925831202) translate(286.1 60.40000000000001)"/><use xlink:href="#Y" transform="matrix(1,0,0,1,612,512.218925831202) translate(338 60.40000000000001)"/><use xlink:href="#V" transform="matrix(1,0,0,1,612,512.218925831202) translate(0 82.00000000000003)"/><use xlink:href="#Z" transform="matrix(1,0,0,1,612,512.218925831202) translate(15.5 82.00000000000003)"/><use xlink:href="#aa" transform="matrix(1,0,0,1,612,512.218925831202) translate(161.20000000000002 82.00000000000003)"/><use xlink:href="#T" transform="matrix(1,0,0,1,612,512.218925831202) translate(200.10000000000002 82.00000000000003)"/><use xlink:href="#ab" transform="matrix(1,0,0,1,612,512.218925831202) translate(252.00000000000003 82.00000000000003)"/><use xlink:href="#T" transform="matrix(1,0,0,1,612,512.218925831202) translate(319.8 82.00000000000003)"/><use xlink:href="#ac" transform="matrix(1,0,0,1,612,512.218925831202) translate(371.7 82.00000000000003)"/><use xlink:href="#S" transform="matrix(1,0,0,1,612,512.218925831202) translate(417.65 82.00000000000003)"/><use xlink:href="#T" transform="matrix(1,0,0,1,612,512.218925831202) translate(427.65 82.00000000000003)"/><use xlink:href="#Y" transform="matrix(1,0,0,1,612,512.218925831202) translate(479.54999999999995 82.00000000000003)"/><use xlink:href="#V" transform="matrix(1,0,0,1,612,512.218925831202) translate(0 103.60000000000002)"/><use xlink:href="#ad" transform="matrix(1,0,0,1,612,512.218925831202) translate(15.5 103.60000000000002)"/><use xlink:href="#ae" transform="matrix(1,0,0,1,612,512.218925831202) translate(176.15 103.60000000000002)"/><use xlink:href="#af" transform="matrix(1,0,0,1,612,512.218925831202) translate(227.10000000000002 103.60000000000002)"/><use xlink:href="#ag" transform="matrix(1,0,0,1,612,512.218925831202) translate(332 103.60000000000002)"/><use xlink:href="#V" transform="matrix(1,0,0,1,612,512.218925831202) translate(0 125.20000000000002)"/><use xlink:href="#ah" transform="matrix(1,0,0,1,612,512.218925831202) translate(15.5 125.20000000000002)"/><use xlink:href="#ai" transform="matrix(1,0,0,1,612,512.218925831202) translate(188.05 125.20000000000002)"/><use xlink:href="#V" transform="matrix(1,0,0,1,612,512.218925831202) translate(0 146.8)"/><use xlink:href="#aj" transform="matrix(1,0,0,1,612,512.218925831202) translate(15.5 146.8)"/><use xlink:href="#ai" transform="matrix(1,0,0,1,612,512.218925831202) translate(131.15 146.8)"/><use xlink:href="#ak" transform="matrix(1,0,0,1,612,512.218925831202) translate(0 168.4)"/><use xlink:href="#V" transform="matrix(1,0,0,1,612,512.218925831202) translate(0 190)"/><use xlink:href="#al" transform="matrix(1,0,0,1,612,512.218925831202) translate(15.5 190)"/><use xlink:href="#am" transform="matrix(1,0,0,1,612,512.218925831202) translate(237.09999999999997 190)"/><use xlink:href="#S" transform="matrix(1,0,0,1,612,512.218925831202) translate(267.99999999999994 190)"/><use xlink:href="#af" transform="matrix(1,0,0,1,612,512.218925831202) translate(277.99999999999994 190)"/><use xlink:href="#an" transform="matrix(1,0,0,1,612,512.218925831202) translate(382.9 190)"/></g><path d="M1280 305c0-2.76 2.24-5 5-5h490c2.76 0 5 2.24 5 5v170c0 2.76-2.24 5-5 5h-490c-2.76 0-5-2.24-5-5z" stroke="#000" stroke-width="2" fill="#fff"/><path d="M1280 359h500m-500 36h500" stroke="#000" stroke-width="2" fill="none"/><g><use xlink:href="#ao" transform="matrix(1,0,0,1,1288,300) translate(183.525 22.799999999999997)"/><use xlink:href="#ap" transform="matrix(1,0,0,1,1288,300) translate(180.55 44.4)"/><use xlink:href="#aq" transform="matrix(1,0,0,1,1288,300) translate(274.45000000000005 44.4)"/></g><g><use xlink:href="#ar" transform="matrix(1,0,0,1,1292,367.2) translate(0 15.4)"/></g><g><use xlink:href="#n" transform="matrix(1,0,0,1,1292,402.97700348432056) translate(0 17)"/><use xlink:href="#as" transform="matrix(1,0,0,1,1292,402.97700348432056) translate(15 17)"/><use xlink:href="#n" transform="matrix(1,0,0,1,1292,402.97700348432056) translate(0 38.6)"/><use xlink:href="#at" transform="matrix(1,0,0,1,1292,402.97700348432056) translate(15 38.6)"/><use xlink:href="#n" transform="matrix(1,0,0,1,1292,402.97700348432056) translate(0 60.2)"/><use xlink:href="#au" transform="matrix(1,0,0,1,1292,402.97700348432056) translate(15 60.2)"/></g><path d="M1280 545c0-2.76 2.24-5 5-5h490c2.76 0 5 2.24 5 5v130c0 2.76-2.24 5-5 5h-490c-2.76 0-5-2.24-5-5z" stroke="#000" stroke-width="2" fill="#fff"/><path d="M1280 599h500m-500 39h500" stroke="#000" stroke-width="2" fill="none"/><g><use xlink:href="#ao" transform="matrix(1,0,0,1,1288,540) translate(183.525 22.799999999999997)"/><use xlink:href="#av" transform="matrix(1,0,0,1,1288,540) translate(203.05 44.4)"/><use xlink:href="#aq" transform="matrix(1,0,0,1,1288,540) translate(251.95000000000002 44.4)"/></g><g><use xlink:href="#ar" transform="matrix(1,0,0,1,1292,607.2) translate(0 16.9)"/></g><g><use xlink:href="#n" transform="matrix(1,0,0,1,1292,645.5687150837989) translate(0 17.1)"/><use xlink:href="#aw" transform="matrix(1,0,0,1,1292,645.5687150837989) translate(15 17.1)"/></g><path d="M1181 370.15h44c2.76 0 5-2.24 5-5v-30c0-2.76 2.24-5 5-5h44" stroke="#000" stroke-width="2" fill="none"/><path d="M1181 371.15h-1v-2h1zM1279 330.15l-14.27 4.63v-9.27z"/><path d="M1280 329.42v1.46l-16.27 5.28v-12.02zm-14.27 4l10.03-3.27-10.03-3.26z"/><path d="M1181 396.5h44c2.76 0 5 2.25 5 5V563.7c0 2.76 2.24 5 5 5h44" stroke="#000" stroke-width="2" fill="none"/><path d="M1181 397.5h-1v-2h1zM1279 568.68l-14.27 4.63v-9.26z"/><path d="M1280 567.95v1.45l-16.27 5.3v-12.04zm-14.27 3.98l10.03-3.25-10.03-3.26z"/><path d="M501 289h44c2.76 0 5 2.23 5 5v69.64c0 2.76 2.24 5 5 5h44" stroke="#000" stroke-width="2" fill="none"/><path d="M501 290h-1v-2h1zM599 368.64l-14.27 4.64V364z"/><path d="M600 367.92v1.45l-16.27 5.28v-12.02zm-14.27 3.98l10.03-3.26-10.03-3.26z"/><defs><path d="M18-100v-36l175-74v27L42-118l151 64v27" id="ax"/><path d="M115-194c53 0 69 39 70 98 0 66-23 100-70 100C84 3 66-7 56-30L54 0H23l1-261h32v101c10-23 28-34 59-34zm-8 174c40 0 45-34 45-75 0-40-5-75-45-74-42 0-51 32-51 76 0 43 10 73 51 73" id="ay"/><path d="M100-194c62-1 85 37 85 99 1 63-27 99-86 99S16-35 15-95c0-66 28-99 85-99zM99-20c44 1 53-31 53-75 0-43-8-75-51-75s-53 32-53 75 10 74 51 75" id="az"/><path d="M84 4C-5 8 30-112 23-190h32v120c0 31 7 50 39 49 72-2 45-101 50-169h31l1 190h-30c-1-10 1-25-2-33-11 22-28 36-60 37" id="aA"/><path d="M117-194c89-4 53 116 60 194h-32v-121c0-31-8-49-39-48C34-167 62-67 57 0H25l-1-190h30c1 10-1 24 2 32 11-22 29-35 61-36" id="aB"/><path d="M85-194c31 0 48 13 60 33l-1-100h32l1 261h-30c-2-10 0-23-3-31C134-8 116 4 85 4 32 4 16-35 15-94c0-66 23-100 70-100zm9 24c-40 0-46 34-46 75 0 40 6 74 45 74 42 0 51-32 51-76 0-42-9-74-50-73" id="aC"/><path d="M141-36C126-15 110 5 73 4 37 3 15-17 15-53c-1-64 63-63 125-63 3-35-9-54-41-54-24 1-41 7-42 31l-33-3c5-37 33-52 76-52 45 0 72 20 72 64v82c-1 20 7 32 28 27v20c-31 9-61-2-59-35zM48-53c0 20 12 33 32 33 41-3 63-29 60-74-43 2-92-5-92 41" id="aD"/><path d="M114-163C36-179 61-72 57 0H25l-1-190h30c1 12-1 29 2 39 6-27 23-49 58-41v29" id="aE"/><path d="M179-190L93 31C79 59 56 82 12 73V49c39 6 53-20 64-50L1-190h34L92-34l54-156h33" id="aF"/><path d="M18-27v-27l151-64-151-65v-27l175 74v36" id="aG"/><g id="a"><use transform="matrix(0.05,0,0,0.05,0,0)" xlink:href="#ax"/><use transform="matrix(0.05,0,0,0.05,10.5,0)" xlink:href="#ax"/><use transform="matrix(0.05,0,0,0.05,21,0)" xlink:href="#ay"/><use transform="matrix(0.05,0,0,0.05,31,0)" xlink:href="#az"/><use transform="matrix(0.05,0,0,0.05,41,0)" xlink:href="#aA"/><use transform="matrix(0.05,0,0,0.05,51,0)" xlink:href="#aB"/><use transform="matrix(0.05,0,0,0.05,61,0)" xlink:href="#aC"/><use transform="matrix(0.05,0,0,0.05,71,0)" xlink:href="#aD"/><use transform="matrix(0.05,0,0,0.05,81,0)" xlink:href="#aE"/><use transform="matrix(0.05,0,0,0.05,86.95,0)" xlink:href="#aF"/><use transform="matrix(0.05,0,0,0.05,95.95,0)" xlink:href="#aG"/><use transform="matrix(0.05,0,0,0.05,106.45,0)" xlink:href="#aG"/></g><path d="M24-231v-30h32v30H24zM24 0v-190h32V0H24" id="aH"/><path d="M100-194c63 0 86 42 84 106H49c0 40 14 67 53 68 26 1 43-12 49-29l28 8c-11 28-37 45-77 45C44 4 14-33 15-96c1-61 26-98 85-98zm52 81c6-60-76-77-97-28-3 7-6 17-6 28h103" id="aI"/><path d="M141 0L90-78 38 0H4l68-98-65-92h35l48 74 47-74h35l-64 92 68 98h-35" id="aJ"/><g id="b"><use transform="matrix(0.05,0,0,0.05,0,0)" xlink:href="#aH"/><use transform="matrix(0.05,0,0,0.05,3.95,0)" xlink:href="#aB"/><use transform="matrix(0.05,0,0,0.05,13.949999999999998,0)" xlink:href="#aC"/><use transform="matrix(0.05,0,0,0.05,23.95,0)" xlink:href="#aI"/><use transform="matrix(0.05,0,0,0.05,33.95,0)" xlink:href="#aJ"/></g><path d="M158-156l-14 65h45v19h-49L124 0h-19l15-72H56L41 0H22l15-72H2v-19h39l14-65H11v-19h48l15-71h20l-16 71h64l16-71h19l-16 71h37v19h-40zm-83 0L61-91h63l14-65H75" id="aK"/><use transform="matrix(0.05,0,0,0.05,0,0)" xlink:href="#aK" id="c"/><path d="M96-169c-40 0-48 33-48 73s9 75 48 75c24 0 41-14 43-38l32 2c-6 37-31 61-74 61-59 0-76-41-82-99-10-93 101-131 147-64 4 7 5 14 7 22l-32 3c-4-21-16-35-41-35" id="aL"/><path d="M59-47c-2 24 18 29 38 22v24C64 9 27 4 27-40v-127H5v-23h24l9-43h21v43h35v23H59v120" id="aM"/><path d="M33 0v-248h34V0H33" id="aN"/><path d="M210-169c-67 3-38 105-44 169h-31v-121c0-29-5-50-35-48C34-165 62-65 56 0H25l-1-190h30c1 10-1 24 2 32 10-44 99-50 107 0 11-21 27-35 58-36 85-2 47 119 55 194h-31v-121c0-29-5-49-35-48" id="aO"/><g id="d"><use transform="matrix(0.05,0,0,0.05,0,0)" xlink:href="#aL"/><use transform="matrix(0.05,0,0,0.05,9,0)" xlink:href="#aE"/><use transform="matrix(0.05,0,0,0.05,14.949999999999998,0)" xlink:href="#aI"/><use transform="matrix(0.05,0,0,0.05,24.95,0)" xlink:href="#aD"/><use transform="matrix(0.05,0,0,0.05,34.95,0)" xlink:href="#aM"/><use transform="matrix(0.05,0,0,0.05,39.95,0)" xlink:href="#aI"/><use transform="matrix(0.05,0,0,0.05,49.95,0)" xlink:href="#aN"/><use transform="matrix(0.05,0,0,0.05,54.95,0)" xlink:href="#aO"/><use transform="matrix(0.05,0,0,0.05,69.9,0)" xlink:href="#aI"/></g><path d="M33-154v-36h34v36H33zM33 0v-36h34V0H33" id="aP"/><use transform="matrix(0.05,0,0,0.05,0,0)" xlink:href="#aP" id="e"/><path d="M115-194c55 1 70 41 70 98S169 2 115 4C84 4 66-9 55-30l1 105H24l-1-265h31l2 30c10-21 28-34 59-34zm-8 174c40 0 45-34 45-75s-6-73-45-74c-42 0-51 32-51 76 0 43 10 73 51 73" id="aQ"/><path d="M-5 72V49h209v23H-5" id="aR"/><g id="f"><use transform="matrix(0.05,0,0,0.05,0,0)" xlink:href="#aH"/><use transform="matrix(0.05,0,0,0.05,3.95,0)" xlink:href="#aB"/><use transform="matrix(0.05,0,0,0.05,13.949999999999998,0)" xlink:href="#aQ"/><use transform="matrix(0.05,0,0,0.05,23.95,0)" xlink:href="#aA"/><use transform="matrix(0.05,0,0,0.05,33.95,0)" xlink:href="#aM"/><use transform="matrix(0.05,0,0,0.05,38.95,0)" xlink:href="#aR"/><use transform="matrix(0.05,0,0,0.05,48.95,0)" xlink:href="#aM"/><use transform="matrix(0.05,0,0,0.05,53.95,0)" xlink:href="#aI"/><use transform="matrix(0.05,0,0,0.05,63.95,0)" xlink:href="#aJ"/><use transform="matrix(0.05,0,0,0.05,72.95,0)" xlink:href="#aM"/></g><path d="M30-248c87 1 191-15 191 75 0 78-77 80-158 76V0H30v-248zm33 125c57 0 124 11 124-50 0-59-68-47-124-48v98" id="aS"/><path d="M143 0L79-87 56-68V0H24v-261h32v163l83-92h37l-77 82L181 0h-38" id="aT"/><g id="g"><use transform="matrix(0.05,0,0,0.05,0,0)" xlink:href="#aL"/><use transform="matrix(0.05,0,0,0.05,9,0)" xlink:href="#aE"/><use transform="matrix(0.05,0,0,0.05,14.949999999999998,0)" xlink:href="#aI"/><use transform="matrix(0.05,0,0,0.05,24.95,0)" xlink:href="#aD"/><use transform="matrix(0.05,0,0,0.05,34.95,0)" xlink:href="#aM"/><use transform="matrix(0.05,0,0,0.05,39.95,0)" xlink:href="#aI"/><use transform="matrix(0.05,0,0,0.05,49.95,0)" xlink:href="#aS"/><use transform="matrix(0.05,0,0,0.05,61.95,0)" xlink:href="#aE"/><use transform="matrix(0.05,0,0,0.05,67.9,0)" xlink:href="#aH"/><use transform="matrix(0.05,0,0,0.05,71.85000000000001,0)" xlink:href="#aH"/><use transform="matrix(0.05,0,0,0.05,75.80000000000001,0)" xlink:href="#aO"/><use transform="matrix(0.05,0,0,0.05,90.75000000000001,0)" xlink:href="#aI"/><use transform="matrix(0.05,0,0,0.05,100.75000000000001,0)" xlink:href="#aT"/></g><path d="M233-177c-1 41-23 64-60 70L243 0h-38l-65-103H63V0H30v-248c88 3 205-21 203 71zM63-129c60-2 137 13 137-47 0-61-80-42-137-45v92" id="aU"/><path d="M24-231v-30h32v30H24zM-9 49c24 4 33-6 33-30v-209h32V24c2 40-23 58-65 49V49" id="aV"/><path d="M135-143c-3-34-86-38-87 0 15 53 115 12 119 90S17 21 10-45l28-5c4 36 97 45 98 0-10-56-113-15-118-90-4-57 82-63 122-42 12 7 21 19 24 35" id="aW"/><path d="M108 0H70L1-190h34L89-25l56-165h34" id="aX"/><g id="h"><use transform="matrix(0.05,0,0,0.05,0,0)" xlink:href="#aL"/><use transform="matrix(0.05,0,0,0.05,9,0)" xlink:href="#aE"/><use transform="matrix(0.05,0,0,0.05,14.949999999999998,0)" xlink:href="#aI"/><use transform="matrix(0.05,0,0,0.05,24.95,0)" xlink:href="#aD"/><use transform="matrix(0.05,0,0,0.05,34.95,0)" xlink:href="#aM"/><use transform="matrix(0.05,0,0,0.05,39.95,0)" xlink:href="#aI"/><use transform="matrix(0.05,0,0,0.05,49.95,0)" xlink:href="#aU"/><use transform="matrix(0.05,0,0,0.05,62.900000000000006,0)" xlink:href="#az"/><use transform="matrix(0.05,0,0,0.05,72.9,0)" xlink:href="#aV"/><use transform="matrix(0.05,0,0,0.05,76.85000000000001,0)" xlink:href="#aW"/><use transform="matrix(0.05,0,0,0.05,85.85000000000001,0)" xlink:href="#aM"/><use transform="matrix(0.05,0,0,0.05,90.85000000000001,0)" xlink:href="#aX"/><use transform="matrix(0.05,0,0,0.05,99.85000000000001,0)" xlink:href="#az"/></g><path d="M137 0h-34L2-248h35l83 218 83-218h36" id="aY"/><g id="i"><use transform="matrix(0.05,0,0,0.05,0,0)" xlink:href="#aD"/><use transform="matrix(0.05,0,0,0.05,10,0)" xlink:href="#aC"/><use transform="matrix(0.05,0,0,0.05,20,0)" xlink:href="#aC"/><use transform="matrix(0.05,0,0,0.05,30,0)" xlink:href="#aY"/><use transform="matrix(0.05,0,0,0.05,41.65,0)" xlink:href="#aH"/><use transform="matrix(0.05,0,0,0.05,45.6,0)" xlink:href="#aW"/><use transform="matrix(0.05,0,0,0.05,54.6,0)" xlink:href="#aH"/><use transform="matrix(0.05,0,0,0.05,58.550000000000004,0)" xlink:href="#aB"/><use transform="matrix(0.05,0,0,0.05,68.55000000000001,0)" xlink:href="#aD"/></g><path d="M127-220V0H93v-220H8v-28h204v28h-85" id="aZ"/><path d="M9 0v-24l116-142H16v-24h144v24L44-24h123V0H9" id="ba"/><g id="j"><use transform="matrix(0.05,0,0,0.05,0,0)" xlink:href="#aD"/><use transform="matrix(0.05,0,0,0.05,10,0)" xlink:href="#aC"/><use transform="matrix(0.05,0,0,0.05,20,0)" xlink:href="#aC"/><use transform="matrix(0.05,0,0,0.05,30,0)" xlink:href="#aZ"/><use transform="matrix(0.05,0,0,0.05,38.95,0)" xlink:href="#aI"/><use transform="matrix(0.05,0,0,0.05,48.95,0)" xlink:href="#ba"/><use transform="matrix(0.05,0,0,0.05,57.95,0)" xlink:href="#aD"/></g><g id="k"><use transform="matrix(0.05,0,0,0.05,0,0)" xlink:href="#aD"/><use transform="matrix(0.05,0,0,0.05,10,0)" xlink:href="#aC"/><use transform="matrix(0.05,0,0,0.05,20,0)" xlink:href="#aC"/><use transform="matrix(0.05,0,0,0.05,30,0)" xlink:href="#aZ"/><use transform="matrix(0.05,0,0,0.05,38.95,0)" xlink:href="#aI"/><use transform="matrix(0.05,0,0,0.05,48.95,0)" xlink:href="#aO"/><use transform="matrix(0.05,0,0,0.05,63.900000000000006,0)" xlink:href="#aQ"/><use transform="matrix(0.05,0,0,0.05,73.9,0)" xlink:href="#aI"/><use transform="matrix(0.05,0,0,0.05,83.9,0)" xlink:href="#aE"/><use transform="matrix(0.05,0,0,0.05,89.85000000000001,0)" xlink:href="#aD"/><use transform="matrix(0.05,0,0,0.05,99.85000000000001,0)" xlink:href="#aM"/><use transform="matrix(0.05,0,0,0.05,104.85000000000001,0)" xlink:href="#aA"/><use transform="matrix(0.05,0,0,0.05,114.85000000000001,0)" xlink:href="#aE"/><use transform="matrix(0.05,0,0,0.05,120.80000000000001,0)" xlink:href="#aD"/></g><path d="M185-189c-5-48-123-54-124 2 14 75 158 14 163 119 3 78-121 87-175 55-17-10-28-26-33-46l33-7c5 56 141 63 141-1 0-78-155-14-162-118-5-82 145-84 179-34 5 7 8 16 11 25" id="bb"/><path d="M24 0v-261h32V0H24" id="bc"/><g id="l"><use transform="matrix(0.05,0,0,0.05,0,0)" xlink:href="#aD"/><use transform="matrix(0.05,0,0,0.05,10,0)" xlink:href="#aC"/><use transform="matrix(0.05,0,0,0.05,20,0)" xlink:href="#aC"/><use transform="matrix(0.05,0,0,0.05,30,0)" xlink:href="#bb"/><use transform="matrix(0.05,0,0,0.05,42,0)" xlink:href="#aH"/><use transform="matrix(0.05,0,0,0.05,45.95,0)" xlink:href="#aW"/><use transform="matrix(0.05,0,0,0.05,54.95,0)" xlink:href="#aM"/><use transform="matrix(0.05,0,0,0.05,59.95,0)" xlink:href="#az"/><use transform="matrix(0.05,0,0,0.05,69.95,0)" xlink:href="#bc"/><use transform="matrix(0.05,0,0,0.05,73.9,0)" xlink:href="#aH"/><use transform="matrix(0.05,0,0,0.05,77.85000000000001,0)" xlink:href="#aL"/><use transform="matrix(0.05,0,0,0.05,86.85000000000001,0)" xlink:href="#aB"/><use transform="matrix(0.05,0,0,0.05,96.85000000000001,0)" xlink:href="#aH"/></g><path d="M30-248c118-7 216 8 213 122C240-48 200 0 122 0H30v-248zM63-27c89 8 146-16 146-99s-60-101-146-95v194" id="bd"/><g id="m"><use transform="matrix(0.05,0,0,0.05,0,0)" xlink:href="#aD"/><use transform="matrix(0.05,0,0,0.05,10,0)" xlink:href="#aC"/><use transform="matrix(0.05,0,0,0.05,20,0)" xlink:href="#aC"/><use transform="matrix(0.05,0,0,0.05,30,0)" xlink:href="#bd"/><use transform="matrix(0.05,0,0,0.05,42.95,0)" xlink:href="#aH"/><use transform="matrix(0.05,0,0,0.05,46.900000000000006,0)" xlink:href="#aD"/><use transform="matrix(0.05,0,0,0.05,56.900000000000006,0)" xlink:href="#aW"/><use transform="matrix(0.05,0,0,0.05,65.9,0)" xlink:href="#aM"/><use transform="matrix(0.05,0,0,0.05,70.9,0)" xlink:href="#az"/><use transform="matrix(0.05,0,0,0.05,80.9,0)" xlink:href="#bc"/><use transform="matrix(0.05,0,0,0.05,84.85000000000001,0)" xlink:href="#aH"/><use transform="matrix(0.05,0,0,0.05,88.80000000000001,0)" xlink:href="#aL"/><use transform="matrix(0.05,0,0,0.05,97.80000000000001,0)" xlink:href="#aB"/><use transform="matrix(0.05,0,0,0.05,107.80000000000001,0)" xlink:href="#aH"/></g><use transform="matrix(0.05,0,0,0.05,0,0)" xlink:href="#aK" id="n"/><path d="M194 0L95-120 63-95V0H30v-248h33v124l119-124h40L117-140 236 0h-42" id="be"/><g id="o"><use transform="matrix(0.05,0,0,0.05,0,0)" xlink:href="#aD"/><use transform="matrix(0.05,0,0,0.05,10,0)" xlink:href="#aC"/><use transform="matrix(0.05,0,0,0.05,20,0)" xlink:href="#aC"/><use transform="matrix(0.05,0,0,0.05,30,0)" xlink:href="#be"/><use transform="matrix(0.05,0,0,0.05,42,0)" xlink:href="#aH"/><use transform="matrix(0.05,0,0,0.05,45.95,0)" xlink:href="#aW"/><use transform="matrix(0.05,0,0,0.05,54.95,0)" xlink:href="#aH"/><use transform="matrix(0.05,0,0,0.05,58.900000000000006,0)" xlink:href="#aT"/></g><use transform="matrix(0.05,0,0,0.05,0,0)" xlink:href="#aP" id="p"/><g id="q"><use transform="matrix(0.05,0,0,0.05,0,0)" xlink:href="#aH"/><use transform="matrix(0.05,0,0,0.05,3.95,0)" xlink:href="#aB"/><use transform="matrix(0.05,0,0,0.05,13.949999999999998,0)" xlink:href="#aQ"/><use transform="matrix(0.05,0,0,0.05,23.95,0)" xlink:href="#aA"/><use transform="matrix(0.05,0,0,0.05,33.95,0)" xlink:href="#aM"/><use transform="matrix(0.05,0,0,0.05,38.95,0)" xlink:href="#aR"/><use transform="matrix(0.05,0,0,0.05,48.95,0)" xlink:href="#aM"/><use transform="matrix(0.05,0,0,0.05,53.95,0)" xlink:href="#aI"/><use transform="matrix(0.05,0,0,0.05,63.95,0)" xlink:href="#aJ"/><use transform="matrix(0.05,0,0,0.05,72.95,0)" xlink:href="#aM"/></g><path d="M30 0v-248h187v28H63v79h144v27H63v87h162V0H30" id="bf"/><path d="M106-169C34-169 62-67 57 0H25v-261h32l-1 103c12-21 28-36 61-36 89 0 53 116 60 194h-32v-121c2-32-8-49-39-48" id="bg"/><g id="s"><use transform="matrix(0.05,0,0,0.05,0,0)" xlink:href="#aC"/><use transform="matrix(0.05,0,0,0.05,10,0)" xlink:href="#az"/><use transform="matrix(0.05,0,0,0.05,20,0)" xlink:href="#aC"/><use transform="matrix(0.05,0,0,0.05,30,0)" xlink:href="#aD"/><use transform="matrix(0.05,0,0,0.05,40,0)" xlink:href="#aV"/><use transform="matrix(0.05,0,0,0.05,43.95,0)" xlink:href="#aD"/><use transform="matrix(0.05,0,0,0.05,53.95,0)" xlink:href="#aB"/><use transform="matrix(0.05,0,0,0.05,63.95,0)" xlink:href="#aV"/><use transform="matrix(0.05,0,0,0.05,67.9,0)" xlink:href="#aI"/><use transform="matrix(0.05,0,0,0.05,77.9,0)" xlink:href="#aR"/><use transform="matrix(0.05,0,0,0.05,87.9,0)" xlink:href="#bf"/><use transform="matrix(0.05,0,0,0.05,99.9,0)" xlink:href="#bg"/><use transform="matrix(0.05,0,0,0.05,109.9,0)" xlink:href="#aE"/><use transform="matrix(0.05,0,0,0.05,115.85000000000001,0)" xlink:href="#aN"/><use transform="matrix(0.05,0,0,0.05,120.85000000000001,0)" xlink:href="#aC"/></g><g id="t"><use transform="matrix(0.05,0,0,0.05,0,0)" xlink:href="#ay"/><use transform="matrix(0.05,0,0,0.05,10,0)" xlink:href="#aE"/><use transform="matrix(0.05,0,0,0.05,15.949999999999998,0)" xlink:href="#aD"/><use transform="matrix(0.05,0,0,0.05,25.950000000000003,0)" xlink:href="#aB"/><use transform="matrix(0.05,0,0,0.05,35.95,0)" xlink:href="#aV"/><use transform="matrix(0.05,0,0,0.05,39.900000000000006,0)" xlink:href="#aI"/><use transform="matrix(0.05,0,0,0.05,49.900000000000006,0)" xlink:href="#aR"/><use transform="matrix(0.05,0,0,0.05,59.900000000000006,0)" xlink:href="#bf"/><use transform="matrix(0.05,0,0,0.05,71.9,0)" xlink:href="#bg"/><use transform="matrix(0.05,0,0,0.05,81.9,0)" xlink:href="#aE"/><use transform="matrix(0.05,0,0,0.05,87.85000000000001,0)" xlink:href="#aN"/><use transform="matrix(0.05,0,0,0.05,92.85000000000001,0)" xlink:href="#aC"/></g><path d="M177-190C167-65 218 103 67 71c-23-6-38-20-44-43l32-5c15 47 100 32 89-28v-30C133-14 115 1 83 1 29 1 15-40 15-95c0-56 16-97 71-98 29-1 48 16 59 35 1-10 0-23 2-32h30zM94-22c36 0 50-32 50-73 0-42-14-75-50-75-39 0-46 34-46 75s6 73 46 73" id="bh"/><path d="M101-234c-31-9-42 10-38 44h38v23H63V0H32v-167H5v-23h27c-7-52 17-82 69-68v24" id="bi"/><g id="u"><use transform="matrix(0.05,0,0,0.05,0,0)" xlink:href="#bh"/><use transform="matrix(0.05,0,0,0.05,10,0)" xlink:href="#aE"/><use transform="matrix(0.05,0,0,0.05,15.949999999999998,0)" xlink:href="#aD"/><use transform="matrix(0.05,0,0,0.05,25.950000000000003,0)" xlink:href="#bi"/><use transform="matrix(0.05,0,0,0.05,30.950000000000003,0)" xlink:href="#aR"/><use transform="matrix(0.05,0,0,0.05,40.95,0)" xlink:href="#bf"/><use transform="matrix(0.05,0,0,0.05,52.95,0)" xlink:href="#bg"/><use transform="matrix(0.05,0,0,0.05,62.95,0)" xlink:href="#aE"/><use transform="matrix(0.05,0,0,0.05,68.9,0)" xlink:href="#aN"/><use transform="matrix(0.05,0,0,0.05,73.9,0)" xlink:href="#aC"/></g><g id="v"><use transform="matrix(0.05,0,0,0.05,0,0)" xlink:href="#aH"/><use transform="matrix(0.05,0,0,0.05,3.95,0)" xlink:href="#aB"/><use transform="matrix(0.05,0,0,0.05,13.949999999999998,0)" xlink:href="#aQ"/><use transform="matrix(0.05,0,0,0.05,23.95,0)" xlink:href="#aA"/><use transform="matrix(0.05,0,0,0.05,33.95,0)" xlink:href="#aM"/><use transform="matrix(0.05,0,0,0.05,38.95,0)" xlink:href="#aR"/><use transform="matrix(0.05,0,0,0.05,48.95,0)" xlink:href="#aM"/><use transform="matrix(0.05,0,0,0.05,53.95,0)" xlink:href="#aI"/><use transform="matrix(0.05,0,0,0.05,63.95,0)" xlink:href="#aJ"/><use transform="matrix(0.05,0,0,0.05,72.95,0)" xlink:href="#aM"/></g><path d="M118-107v75H92v-75H18v-26h74v-75h26v75h74v26h-74" id="bj"/><use transform="matrix(0.05,0,0,0.05,0,0)" xlink:href="#bj" id="w"/><path d="M87 75C49 33 22-17 22-94c0-76 28-126 65-167h31c-38 41-64 92-64 168S80 34 118 75H87" id="bk"/><path d="M33-261c38 41 65 92 65 168S71 34 33 75H2C39 34 66-17 66-93S39-220 2-261h31" id="bl"/><g id="x"><use transform="matrix(0.05,0,0,0.05,0,0)" xlink:href="#bh"/><use transform="matrix(0.05,0,0,0.05,10,0)" xlink:href="#aI"/><use transform="matrix(0.05,0,0,0.05,20,0)" xlink:href="#aB"/><use transform="matrix(0.05,0,0,0.05,30,0)" xlink:href="#aI"/><use transform="matrix(0.05,0,0,0.05,40,0)" xlink:href="#aE"/><use transform="matrix(0.05,0,0,0.05,45.95,0)" xlink:href="#aH"/><use transform="matrix(0.05,0,0,0.05,49.900000000000006,0)" xlink:href="#aE"/><use transform="matrix(0.05,0,0,0.05,55.85,0)" xlink:href="#aD"/><use transform="matrix(0.05,0,0,0.05,65.85000000000001,0)" xlink:href="#aV"/><use transform="matrix(0.05,0,0,0.05,69.80000000000001,0)" xlink:href="#bk"/><use transform="matrix(0.05,0,0,0.05,75.75000000000001,0)" xlink:href="#bl"/></g><path d="M197 0v-115H63V0H30v-248h33v105h134v-105h34V0h-34" id="bm"/><path d="M212-179c-10-28-35-45-73-45-59 0-87 40-87 99 0 60 29 101 89 101 43 0 62-24 78-52l27 14C228-24 195 4 139 4 59 4 22-46 18-125c-6-104 99-153 187-111 19 9 31 26 39 46" id="bn"/><g id="y"><use transform="matrix(0.05,0,0,0.05,0,0)" xlink:href="#aL"/><use transform="matrix(0.05,0,0,0.05,9,0)" xlink:href="#aE"/><use transform="matrix(0.05,0,0,0.05,14.949999999999998,0)" xlink:href="#aI"/><use transform="matrix(0.05,0,0,0.05,24.95,0)" xlink:href="#aD"/><use transform="matrix(0.05,0,0,0.05,34.95,0)" xlink:href="#aM"/><use transform="matrix(0.05,0,0,0.05,39.95,0)" xlink:href="#aI"/><use transform="matrix(0.05,0,0,0.05,49.95,0)" xlink:href="#bf"/><use transform="matrix(0.05,0,0,0.05,61.95,0)" xlink:href="#bm"/><use transform="matrix(0.05,0,0,0.05,74.9,0)" xlink:href="#aU"/><use transform="matrix(0.05,0,0,0.05,87.85000000000001,0)" xlink:href="#bn"/><use transform="matrix(0.05,0,0,0.05,100.80000000000001,0)" xlink:href="#bc"/><use transform="matrix(0.05,0,0,0.05,104.75,0)" xlink:href="#aH"/><use transform="matrix(0.05,0,0,0.05,108.7,0)" xlink:href="#aL"/><use transform="matrix(0.05,0,0,0.05,117.7,0)" xlink:href="#aT"/><use transform="matrix(0.05,0,0,0.05,126.7,0)" xlink:href="#bk"/><use transform="matrix(0.05,0,0,0.05,132.65,0)" xlink:href="#bl"/></g><path d="M240 0l2-218c-23 76-54 145-80 218h-23L58-218 59 0H30v-248h44l77 211c21-75 51-140 76-211h43V0h-30" id="bo"/><g id="z"><use transform="matrix(0.05,0,0,0.05,0,0)" xlink:href="#aC"/><use transform="matrix(0.05,0,0,0.05,10,0)" xlink:href="#az"/><use transform="matrix(0.05,0,0,0.05,20,0)" xlink:href="#aC"/><use transform="matrix(0.05,0,0,0.05,30,0)" xlink:href="#aD"/><use transform="matrix(0.05,0,0,0.05,40,0)" xlink:href="#aV"/><use transform="matrix(0.05,0,0,0.05,43.95,0)" xlink:href="#bo"/><use transform="matrix(0.05,0,0,0.05,58.900000000000006,0)" xlink:href="#aI"/><use transform="matrix(0.05,0,0,0.05,68.9,0)" xlink:href="#aE"/><use transform="matrix(0.05,0,0,0.05,74.85000000000001,0)" xlink:href="#aH"/><use transform="matrix(0.05,0,0,0.05,78.80000000000001,0)" xlink:href="#aM"/><use transform="matrix(0.05,0,0,0.05,83.80000000000001,0)" xlink:href="#aX"/><use transform="matrix(0.05,0,0,0.05,92.80000000000001,0)" xlink:href="#aI"/><use transform="matrix(0.05,0,0,0.05,102.80000000000001,0)" xlink:href="#bn"/><use transform="matrix(0.05,0,0,0.05,115.75,0)" xlink:href="#bc"/><use transform="matrix(0.05,0,0,0.05,119.7,0)" xlink:href="#aH"/><use transform="matrix(0.05,0,0,0.05,123.65000000000003,0)" xlink:href="#aL"/><use transform="matrix(0.05,0,0,0.05,132.65000000000003,0)" xlink:href="#aT"/><use transform="matrix(0.05,0,0,0.05,141.65000000000003,0)" xlink:href="#bk"/><use transform="matrix(0.05,0,0,0.05,147.60000000000002,0)" xlink:href="#bl"/></g><use transform="matrix(0.05,0,0,0.05,0,0)" xlink:href="#bj" id="A"/><g id="B"><use transform="matrix(0.05,0,0,0.05,0,0)" xlink:href="#aQ"/><use transform="matrix(0.05,0,0,0.05,10,0)" xlink:href="#aE"/><use transform="matrix(0.05,0,0,0.05,15.949999999999998,0)" xlink:href="#aI"/><use transform="matrix(0.05,0,0,0.05,25.950000000000003,0)" xlink:href="#ay"/><use transform="matrix(0.05,0,0,0.05,35.95,0)" xlink:href="#aI"/><use transform="matrix(0.05,0,0,0.05,45.95,0)" xlink:href="#aE"/><use transform="matrix(0.05,0,0,0.05,51.900000000000006,0)" xlink:href="#aH"/><use transform="matrix(0.05,0,0,0.05,55.85,0)" xlink:href="#bo"/><use transform="matrix(0.05,0,0,0.05,70.80000000000001,0)" xlink:href="#aI"/><use transform="matrix(0.05,0,0,0.05,80.80000000000001,0)" xlink:href="#aE"/><use transform="matrix(0.05,0,0,0.05,86.75000000000001,0)" xlink:href="#aH"/><use transform="matrix(0.05,0,0,0.05,90.70000000000002,0)" xlink:href="#aM"/><use transform="matrix(0.05,0,0,0.05,95.70000000000002,0)" xlink:href="#aX"/><use transform="matrix(0.05,0,0,0.05,104.7,0)" xlink:href="#aI"/><use transform="matrix(0.05,0,0,0.05,114.7,0)" xlink:href="#bn"/><use transform="matrix(0.05,0,0,0.05,127.65000000000003,0)" xlink:href="#bc"/><use transform="matrix(0.05,0,0,0.05,131.60000000000002,0)" xlink:href="#aH"/><use transform="matrix(0.05,0,0,0.05,135.55,0)" xlink:href="#aL"/><use transform="matrix(0.05,0,0,0.05,144.55,0)" xlink:href="#aT"/><use transform="matrix(0.05,0,0,0.05,153.55,0)" xlink:href="#bk"/><use transform="matrix(0.05,0,0,0.05,159.5,0)" xlink:href="#bl"/></g><path d="M143 4C61 4 22-44 18-125c-5-107 100-154 193-111 17 8 29 25 37 43l-32 9c-13-25-37-40-76-40-61 0-88 39-88 99 0 61 29 100 91 101 35 0 62-11 79-27v-45h-74v-28h105v86C228-13 192 4 143 4" id="bp"/><g id="C"><use transform="matrix(0.05,0,0,0.05,0,0)" xlink:href="#aE"/><use transform="matrix(0.05,0,0,0.05,5.95,0)" xlink:href="#aH"/><use transform="matrix(0.05,0,0,0.05,9.9,0)" xlink:href="#aW"/><use transform="matrix(0.05,0,0,0.05,18.9,0)" xlink:href="#aH"/><use transform="matrix(0.05,0,0,0.05,22.849999999999998,0)" xlink:href="#bp"/><use transform="matrix(0.05,0,0,0.05,36.849999999999994,0)" xlink:href="#aE"/><use transform="matrix(0.05,0,0,0.05,42.8,0)" xlink:href="#aD"/><use transform="matrix(0.05,0,0,0.05,52.79999999999999,0)" xlink:href="#bi"/><use transform="matrix(0.05,0,0,0.05,57.79999999999999,0)" xlink:href="#bn"/><use transform="matrix(0.05,0,0,0.05,70.75,0)" xlink:href="#bc"/><use transform="matrix(0.05,0,0,0.05,74.7,0)" xlink:href="#aH"/><use transform="matrix(0.05,0,0,0.05,78.65,0)" xlink:href="#aL"/><use transform="matrix(0.05,0,0,0.05,87.65,0)" xlink:href="#aT"/><use transform="matrix(0.05,0,0,0.05,96.65,0)" xlink:href="#bk"/><use transform="matrix(0.05,0,0,0.05,102.60000000000001,0)" xlink:href="#bl"/></g><g id="D"><use transform="matrix(0.05,0,0,0.05,0,0)" xlink:href="#ax"/><use transform="matrix(0.05,0,0,0.05,10.5,0)" xlink:href="#ax"/><use transform="matrix(0.05,0,0,0.05,21,0)" xlink:href="#aL"/><use transform="matrix(0.05,0,0,0.05,30,0)" xlink:href="#az"/><use transform="matrix(0.05,0,0,0.05,40,0)" xlink:href="#aB"/><use transform="matrix(0.05,0,0,0.05,50,0)" xlink:href="#aM"/><use transform="matrix(0.05,0,0,0.05,55,0)" xlink:href="#aE"/><use transform="matrix(0.05,0,0,0.05,60.95,0)" xlink:href="#az"/><use transform="matrix(0.05,0,0,0.05,70.95,0)" xlink:href="#bc"/><use transform="matrix(0.05,0,0,0.05,74.9,0)" xlink:href="#aG"/><use transform="matrix(0.05,0,0,0.05,85.4,0)" xlink:href="#aG"/></g><g id="E"><use transform="matrix(0.05,0,0,0.05,0,0)" xlink:href="#aT"/><use transform="matrix(0.05,0,0,0.05,9,0)" xlink:href="#az"/><use transform="matrix(0.05,0,0,0.05,19,0)" xlink:href="#aC"/><use transform="matrix(0.05,0,0,0.05,29,0)" xlink:href="#aD"/></g><path d="M16-82v-28h88v28H16" id="bq"/><use transform="matrix(0.05,0,0,0.05,0,0)" xlink:href="#bq" id="F"/><path d="M232-93c-1 65-40 97-104 97C67 4 28-28 28-90v-158h33c8 89-33 224 67 224 102 0 64-133 71-224h33v155" id="br"/><g id="G"><use transform="matrix(0.05,0,0,0.05,0,0)" xlink:href="#ay"/><use transform="matrix(0.05,0,0,0.05,10,0)" xlink:href="#aD"/><use transform="matrix(0.05,0,0,0.05,20,0)" xlink:href="#aW"/><use transform="matrix(0.05,0,0,0.05,29,0)" xlink:href="#aI"/><use transform="matrix(0.05,0,0,0.05,39,0)" xlink:href="#br"/><use transform="matrix(0.05,0,0,0.05,51.95,0)" xlink:href="#aE"/><use transform="matrix(0.05,0,0,0.05,57.900000000000006,0)" xlink:href="#bc"/></g><g id="H"><use transform="matrix(0.05,0,0,0.05,0,0)" xlink:href="#bb"/><use transform="matrix(0.05,0,0,0.05,12,0)" xlink:href="#aM"/><use transform="matrix(0.05,0,0,0.05,17,0)" xlink:href="#aE"/><use transform="matrix(0.05,0,0,0.05,22.95,0)" xlink:href="#aH"/><use transform="matrix(0.05,0,0,0.05,26.899999999999995,0)" xlink:href="#aB"/><use transform="matrix(0.05,0,0,0.05,36.9,0)" xlink:href="#bh"/></g><path d="M18-150v-26h174v26H18zm0 90v-26h174v26H18" id="bs"/><use transform="matrix(0.05,0,0,0.05,0,0)" xlink:href="#bs" id="I"/><path d="M47-170H22l-4-78h33" id="bt"/><path d="M0 4l72-265h28L28 4H0" id="bu"/><path d="M33 0v-38h34V0H33" id="bv"/><path d="M27 0v-27h64v-190l-56 39v-29l58-41h29v221h61V0H27" id="bw"/><g id="J"><use transform="matrix(0.05,0,0,0.05,0,0)" xlink:href="#bt"/><use transform="matrix(0.05,0,0,0.05,3.4000000000000004,0)" xlink:href="#bg"/><use transform="matrix(0.05,0,0,0.05,13.4,0)" xlink:href="#aM"/><use transform="matrix(0.05,0,0,0.05,18.4,0)" xlink:href="#aM"/><use transform="matrix(0.05,0,0,0.05,23.4,0)" xlink:href="#aQ"/><use transform="matrix(0.05,0,0,0.05,33.4,0)" xlink:href="#aW"/><use transform="matrix(0.05,0,0,0.05,42.4,0)" xlink:href="#aP"/><use transform="matrix(0.05,0,0,0.05,47.4,0)" xlink:href="#bu"/><use transform="matrix(0.05,0,0,0.05,52.400000000000006,0)" xlink:href="#bu"/><use transform="matrix(0.05,0,0,0.05,57.400000000000006,0)" xlink:href="#aE"/><use transform="matrix(0.05,0,0,0.05,63.35,0)" xlink:href="#aI"/><use transform="matrix(0.05,0,0,0.05,73.35,0)" xlink:href="#aW"/><use transform="matrix(0.05,0,0,0.05,82.35,0)" xlink:href="#aM"/><use transform="matrix(0.05,0,0,0.05,87.35,0)" xlink:href="#bv"/><use transform="matrix(0.05,0,0,0.05,92.35,0)" xlink:href="#aI"/><use transform="matrix(0.05,0,0,0.05,102.35,0)" xlink:href="#bg"/><use transform="matrix(0.05,0,0,0.05,112.34999999999998,0)" xlink:href="#aE"/><use transform="matrix(0.05,0,0,0.05,118.30000000000001,0)" xlink:href="#aW"/><use transform="matrix(0.05,0,0,0.05,127.30000000000001,0)" xlink:href="#aL"/><use transform="matrix(0.05,0,0,0.05,136.3,0)" xlink:href="#aD"/><use transform="matrix(0.05,0,0,0.05,146.3,0)" xlink:href="#aQ"/><use transform="matrix(0.05,0,0,0.05,156.3,0)" xlink:href="#aI"/><use transform="matrix(0.05,0,0,0.05,166.3,0)" xlink:href="#bv"/><use transform="matrix(0.05,0,0,0.05,171.3,0)" xlink:href="#aL"/><use transform="matrix(0.05,0,0,0.05,180.3,0)" xlink:href="#az"/><use transform="matrix(0.05,0,0,0.05,190.3,0)" xlink:href="#aO"/><use transform="matrix(0.05,0,0,0.05,205.25,0)" xlink:href="#bu"/><use transform="matrix(0.05,0,0,0.05,210.25,0)" xlink:href="#aE"/><use transform="matrix(0.05,0,0,0.05,216.19999999999996,0)" xlink:href="#aI"/><use transform="matrix(0.05,0,0,0.05,226.19999999999996,0)" xlink:href="#aW"/><use transform="matrix(0.05,0,0,0.05,235.19999999999996,0)" xlink:href="#aM"/><use transform="matrix(0.05,0,0,0.05,240.19999999999996,0)" xlink:href="#bu"/><use transform="matrix(0.05,0,0,0.05,245.19999999999996,0)" xlink:href="#aX"/><use transform="matrix(0.05,0,0,0.05,254.19999999999996,0)" xlink:href="#bw"/><use transform="matrix(0.05,0,0,0.05,264.2,0)" xlink:href="#bt"/></g><path d="M145-31C134-9 116 4 85 4 32 4 16-35 15-94c0-59 17-99 70-100 32-1 48 14 60 33 0-11-1-24 2-32h30l-1 268h-32zM93-21c41 0 51-33 51-76s-8-73-50-73c-40 0-46 35-46 75s5 74 45 74" id="bx"/><g id="K"><use transform="matrix(0.05,0,0,0.05,0,0)" xlink:href="#bx"/><use transform="matrix(0.05,0,0,0.05,10,0)" xlink:href="#aA"/><use transform="matrix(0.05,0,0,0.05,20,0)" xlink:href="#aI"/><use transform="matrix(0.05,0,0,0.05,30,0)" xlink:href="#aE"/><use transform="matrix(0.05,0,0,0.05,35.95,0)" xlink:href="#aF"/><use transform="matrix(0.05,0,0,0.05,44.95,0)" xlink:href="#br"/><use transform="matrix(0.05,0,0,0.05,57.900000000000006,0)" xlink:href="#aE"/><use transform="matrix(0.05,0,0,0.05,63.85,0)" xlink:href="#bc"/></g><g id="L"><use transform="matrix(0.05,0,0,0.05,0,0)" xlink:href="#bt"/><use transform="matrix(0.05,0,0,0.05,3.4000000000000004,0)" xlink:href="#bg"/><use transform="matrix(0.05,0,0,0.05,13.4,0)" xlink:href="#aM"/><use transform="matrix(0.05,0,0,0.05,18.4,0)" xlink:href="#aM"/><use transform="matrix(0.05,0,0,0.05,23.4,0)" xlink:href="#aQ"/><use transform="matrix(0.05,0,0,0.05,33.4,0)" xlink:href="#aW"/><use transform="matrix(0.05,0,0,0.05,42.4,0)" xlink:href="#aP"/><use transform="matrix(0.05,0,0,0.05,47.4,0)" xlink:href="#bu"/><use transform="matrix(0.05,0,0,0.05,52.400000000000006,0)" xlink:href="#bu"/><use transform="matrix(0.05,0,0,0.05,57.400000000000006,0)" xlink:href="#aE"/><use transform="matrix(0.05,0,0,0.05,63.35,0)" xlink:href="#aI"/><use transform="matrix(0.05,0,0,0.05,73.35,0)" xlink:href="#aW"/><use transform="matrix(0.05,0,0,0.05,82.35,0)" xlink:href="#aM"/><use transform="matrix(0.05,0,0,0.05,87.35,0)" xlink:href="#bv"/><use transform="matrix(0.05,0,0,0.05,92.35,0)" xlink:href="#aI"/><use transform="matrix(0.05,0,0,0.05,102.35,0)" xlink:href="#bg"/><use transform="matrix(0.05,0,0,0.05,112.34999999999998,0)" xlink:href="#aE"/><use transform="matrix(0.05,0,0,0.05,118.30000000000001,0)" xlink:href="#aW"/><use transform="matrix(0.05,0,0,0.05,127.30000000000001,0)" xlink:href="#aL"/><use transform="matrix(0.05,0,0,0.05,136.3,0)" xlink:href="#aD"/><use transform="matrix(0.05,0,0,0.05,146.3,0)" xlink:href="#aQ"/><use transform="matrix(0.05,0,0,0.05,156.3,0)" xlink:href="#aI"/><use transform="matrix(0.05,0,0,0.05,166.3,0)" xlink:href="#bv"/><use transform="matrix(0.05,0,0,0.05,171.3,0)" xlink:href="#aL"/><use transform="matrix(0.05,0,0,0.05,180.3,0)" xlink:href="#az"/><use transform="matrix(0.05,0,0,0.05,190.3,0)" xlink:href="#aO"/><use transform="matrix(0.05,0,0,0.05,205.25,0)" xlink:href="#bu"/><use transform="matrix(0.05,0,0,0.05,210.25,0)" xlink:href="#aE"/><use transform="matrix(0.05,0,0,0.05,216.19999999999996,0)" xlink:href="#aI"/><use transform="matrix(0.05,0,0,0.05,226.19999999999996,0)" xlink:href="#aW"/><use transform="matrix(0.05,0,0,0.05,235.19999999999996,0)" xlink:href="#aM"/><use transform="matrix(0.05,0,0,0.05,240.19999999999996,0)" xlink:href="#bu"/><use transform="matrix(0.05,0,0,0.05,245.19999999999996,0)" xlink:href="#aX"/><use transform="matrix(0.05,0,0,0.05,254.19999999999996,0)" xlink:href="#bw"/><use transform="matrix(0.05,0,0,0.05,264.2,0)" xlink:href="#bt"/><use transform="matrix(0.05,0,0,0.05,267.59999999999997,0)" xlink:href="#bu"/><use transform="matrix(0.05,0,0,0.05,272.59999999999997,0)" xlink:href="#bx"/><use transform="matrix(0.05,0,0,0.05,282.59999999999997,0)" xlink:href="#aA"/><use transform="matrix(0.05,0,0,0.05,292.59999999999997,0)" xlink:href="#aI"/><use transform="matrix(0.05,0,0,0.05,302.59999999999997,0)" xlink:href="#aE"/><use transform="matrix(0.05,0,0,0.05,308.54999999999995,0)" xlink:href="#aF"/><use transform="matrix(0.05,0,0,0.05,317.54999999999995,0)" xlink:href="#bt"/></g><g id="M"><use transform="matrix(0.05,0,0,0.05,0,0)" xlink:href="#aA"/><use transform="matrix(0.05,0,0,0.05,10,0)" xlink:href="#aW"/><use transform="matrix(0.05,0,0,0.05,19,0)" xlink:href="#aI"/><use transform="matrix(0.05,0,0,0.05,29,0)" xlink:href="#aE"/><use transform="matrix(0.05,0,0,0.05,34.95,0)" xlink:href="#aB"/><use transform="matrix(0.05,0,0,0.05,44.95,0)" xlink:href="#aD"/><use transform="matrix(0.05,0,0,0.05,54.95,0)" xlink:href="#aO"/><use transform="matrix(0.05,0,0,0.05,69.9,0)" xlink:href="#aI"/></g><g id="N"><use transform="matrix(0.05,0,0,0.05,0,0)" xlink:href="#bb"/><use transform="matrix(0.05,0,0,0.05,12,0)" xlink:href="#aM"/><use transform="matrix(0.05,0,0,0.05,17,0)" xlink:href="#aE"/><use transform="matrix(0.05,0,0,0.05,22.95,0)" xlink:href="#aH"/><use transform="matrix(0.05,0,0,0.05,26.899999999999995,0)" xlink:href="#aB"/><use transform="matrix(0.05,0,0,0.05,36.9,0)" xlink:href="#bh"/></g><path d="M206 0h-36l-40-164L89 0H53L-1-190h32L70-26l43-164h34l41 164 42-164h31" id="by"/><g id="O"><use transform="matrix(0.05,0,0,0.05,0,0)" xlink:href="#aQ"/><use transform="matrix(0.05,0,0,0.05,10,0)" xlink:href="#aD"/><use transform="matrix(0.05,0,0,0.05,20,0)" xlink:href="#aW"/><use transform="matrix(0.05,0,0,0.05,29,0)" xlink:href="#aW"/><use transform="matrix(0.05,0,0,0.05,38,0)" xlink:href="#by"/><use transform="matrix(0.05,0,0,0.05,50.95,0)" xlink:href="#az"/><use transform="matrix(0.05,0,0,0.05,60.95,0)" xlink:href="#aE"/><use transform="matrix(0.05,0,0,0.05,66.9,0)" xlink:href="#aC"/></g><g id="P"><use transform="matrix(0.05,0,0,0.05,0,0)" xlink:href="#bb"/><use transform="matrix(0.05,0,0,0.05,12,0)" xlink:href="#aM"/><use transform="matrix(0.05,0,0,0.05,17,0)" xlink:href="#aE"/><use transform="matrix(0.05,0,0,0.05,22.95,0)" xlink:href="#aH"/><use transform="matrix(0.05,0,0,0.05,26.899999999999995,0)" xlink:href="#aB"/><use transform="matrix(0.05,0,0,0.05,36.9,0)" xlink:href="#bh"/></g><use transform="matrix(0.05,0,0,0.05,0,0)" xlink:href="#aK" id="Q"/><g id="R"><use transform="matrix(0.05,0,0,0.05,0,0)" xlink:href="#bh"/><use transform="matrix(0.05,0,0,0.05,10,0)" xlink:href="#aI"/><use transform="matrix(0.05,0,0,0.05,20,0)" xlink:href="#aM"/><use transform="matrix(0.05,0,0,0.05,25,0)" xlink:href="#bb"/><use transform="matrix(0.05,0,0,0.05,37,0)" xlink:href="#aI"/><use transform="matrix(0.05,0,0,0.05,47,0)" xlink:href="#aW"/><use transform="matrix(0.05,0,0,0.05,56,0)" xlink:href="#aW"/><use transform="matrix(0.05,0,0,0.05,65,0)" xlink:href="#aH"/><use transform="matrix(0.05,0,0,0.05,68.95,0)" xlink:href="#az"/><use transform="matrix(0.05,0,0,0.05,78.95,0)" xlink:href="#aB"/><use transform="matrix(0.05,0,0,0.05,88.95,0)" xlink:href="#aN"/><use transform="matrix(0.05,0,0,0.05,93.95,0)" xlink:href="#aC"/><use transform="matrix(0.05,0,0,0.05,103.95,0)" xlink:href="#bk"/><use transform="matrix(0.05,0,0,0.05,109.9,0)" xlink:href="#bl"/></g><use transform="matrix(0.05,0,0,0.05,0,0)" xlink:href="#aP" id="S"/><g id="T"><use transform="matrix(0.05,0,0,0.05,0,0)" xlink:href="#bb"/><use transform="matrix(0.05,0,0,0.05,12,0)" xlink:href="#aM"/><use transform="matrix(0.05,0,0,0.05,17,0)" xlink:href="#aE"/><use transform="matrix(0.05,0,0,0.05,22.95,0)" xlink:href="#aH"/><use transform="matrix(0.05,0,0,0.05,26.899999999999995,0)" xlink:href="#aB"/><use transform="matrix(0.05,0,0,0.05,36.9,0)" xlink:href="#bh"/></g><g id="U"><use transform="matrix(0.05,0,0,0.05,0,0)" xlink:href="#aW"/><use transform="matrix(0.05,0,0,0.05,9,0)" xlink:href="#aI"/><use transform="matrix(0.05,0,0,0.05,19,0)" xlink:href="#aW"/><use transform="matrix(0.05,0,0,0.05,28,0)" xlink:href="#aW"/><use transform="matrix(0.05,0,0,0.05,37,0)" xlink:href="#aH"/><use transform="matrix(0.05,0,0,0.05,40.95,0)" xlink:href="#az"/><use transform="matrix(0.05,0,0,0.05,50.95,0)" xlink:href="#aB"/><use transform="matrix(0.05,0,0,0.05,60.95,0)" xlink:href="#aN"/><use transform="matrix(0.05,0,0,0.05,65.95,0)" xlink:href="#aC"/></g><use transform="matrix(0.05,0,0,0.05,0,0)" xlink:href="#bj" id="V"/><g id="W"><use transform="matrix(0.05,0,0,0.05,0,0)" xlink:href="#bh"/><use transform="matrix(0.05,0,0,0.05,10,0)" xlink:href="#aI"/><use transform="matrix(0.05,0,0,0.05,20,0)" xlink:href="#aB"/><use transform="matrix(0.05,0,0,0.05,30,0)" xlink:href="#aI"/><use transform="matrix(0.05,0,0,0.05,40,0)" xlink:href="#aE"/><use transform="matrix(0.05,0,0,0.05,45.95,0)" xlink:href="#aH"/><use transform="matrix(0.05,0,0,0.05,49.900000000000006,0)" xlink:href="#aE"/><use transform="matrix(0.05,0,0,0.05,55.85,0)" xlink:href="#aD"/><use transform="matrix(0.05,0,0,0.05,65.85000000000001,0)" xlink:href="#aV"/><use transform="matrix(0.05,0,0,0.05,69.80000000000001,0)" xlink:href="#aS"/><use transform="matrix(0.05,0,0,0.05,81.80000000000001,0)" xlink:href="#az"/><use transform="matrix(0.05,0,0,0.05,91.80000000000001,0)" xlink:href="#aC"/><use transform="matrix(0.05,0,0,0.05,101.80000000000001,0)" xlink:href="#aD"/><use transform="matrix(0.05,0,0,0.05,111.80000000000001,0)" xlink:href="#aM"/><use transform="matrix(0.05,0,0,0.05,116.80000000000001,0)" xlink:href="#aT"/><use transform="matrix(0.05,0,0,0.05,125.80000000000001,0)" xlink:href="#aI"/><use transform="matrix(0.05,0,0,0.05,135.8,0)" xlink:href="#bk"/><use transform="matrix(0.05,0,0,0.05,141.75,0)" xlink:href="#aH"/><use transform="matrix(0.05,0,0,0.05,145.7,0)" xlink:href="#aB"/><use transform="matrix(0.05,0,0,0.05,155.7,0)" xlink:href="#aM"/></g><g id="X"><use transform="matrix(0.05,0,0,0.05,0,0)" xlink:href="#aW"/><use transform="matrix(0.05,0,0,0.05,9,0)" xlink:href="#aM"/><use transform="matrix(0.05,0,0,0.05,14,0)" xlink:href="#aS"/><use transform="matrix(0.05,0,0,0.05,26,0)" xlink:href="#aD"/><use transform="matrix(0.05,0,0,0.05,36,0)" xlink:href="#aL"/><use transform="matrix(0.05,0,0,0.05,45,0)" xlink:href="#aH"/><use transform="matrix(0.05,0,0,0.05,48.95,0)" xlink:href="#aI"/><use transform="matrix(0.05,0,0,0.05,58.95,0)" xlink:href="#aB"/><use transform="matrix(0.05,0,0,0.05,68.95,0)" xlink:href="#aM"/><use transform="matrix(0.05,0,0,0.05,73.95,0)" xlink:href="#aD"/><use transform="matrix(0.05,0,0,0.05,83.95,0)" xlink:href="#bl"/></g><g id="Y"><use transform="matrix(0.05,0,0,0.05,0,0)" xlink:href="#aI"/><use transform="matrix(0.05,0,0,0.05,10,0)" xlink:href="#bg"/><use transform="matrix(0.05,0,0,0.05,20,0)" xlink:href="#aE"/><use transform="matrix(0.05,0,0,0.05,25.950000000000003,0)" xlink:href="#aN"/><use transform="matrix(0.05,0,0,0.05,30.950000000000003,0)" xlink:href="#aC"/></g><g id="Z"><use transform="matrix(0.05,0,0,0.05,0,0)" xlink:href="#aL"/><use transform="matrix(0.05,0,0,0.05,9,0)" xlink:href="#aE"/><use transform="matrix(0.05,0,0,0.05,14.949999999999998,0)" xlink:href="#aI"/><use transform="matrix(0.05,0,0,0.05,24.95,0)" xlink:href="#aD"/><use transform="matrix(0.05,0,0,0.05,34.95,0)" xlink:href="#aM"/><use transform="matrix(0.05,0,0,0.05,39.95,0)" xlink:href="#aI"/><use transform="matrix(0.05,0,0,0.05,49.95,0)" xlink:href="#bf"/><use transform="matrix(0.05,0,0,0.05,61.95,0)" xlink:href="#bm"/><use transform="matrix(0.05,0,0,0.05,74.9,0)" xlink:href="#aU"/><use transform="matrix(0.05,0,0,0.05,87.85000000000001,0)" xlink:href="#bk"/><use transform="matrix(0.05,0,0,0.05,93.80000000000001,0)" xlink:href="#bb"/><use transform="matrix(0.05,0,0,0.05,105.80000000000001,0)" xlink:href="#aM"/><use transform="matrix(0.05,0,0,0.05,110.80000000000001,0)" xlink:href="#aE"/><use transform="matrix(0.05,0,0,0.05,116.75,0)" xlink:href="#aH"/><use transform="matrix(0.05,0,0,0.05,120.7,0)" xlink:href="#aB"/><use transform="matrix(0.05,0,0,0.05,130.70000000000002,0)" xlink:href="#bh"/></g><path d="M68-38c1 34 0 65-14 84H32c9-13 17-26 17-46H33v-38h35" id="bz"/><g id="aa"><use transform="matrix(0.05,0,0,0.05,0,0)" xlink:href="#aH"/><use transform="matrix(0.05,0,0,0.05,3.95,0)" xlink:href="#aO"/><use transform="matrix(0.05,0,0,0.05,18.900000000000002,0)" xlink:href="#aI"/><use transform="matrix(0.05,0,0,0.05,28.900000000000002,0)" xlink:href="#bz"/></g><g id="ab"><use transform="matrix(0.05,0,0,0.05,0,0)" xlink:href="#aQ"/><use transform="matrix(0.05,0,0,0.05,10,0)" xlink:href="#aE"/><use transform="matrix(0.05,0,0,0.05,15.949999999999998,0)" xlink:href="#aH"/><use transform="matrix(0.05,0,0,0.05,19.9,0)" xlink:href="#aH"/><use transform="matrix(0.05,0,0,0.05,23.849999999999998,0)" xlink:href="#aO"/><use transform="matrix(0.05,0,0,0.05,38.8,0)" xlink:href="#aI"/><use transform="matrix(0.05,0,0,0.05,48.8,0)" xlink:href="#aT"/><use transform="matrix(0.05,0,0,0.05,57.79999999999999,0)" xlink:href="#bz"/></g><g id="ac"><use transform="matrix(0.05,0,0,0.05,0,0)" xlink:href="#aC"/><use transform="matrix(0.05,0,0,0.05,10,0)" xlink:href="#aD"/><use transform="matrix(0.05,0,0,0.05,20,0)" xlink:href="#aM"/><use transform="matrix(0.05,0,0,0.05,25,0)" xlink:href="#aI"/><use transform="matrix(0.05,0,0,0.05,35,0)" xlink:href="#bl"/></g><g id="ad"><use transform="matrix(0.05,0,0,0.05,0,0)" xlink:href="#aC"/><use transform="matrix(0.05,0,0,0.05,10,0)" xlink:href="#az"/><use transform="matrix(0.05,0,0,0.05,20,0)" xlink:href="#aC"/><use transform="matrix(0.05,0,0,0.05,30,0)" xlink:href="#aD"/><use transform="matrix(0.05,0,0,0.05,40,0)" xlink:href="#aV"/><use transform="matrix(0.05,0,0,0.05,43.95,0)" xlink:href="#bo"/><use transform="matrix(0.05,0,0,0.05,58.900000000000006,0)" xlink:href="#aI"/><use transform="matrix(0.05,0,0,0.05,68.9,0)" xlink:href="#aE"/><use transform="matrix(0.05,0,0,0.05,74.85000000000001,0)" xlink:href="#aH"/><use transform="matrix(0.05,0,0,0.05,78.80000000000001,0)" xlink:href="#aM"/><use transform="matrix(0.05,0,0,0.05,83.80000000000001,0)" xlink:href="#aX"/><use transform="matrix(0.05,0,0,0.05,92.80000000000001,0)" xlink:href="#aI"/><use transform="matrix(0.05,0,0,0.05,102.80000000000001,0)" xlink:href="#bk"/><use transform="matrix(0.05,0,0,0.05,108.75,0)" xlink:href="#bb"/><use transform="matrix(0.05,0,0,0.05,120.75,0)" xlink:href="#aM"/><use transform="matrix(0.05,0,0,0.05,125.75,0)" xlink:href="#aE"/><use transform="matrix(0.05,0,0,0.05,131.70000000000002,0)" xlink:href="#aH"/><use transform="matrix(0.05,0,0,0.05,135.65,0)" xlink:href="#aB"/><use transform="matrix(0.05,0,0,0.05,145.65,0)" xlink:href="#bh"/></g><g id="ae"><use transform="matrix(0.05,0,0,0.05,0,0)" xlink:href="#aI"/><use transform="matrix(0.05,0,0,0.05,10,0)" xlink:href="#bg"/><use transform="matrix(0.05,0,0,0.05,20,0)" xlink:href="#aE"/><use transform="matrix(0.05,0,0,0.05,25.950000000000003,0)" xlink:href="#aN"/><use transform="matrix(0.05,0,0,0.05,30.950000000000003,0)" xlink:href="#aC"/><use transform="matrix(0.05,0,0,0.05,40.95,0)" xlink:href="#bz"/></g><path d="M153-248C145-148 188 4 80 4 36 3 13-21 6-62l32-5c4 25 16 42 43 43 27 0 39-20 39-49v-147H72v-28h81" id="bA"/><path d="M140-251c81 0 123 46 123 126C263-46 219 4 140 4 59 4 17-45 17-125s42-126 123-126zm0 227c63 0 89-41 89-101s-29-99-89-99c-61 0-89 39-89 99S79-25 140-24" id="bB"/><path d="M190 0L58-211 59 0H30v-248h39L202-35l-2-213h31V0h-41" id="bC"/><g id="af"><use transform="matrix(0.05,0,0,0.05,0,0)" xlink:href="#bA"/><use transform="matrix(0.05,0,0,0.05,9,0)" xlink:href="#bb"/><use transform="matrix(0.05,0,0,0.05,21,0)" xlink:href="#bB"/><use transform="matrix(0.05,0,0,0.05,35,0)" xlink:href="#bC"/><use transform="matrix(0.05,0,0,0.05,47.95,0)" xlink:href="#bB"/><use transform="matrix(0.05,0,0,0.05,61.95,0)" xlink:href="#ay"/><use transform="matrix(0.05,0,0,0.05,71.95,0)" xlink:href="#aV"/><use transform="matrix(0.05,0,0,0.05,75.9,0)" xlink:href="#aI"/><use transform="matrix(0.05,0,0,0.05,85.9,0)" xlink:href="#aL"/><use transform="matrix(0.05,0,0,0.05,94.9,0)" xlink:href="#aM"/></g><path d="M209 0H11v-25l151-195H24v-28h176v25L50-27h159V0" id="bD"/><g id="ag"><use transform="matrix(0.05,0,0,0.05,0,0)" xlink:href="#aX"/><use transform="matrix(0.05,0,0,0.05,9,0)" xlink:href="#aH"/><use transform="matrix(0.05,0,0,0.05,12.949999999999998,0)" xlink:href="#aM"/><use transform="matrix(0.05,0,0,0.05,17.95,0)" xlink:href="#aD"/><use transform="matrix(0.05,0,0,0.05,27.950000000000003,0)" xlink:href="#bc"/><use transform="matrix(0.05,0,0,0.05,31.899999999999995,0)" xlink:href="#aB"/><use transform="matrix(0.05,0,0,0.05,41.9,0)" xlink:href="#aH"/><use transform="matrix(0.05,0,0,0.05,45.85,0)" xlink:href="#bD"/><use transform="matrix(0.05,0,0,0.05,56.800000000000004,0)" xlink:href="#aB"/><use transform="matrix(0.05,0,0,0.05,66.80000000000001,0)" xlink:href="#aD"/><use transform="matrix(0.05,0,0,0.05,76.80000000000001,0)" xlink:href="#aT"/><use transform="matrix(0.05,0,0,0.05,85.80000000000001,0)" xlink:href="#aH"/><use transform="matrix(0.05,0,0,0.05,89.75000000000001,0)" xlink:href="#bl"/></g><g id="ah"><use transform="matrix(0.05,0,0,0.05,0,0)" xlink:href="#aQ"/><use transform="matrix(0.05,0,0,0.05,10,0)" xlink:href="#aE"/><use transform="matrix(0.05,0,0,0.05,15.949999999999998,0)" xlink:href="#aI"/><use transform="matrix(0.05,0,0,0.05,25.950000000000003,0)" xlink:href="#ay"/><use transform="matrix(0.05,0,0,0.05,35.95,0)" xlink:href="#aI"/><use transform="matrix(0.05,0,0,0.05,45.95,0)" xlink:href="#aE"/><use transform="matrix(0.05,0,0,0.05,51.900000000000006,0)" xlink:href="#aH"/><use transform="matrix(0.05,0,0,0.05,55.85,0)" xlink:href="#bo"/><use transform="matrix(0.05,0,0,0.05,70.80000000000001,0)" xlink:href="#aI"/><use transform="matrix(0.05,0,0,0.05,80.80000000000001,0)" xlink:href="#aE"/><use transform="matrix(0.05,0,0,0.05,86.75000000000001,0)" xlink:href="#aH"/><use transform="matrix(0.05,0,0,0.05,90.70000000000002,0)" xlink:href="#aM"/><use transform="matrix(0.05,0,0,0.05,95.70000000000002,0)" xlink:href="#aX"/><use transform="matrix(0.05,0,0,0.05,104.7,0)" xlink:href="#aI"/><use transform="matrix(0.05,0,0,0.05,114.7,0)" xlink:href="#bk"/><use transform="matrix(0.05,0,0,0.05,120.65000000000003,0)" xlink:href="#bb"/><use transform="matrix(0.05,0,0,0.05,132.65000000000003,0)" xlink:href="#aM"/><use transform="matrix(0.05,0,0,0.05,137.65000000000003,0)" xlink:href="#aE"/><use transform="matrix(0.05,0,0,0.05,143.60000000000002,0)" xlink:href="#aH"/><use transform="matrix(0.05,0,0,0.05,147.55,0)" xlink:href="#aB"/><use transform="matrix(0.05,0,0,0.05,157.55,0)" xlink:href="#bh"/></g><g id="ai"><use transform="matrix(0.05,0,0,0.05,0,0)" xlink:href="#aI"/><use transform="matrix(0.05,0,0,0.05,10,0)" xlink:href="#bg"/><use transform="matrix(0.05,0,0,0.05,20,0)" xlink:href="#aE"/><use transform="matrix(0.05,0,0,0.05,25.950000000000003,0)" xlink:href="#aN"/><use transform="matrix(0.05,0,0,0.05,30.950000000000003,0)" xlink:href="#aC"/><use transform="matrix(0.05,0,0,0.05,40.95,0)" xlink:href="#bl"/></g><g id="aj"><use transform="matrix(0.05,0,0,0.05,0,0)" xlink:href="#aE"/><use transform="matrix(0.05,0,0,0.05,5.95,0)" xlink:href="#aH"/><use transform="matrix(0.05,0,0,0.05,9.9,0)" xlink:href="#aW"/><use transform="matrix(0.05,0,0,0.05,18.9,0)" xlink:href="#aH"/><use transform="matrix(0.05,0,0,0.05,22.849999999999998,0)" xlink:href="#bp"/><use transform="matrix(0.05,0,0,0.05,36.849999999999994,0)" xlink:href="#aE"/><use transform="matrix(0.05,0,0,0.05,42.8,0)" xlink:href="#aD"/><use transform="matrix(0.05,0,0,0.05,52.79999999999999,0)" xlink:href="#bi"/><use transform="matrix(0.05,0,0,0.05,57.79999999999999,0)" xlink:href="#bk"/><use transform="matrix(0.05,0,0,0.05,63.75,0)" xlink:href="#bb"/><use transform="matrix(0.05,0,0,0.05,75.75,0)" xlink:href="#aM"/><use transform="matrix(0.05,0,0,0.05,80.75,0)" xlink:href="#aE"/><use transform="matrix(0.05,0,0,0.05,86.7,0)" xlink:href="#aH"/><use transform="matrix(0.05,0,0,0.05,90.65,0)" xlink:href="#aB"/><use transform="matrix(0.05,0,0,0.05,100.65,0)" xlink:href="#bh"/></g><g id="al"><use transform="matrix(0.05,0,0,0.05,0,0)" xlink:href="#aQ"/><use transform="matrix(0.05,0,0,0.05,10,0)" xlink:href="#aD"/><use transform="matrix(0.05,0,0,0.05,20,0)" xlink:href="#aE"/><use transform="matrix(0.05,0,0,0.05,25.950000000000003,0)" xlink:href="#aW"/><use transform="matrix(0.05,0,0,0.05,34.95,0)" xlink:href="#aI"/><use transform="matrix(0.05,0,0,0.05,44.95,0)" xlink:href="#aS"/><use transform="matrix(0.05,0,0,0.05,56.95,0)" xlink:href="#aE"/><use transform="matrix(0.05,0,0,0.05,62.900000000000006,0)" xlink:href="#aI"/><use transform="matrix(0.05,0,0,0.05,72.9,0)" xlink:href="#aW"/><use transform="matrix(0.05,0,0,0.05,81.9,0)" xlink:href="#aW"/><use transform="matrix(0.05,0,0,0.05,90.9,0)" xlink:href="#aA"/><use transform="matrix(0.05,0,0,0.05,100.9,0)" xlink:href="#aE"/><use transform="matrix(0.05,0,0,0.05,106.85000000000001,0)" xlink:href="#aI"/><use transform="matrix(0.05,0,0,0.05,116.85000000000001,0)" xlink:href="#bb"/><use transform="matrix(0.05,0,0,0.05,128.85000000000002,0)" xlink:href="#aM"/><use transform="matrix(0.05,0,0,0.05,133.85000000000002,0)" xlink:href="#aE"/><use transform="matrix(0.05,0,0,0.05,139.8,0)" xlink:href="#aH"/><use transform="matrix(0.05,0,0,0.05,143.75,0)" xlink:href="#aB"/><use transform="matrix(0.05,0,0,0.05,153.75,0)" xlink:href="#bh"/><use transform="matrix(0.05,0,0,0.05,163.75,0)" xlink:href="#bk"/><use transform="matrix(0.05,0,0,0.05,169.7,0)" xlink:href="#bb"/><use transform="matrix(0.05,0,0,0.05,181.7,0)" xlink:href="#aM"/><use transform="matrix(0.05,0,0,0.05,186.7,0)" xlink:href="#aE"/><use transform="matrix(0.05,0,0,0.05,192.64999999999998,0)" xlink:href="#aH"/><use transform="matrix(0.05,0,0,0.05,196.59999999999997,0)" xlink:href="#aB"/><use transform="matrix(0.05,0,0,0.05,206.59999999999997,0)" xlink:href="#bh"/></g><g id="am"><use transform="matrix(0.05,0,0,0.05,0,0)" xlink:href="#aW"/><use transform="matrix(0.05,0,0,0.05,9,0)" xlink:href="#aM"/><use transform="matrix(0.05,0,0,0.05,14,0)" xlink:href="#aE"/><use transform="matrix(0.05,0,0,0.05,19.95,0)" xlink:href="#bl"/></g><use transform="matrix(0.05,0,0,0.05,0,0)" xlink:href="#az" id="an"/><g id="ao"><use transform="matrix(0.05,0,0,0.05,0,0)" xlink:href="#ax"/><use transform="matrix(0.05,0,0,0.05,10.5,0)" xlink:href="#ax"/><use transform="matrix(0.05,0,0,0.05,21,0)" xlink:href="#ay"/><use transform="matrix(0.05,0,0,0.05,31,0)" xlink:href="#az"/><use transform="matrix(0.05,0,0,0.05,41,0)" xlink:href="#aA"/><use transform="matrix(0.05,0,0,0.05,51,0)" xlink:href="#aB"/><use transform="matrix(0.05,0,0,0.05,61,0)" xlink:href="#aC"/><use transform="matrix(0.05,0,0,0.05,71,0)" xlink:href="#aD"/><use transform="matrix(0.05,0,0,0.05,81,0)" xlink:href="#aE"/><use transform="matrix(0.05,0,0,0.05,86.95,0)" xlink:href="#aF"/><use transform="matrix(0.05,0,0,0.05,95.95,0)" xlink:href="#aG"/><use transform="matrix(0.05,0,0,0.05,106.45,0)" xlink:href="#aG"/></g><g id="ap"><use transform="matrix(0.05,0,0,0.05,0,0)" xlink:href="#bf"/><use transform="matrix(0.05,0,0,0.05,12,0)" xlink:href="#bm"/><use transform="matrix(0.05,0,0,0.05,24.950000000000003,0)" xlink:href="#aU"/><use transform="matrix(0.05,0,0,0.05,37.900000000000006,0)" xlink:href="#bb"/><use transform="matrix(0.05,0,0,0.05,49.900000000000006,0)" xlink:href="#aL"/><use transform="matrix(0.05,0,0,0.05,58.900000000000006,0)" xlink:href="#aD"/><use transform="matrix(0.05,0,0,0.05,68.9,0)" xlink:href="#aQ"/><use transform="matrix(0.05,0,0,0.05,78.9,0)" xlink:href="#aI"/></g><path d="M205 0l-28-72H64L36 0H1l101-248h38L239 0h-34zm-38-99l-47-123c-12 45-31 82-46 123h93" id="bE"/><g id="aq"><use transform="matrix(0.05,0,0,0.05,0,0)" xlink:href="#bE"/><use transform="matrix(0.05,0,0,0.05,12,0)" xlink:href="#aS"/><use transform="matrix(0.05,0,0,0.05,24,0)" xlink:href="#aN"/></g><g id="as"><use transform="matrix(0.05,0,0,0.05,0,0)" xlink:href="#bg"/><use transform="matrix(0.05,0,0,0.05,10,0)" xlink:href="#aM"/><use transform="matrix(0.05,0,0,0.05,15,0)" xlink:href="#aM"/><use transform="matrix(0.05,0,0,0.05,20,0)" xlink:href="#aQ"/><use transform="matrix(0.05,0,0,0.05,30,0)" xlink:href="#aW"/><use transform="matrix(0.05,0,0,0.05,39,0)" xlink:href="#aP"/><use transform="matrix(0.05,0,0,0.05,44,0)" xlink:href="#bu"/><use transform="matrix(0.05,0,0,0.05,49,0)" xlink:href="#bu"/><use transform="matrix(0.05,0,0,0.05,54,0)" xlink:href="#aE"/><use transform="matrix(0.05,0,0,0.05,59.95,0)" xlink:href="#aI"/><use transform="matrix(0.05,0,0,0.05,69.95,0)" xlink:href="#aW"/><use transform="matrix(0.05,0,0,0.05,78.95,0)" xlink:href="#aM"/><use transform="matrix(0.05,0,0,0.05,83.95,0)" xlink:href="#bv"/><use transform="matrix(0.05,0,0,0.05,88.95,0)" xlink:href="#aI"/><use transform="matrix(0.05,0,0,0.05,98.95,0)" xlink:href="#bg"/><use transform="matrix(0.05,0,0,0.05,108.95,0)" xlink:href="#aE"/><use transform="matrix(0.05,0,0,0.05,114.9,0)" xlink:href="#aW"/><use transform="matrix(0.05,0,0,0.05,123.9,0)" xlink:href="#aL"/><use transform="matrix(0.05,0,0,0.05,132.9,0)" xlink:href="#aD"/><use transform="matrix(0.05,0,0,0.05,142.9,0)" xlink:href="#aQ"/><use transform="matrix(0.05,0,0,0.05,152.9,0)" xlink:href="#aI"/><use transform="matrix(0.05,0,0,0.05,162.9,0)" xlink:href="#bv"/><use transform="matrix(0.05,0,0,0.05,167.9,0)" xlink:href="#aL"/><use transform="matrix(0.05,0,0,0.05,176.9,0)" xlink:href="#az"/><use transform="matrix(0.05,0,0,0.05,186.9,0)" xlink:href="#aO"/><use transform="matrix(0.05,0,0,0.05,201.85,0)" xlink:href="#bu"/><use transform="matrix(0.05,0,0,0.05,206.85000000000002,0)" xlink:href="#aE"/><use transform="matrix(0.05,0,0,0.05,212.79999999999995,0)" xlink:href="#aI"/><use transform="matrix(0.05,0,0,0.05,222.79999999999995,0)" xlink:href="#aW"/><use transform="matrix(0.05,0,0,0.05,231.79999999999995,0)" xlink:href="#aM"/><use transform="matrix(0.05,0,0,0.05,236.79999999999995,0)" xlink:href="#bu"/><use transform="matrix(0.05,0,0,0.05,241.79999999999995,0)" xlink:href="#aX"/><use transform="matrix(0.05,0,0,0.05,250.79999999999995,0)" xlink:href="#bw"/><use transform="matrix(0.05,0,0,0.05,260.79999999999995,0)" xlink:href="#bu"/><use transform="matrix(0.05,0,0,0.05,265.79999999999995,0)" xlink:href="#aX"/><use transform="matrix(0.05,0,0,0.05,274.79999999999995,0)" xlink:href="#aH"/><use transform="matrix(0.05,0,0,0.05,278.74999999999994,0)" xlink:href="#aI"/><use transform="matrix(0.05,0,0,0.05,288.74999999999994,0)" xlink:href="#by"/><use transform="matrix(0.05,0,0,0.05,301.69999999999993,0)" xlink:href="#bu"/></g><g id="at"><use transform="matrix(0.05,0,0,0.05,0,0)" xlink:href="#bg"/><use transform="matrix(0.05,0,0,0.05,10,0)" xlink:href="#aM"/><use transform="matrix(0.05,0,0,0.05,15,0)" xlink:href="#aM"/><use transform="matrix(0.05,0,0,0.05,20,0)" xlink:href="#aQ"/><use transform="matrix(0.05,0,0,0.05,30,0)" xlink:href="#aW"/><use transform="matrix(0.05,0,0,0.05,39,0)" xlink:href="#aP"/><use transform="matrix(0.05,0,0,0.05,44,0)" xlink:href="#bu"/><use transform="matrix(0.05,0,0,0.05,49,0)" xlink:href="#bu"/><use transform="matrix(0.05,0,0,0.05,54,0)" xlink:href="#aE"/><use transform="matrix(0.05,0,0,0.05,59.95,0)" xlink:href="#aI"/><use transform="matrix(0.05,0,0,0.05,69.95,0)" xlink:href="#aW"/><use transform="matrix(0.05,0,0,0.05,78.95,0)" xlink:href="#aM"/><use transform="matrix(0.05,0,0,0.05,83.95,0)" xlink:href="#bv"/><use transform="matrix(0.05,0,0,0.05,88.95,0)" xlink:href="#aI"/><use transform="matrix(0.05,0,0,0.05,98.95,0)" xlink:href="#bg"/><use transform="matrix(0.05,0,0,0.05,108.95,0)" xlink:href="#aE"/><use transform="matrix(0.05,0,0,0.05,114.9,0)" xlink:href="#aW"/><use transform="matrix(0.05,0,0,0.05,123.9,0)" xlink:href="#aL"/><use transform="matrix(0.05,0,0,0.05,132.9,0)" xlink:href="#aD"/><use transform="matrix(0.05,0,0,0.05,142.9,0)" xlink:href="#aQ"/><use transform="matrix(0.05,0,0,0.05,152.9,0)" xlink:href="#aI"/><use transform="matrix(0.05,0,0,0.05,162.9,0)" xlink:href="#bv"/><use transform="matrix(0.05,0,0,0.05,167.9,0)" xlink:href="#aL"/><use transform="matrix(0.05,0,0,0.05,176.9,0)" xlink:href="#az"/><use transform="matrix(0.05,0,0,0.05,186.9,0)" xlink:href="#aO"/><use transform="matrix(0.05,0,0,0.05,201.85,0)" xlink:href="#bu"/><use transform="matrix(0.05,0,0,0.05,206.85000000000002,0)" xlink:href="#aE"/><use transform="matrix(0.05,0,0,0.05,212.79999999999995,0)" xlink:href="#aI"/><use transform="matrix(0.05,0,0,0.05,222.79999999999995,0)" xlink:href="#aW"/><use transform="matrix(0.05,0,0,0.05,231.79999999999995,0)" xlink:href="#aM"/><use transform="matrix(0.05,0,0,0.05,236.79999999999995,0)" xlink:href="#bu"/><use transform="matrix(0.05,0,0,0.05,241.79999999999995,0)" xlink:href="#aX"/><use transform="matrix(0.05,0,0,0.05,250.79999999999995,0)" xlink:href="#bw"/><use transform="matrix(0.05,0,0,0.05,260.79999999999995,0)" xlink:href="#bu"/><use transform="matrix(0.05,0,0,0.05,265.79999999999995,0)" xlink:href="#aC"/><use transform="matrix(0.05,0,0,0.05,275.79999999999995,0)" xlink:href="#aI"/><use transform="matrix(0.05,0,0,0.05,285.79999999999995,0)" xlink:href="#aO"/><use transform="matrix(0.05,0,0,0.05,300.74999999999994,0)" xlink:href="#az"/><use transform="matrix(0.05,0,0,0.05,310.74999999999994,0)" xlink:href="#bh"/><use transform="matrix(0.05,0,0,0.05,320.74999999999994,0)" xlink:href="#aE"/><use transform="matrix(0.05,0,0,0.05,326.69999999999993,0)" xlink:href="#aD"/><use transform="matrix(0.05,0,0,0.05,336.69999999999993,0)" xlink:href="#aQ"/><use transform="matrix(0.05,0,0,0.05,346.69999999999993,0)" xlink:href="#bg"/><use transform="matrix(0.05,0,0,0.05,356.69999999999993,0)" xlink:href="#aH"/><use transform="matrix(0.05,0,0,0.05,360.6499999999999,0)" xlink:href="#aL"/><use transform="matrix(0.05,0,0,0.05,369.6499999999999,0)" xlink:href="#aW"/><use transform="matrix(0.05,0,0,0.05,378.6499999999999,0)" xlink:href="#bu"/><use transform="matrix(0.05,0,0,0.05,383.6499999999999,0)" xlink:href="#aI"/><use transform="matrix(0.05,0,0,0.05,393.6499999999999,0)" xlink:href="#bg"/><use transform="matrix(0.05,0,0,0.05,403.6499999999999,0)" xlink:href="#aE"/><use transform="matrix(0.05,0,0,0.05,409.5999999999999,0)" xlink:href="#bu"/></g><g id="au"><use transform="matrix(0.05,0,0,0.05,0,0)" xlink:href="#bg"/><use transform="matrix(0.05,0,0,0.05,10,0)" xlink:href="#aM"/><use transform="matrix(0.05,0,0,0.05,15,0)" xlink:href="#aM"/><use transform="matrix(0.05,0,0,0.05,20,0)" xlink:href="#aQ"/><use transform="matrix(0.05,0,0,0.05,30,0)" xlink:href="#aW"/><use transform="matrix(0.05,0,0,0.05,39,0)" xlink:href="#aP"/><use transform="matrix(0.05,0,0,0.05,44,0)" xlink:href="#bu"/><use transform="matrix(0.05,0,0,0.05,49,0)" xlink:href="#bu"/><use transform="matrix(0.05,0,0,0.05,54,0)" xlink:href="#aE"/><use transform="matrix(0.05,0,0,0.05,59.95,0)" xlink:href="#aI"/><use transform="matrix(0.05,0,0,0.05,69.95,0)" xlink:href="#aW"/><use transform="matrix(0.05,0,0,0.05,78.95,0)" xlink:href="#aM"/><use transform="matrix(0.05,0,0,0.05,83.95,0)" xlink:href="#bv"/><use transform="matrix(0.05,0,0,0.05,88.95,0)" xlink:href="#aI"/><use transform="matrix(0.05,0,0,0.05,98.95,0)" xlink:href="#bg"/><use transform="matrix(0.05,0,0,0.05,108.95,0)" xlink:href="#aE"/><use transform="matrix(0.05,0,0,0.05,114.9,0)" xlink:href="#aW"/><use transform="matrix(0.05,0,0,0.05,123.9,0)" xlink:href="#aL"/><use transform="matrix(0.05,0,0,0.05,132.9,0)" xlink:href="#aD"/><use transform="matrix(0.05,0,0,0.05,142.9,0)" xlink:href="#aQ"/><use transform="matrix(0.05,0,0,0.05,152.9,0)" xlink:href="#aI"/><use transform="matrix(0.05,0,0,0.05,162.9,0)" xlink:href="#bv"/><use transform="matrix(0.05,0,0,0.05,167.9,0)" xlink:href="#aL"/><use transform="matrix(0.05,0,0,0.05,176.9,0)" xlink:href="#az"/><use transform="matrix(0.05,0,0,0.05,186.9,0)" xlink:href="#aO"/><use transform="matrix(0.05,0,0,0.05,201.85,0)" xlink:href="#bu"/><use transform="matrix(0.05,0,0,0.05,206.85000000000002,0)" xlink:href="#aE"/><use transform="matrix(0.05,0,0,0.05,212.79999999999995,0)" xlink:href="#aI"/><use transform="matrix(0.05,0,0,0.05,222.79999999999995,0)" xlink:href="#aW"/><use transform="matrix(0.05,0,0,0.05,231.79999999999995,0)" xlink:href="#aM"/><use transform="matrix(0.05,0,0,0.05,236.79999999999995,0)" xlink:href="#bu"/><use transform="matrix(0.05,0,0,0.05,241.79999999999995,0)" xlink:href="#aX"/><use transform="matrix(0.05,0,0,0.05,250.79999999999995,0)" xlink:href="#bw"/><use transform="matrix(0.05,0,0,0.05,260.79999999999995,0)" xlink:href="#bu"/><use transform="matrix(0.05,0,0,0.05,265.79999999999995,0)" xlink:href="#aL"/><use transform="matrix(0.05,0,0,0.05,274.79999999999995,0)" xlink:href="#az"/><use transform="matrix(0.05,0,0,0.05,284.79999999999995,0)" xlink:href="#aO"/><use transform="matrix(0.05,0,0,0.05,299.74999999999994,0)" xlink:href="#aQ"/><use transform="matrix(0.05,0,0,0.05,309.74999999999994,0)" xlink:href="#az"/><use transform="matrix(0.05,0,0,0.05,319.74999999999994,0)" xlink:href="#aW"/><use transform="matrix(0.05,0,0,0.05,328.74999999999994,0)" xlink:href="#aH"/><use transform="matrix(0.05,0,0,0.05,332.69999999999993,0)" xlink:href="#aM"/><use transform="matrix(0.05,0,0,0.05,337.69999999999993,0)" xlink:href="#aH"/><use transform="matrix(0.05,0,0,0.05,341.6499999999999,0)" xlink:href="#az"/><use transform="matrix(0.05,0,0,0.05,351.6499999999999,0)" xlink:href="#aB"/><use transform="matrix(0.05,0,0,0.05,361.6499999999999,0)" xlink:href="#bu"/></g><path d="M266 0h-40l-56-210L115 0H75L2-248h35L96-30l15-64 43-154h32l59 218 59-218h35" id="bF"/><g id="av"><use transform="matrix(0.05,0,0,0.05,0,0)" xlink:href="#bF"/><use transform="matrix(0.05,0,0,0.05,16.95,0)" xlink:href="#bm"/><use transform="matrix(0.05,0,0,0.05,29.899999999999995,0)" xlink:href="#bB"/></g><path d="M160-131c35 5 61 23 61 61C221 17 115-2 30 0v-248c76 3 177-17 177 60 0 33-19 50-47 57zm-97-11c50-1 110 9 110-42 0-47-63-36-110-37v79zm0 115c55-2 124 14 124-45 0-56-70-42-124-44v89" id="bG"/><path d="M101-251c68 0 85 55 85 127S166 4 100 4C33 4 14-52 14-124c0-73 17-127 87-127zm-1 229c47 0 54-49 54-102s-4-102-53-102c-51 0-55 48-55 102 0 53 5 102 54 102" id="bH"/><path d="M110-160c48 1 74 30 74 79 0 53-28 85-80 85-65 0-83-55-86-122-5-90 50-162 133-122 14 7 22 21 27 39l-31 6c-5-40-67-38-82-6-9 19-15 44-15 74 11-20 30-34 60-33zm-7 138c34 0 49-23 49-58s-16-56-50-56c-29 0-50 16-49 49 1 36 15 65 50 65" id="bI"/><g id="aw"><use transform="matrix(0.05,0,0,0.05,0,0)" xlink:href="#bg"/><use transform="matrix(0.05,0,0,0.05,10,0)" xlink:href="#aM"/><use transform="matrix(0.05,0,0,0.05,15,0)" xlink:href="#aM"/><use transform="matrix(0.05,0,0,0.05,20,0)" xlink:href="#aQ"/><use transform="matrix(0.05,0,0,0.05,30,0)" xlink:href="#aP"/><use transform="matrix(0.05,0,0,0.05,35,0)" xlink:href="#bu"/><use transform="matrix(0.05,0,0,0.05,40,0)" xlink:href="#bu"/><use transform="matrix(0.05,0,0,0.05,45,0)" xlink:href="#aD"/><use transform="matrix(0.05,0,0,0.05,55,0)" xlink:href="#aQ"/><use transform="matrix(0.05,0,0,0.05,65,0)" xlink:href="#aQ"/><use transform="matrix(0.05,0,0,0.05,75,0)" xlink:href="#aW"/><use transform="matrix(0.05,0,0,0.05,84,0)" xlink:href="#bv"/><use transform="matrix(0.05,0,0,0.05,89,0)" xlink:href="#by"/><use transform="matrix(0.05,0,0,0.05,101.95,0)" xlink:href="#bg"/><use transform="matrix(0.05,0,0,0.05,111.95,0)" xlink:href="#az"/><use transform="matrix(0.05,0,0,0.05,121.95,0)" xlink:href="#bv"/><use transform="matrix(0.05,0,0,0.05,126.95,0)" xlink:href="#aH"/><use transform="matrix(0.05,0,0,0.05,130.9,0)" xlink:href="#aB"/><use transform="matrix(0.05,0,0,0.05,140.9,0)" xlink:href="#aM"/><use transform="matrix(0.05,0,0,0.05,145.9,0)" xlink:href="#bu"/><use transform="matrix(0.05,0,0,0.05,150.9,0)" xlink:href="#bh"/><use transform="matrix(0.05,0,0,0.05,160.9,0)" xlink:href="#bg"/><use transform="matrix(0.05,0,0,0.05,170.9,0)" xlink:href="#az"/><use transform="matrix(0.05,0,0,0.05,180.9,0)" xlink:href="#bu"/><use transform="matrix(0.05,0,0,0.05,185.9,0)" xlink:href="#aD"/><use transform="matrix(0.05,0,0,0.05,195.9,0)" xlink:href="#aM"/><use transform="matrix(0.05,0,0,0.05,200.9,0)" xlink:href="#bg"/><use transform="matrix(0.05,0,0,0.05,210.9,0)" xlink:href="#aI"/><use transform="matrix(0.05,0,0,0.05,220.9,0)" xlink:href="#aB"/><use transform="matrix(0.05,0,0,0.05,230.9,0)" xlink:href="#aD"/><use transform="matrix(0.05,0,0,0.05,240.9,0)" xlink:href="#bu"/><use transform="matrix(0.05,0,0,0.05,245.9,0)" xlink:href="#aC"/><use transform="matrix(0.05,0,0,0.05,255.9,0)" xlink:href="#aD"/><use transform="matrix(0.05,0,0,0.05,265.9,0)" xlink:href="#aM"/><use transform="matrix(0.05,0,0,0.05,270.9,0)" xlink:href="#aD"/><use transform="matrix(0.05,0,0,0.05,280.9,0)" xlink:href="#bu"/><use transform="matrix(0.05,0,0,0.05,285.9,0)" xlink:href="#bp"/><use transform="matrix(0.05,0,0,0.05,299.9,0)" xlink:href="#bm"/><use transform="matrix(0.05,0,0,0.05,312.84999999999997,0)" xlink:href="#bB"/><use transform="matrix(0.05,0,0,0.05,326.84999999999997,0)" xlink:href="#bu"/><use transform="matrix(0.05,0,0,0.05,331.84999999999997,0)" xlink:href="#bG"/><use transform="matrix(0.05,0,0,0.05,343.84999999999997,0)" xlink:href="#aS"/><use transform="matrix(0.05,0,0,0.05,355.84999999999997,0)" xlink:href="#aR"/><use transform="matrix(0.05,0,0,0.05,365.84999999999997,0)" xlink:href="#bH"/><use transform="matrix(0.05,0,0,0.05,375.84999999999997,0)" xlink:href="#bI"/><use transform="matrix(0.05,0,0,0.05,385.84999999999997,0)" xlink:href="#bv"/><use transform="matrix(0.05,0,0,0.05,390.84999999999997,0)" xlink:href="#aV"/><use transform="matrix(0.05,0,0,0.05,394.79999999999995,0)" xlink:href="#aW"/><use transform="matrix(0.05,0,0,0.05,403.79999999999995,0)" xlink:href="#az"/><use transform="matrix(0.05,0,0,0.05,413.79999999999995,0)" xlink:href="#aB"/></g></defs></g></svg>