<svg xmlns="http://www.w3.org/2000/svg" xmlns:xlink="http://www.w3.org/1999/xlink" width="2480" height="1548"><g transform="translate(-20 -12)"><path d="M40 37c0-2.76 2.24-5 5-5h2430c2.76 0 5 2.24 5 5v1498c0 2.76-2.24 5-5 5H45c-2.76 0-5-2.24-5-5z" stroke="#666" stroke-width="2" fill="none"/><path d="M40 37c0-2.76 2.24-5 5-5h410c2.76 0 5 2.24 5 5v78c0 2.76-2.24 5-5 5H45c-2.76 0-5-2.24-5-5z" stroke="#666" stroke-width="2" fill="#fff"/><use xlink:href="#a" transform="matrix(1,0,0,1,40,32) translate(20.943271604938282 50.611111111111114)"/><use xlink:href="#b" transform="matrix(1,0,0,1,40,32) translate(109.0543827160494 50.611111111111114)"/><use xlink:href="#c" transform="matrix(1,0,0,1,40,32) translate(211.5296913580247 50.611111111111114)"/><use xlink:href="#d" transform="matrix(1,0,0,1,40,32) translate(235.60376543209878 50.611111111111114)"/><use xlink:href="#e" transform="matrix(1,0,0,1,40,32) translate(338.1593209876543 50.611111111111114)"/><path d="M280 185c0-2.76 2.24-5 5-5h150c2.76 0 5 2.24 5 5v50c0 2.76-2.24 5-5 5H285c-2.76 0-5-2.24-5-5z" stroke="#666" stroke-width="2" fill="#fff"/><use xlink:href="#f" transform="matrix(1,0,0,1,280,180) translate(44.486481481481476 36.333333333333336)"/><path d="M340 305c0-2.76 2.24-5 5-5h30c2.76 0 5 2.24 5 5v1150c0 2.76-2.24 5-5 5h-30c-2.76 0-5-2.24-5-5z" stroke="#666" stroke-width="2" fill="#fff"/><path d="M360 240v59" fill="none"/><path d="M360 240v9.83m0 9.84v19.66m0 9.84V299" stroke="#999" stroke-width="2" fill="none"/><path d="M360 385c0-2.76 2.24-5 5-5h30c2.76 0 5 2.24 5 5v110c0 2.76-2.24 5-5 5h-30c-2.76 0-5-2.24-5-5z" stroke="#666" stroke-width="2" fill="#fff"/><path d="M380 380v-35c0-2.76 2.24-5 5-5h51c2.76 0 5 2.24 5 5v83.85c0 2.77-2.24 5-5 5h-35" stroke="#999" stroke-width="2" fill="none"/><path d="M415.27 438.5L401 433.84l14.27-4.63z" fill="#999"/><path d="M416.27 439.87l-16.27-5.3v-1.44l16.27-5.3zm-12.03-6.02l10.03 3.26v-6.5z" fill="#999"/><use xlink:href="#g" transform="matrix(1,0,0,1,446.8010511813911,324.77305672173907) translate(0.0049999999999954525 19.555555555555557)"/><use xlink:href="#h" transform="matrix(1,0,0,1,446.8010511813911,324.77305672173907) translate(20.375370370370366 19.555555555555557)"/><use xlink:href="#i" transform="matrix(1,0,0,1,446.8010511813911,324.77305672173907) translate(86.78277777777777 19.555555555555557)"/><use xlink:href="#j" transform="matrix(1,0,0,1,446.8010511813911,324.77305672173907) translate(214.3012962962963 19.555555555555557)"/><use xlink:href="#k" transform="matrix(1,0,0,1,446.8010511813911,324.77305672173907) translate(238.67783950617283 19.555555555555557)"/><path d="M820 185c0-2.76 2.24-5 5-5h150c2.76 0 5 2.24 5 5v50c0 2.76-2.24 5-5 5H825c-2.76 0-5-2.24-5-5z" stroke="#666" stroke-width="2" fill="#fff"/><use xlink:href="#l" transform="matrix(1,0,0,1,820,180) translate(47.4124074074074 36.333333333333336)"/><path d="M880 445c0-2.76 2.24-5 5-5h30c2.76 0 5 2.24 5 5v950c0 2.76-2.24 5-5 5h-30c-2.76 0-5-2.24-5-5z" stroke="#666" stroke-width="2" fill="#fff"/><path d="M900 240v199" fill="none"/><path d="M900 240v9.48m0 9.47v18.95m0 9.48v18.95m0 9.48v18.96m0 9.48v18.95m0 9.47v18.95m0 9.48v18.95m0 9.47V439M401 469h479" stroke="#999" stroke-width="2" fill="none"/><path d="M401 470h-1v-2h1zM880 469l-14.27 4.64v-9.27z" fill="#999"/><path d="M880 467.95v2.1L864.73 475v-12zm-13.27 4.3l10.03-3.25-10.03-3.26z" fill="#999"/><use xlink:href="#m" transform="matrix(1,0,0,1,538.3703703703704,438.3355931960561) translate(0.0049999999999954525 17.77777777777778)"/><path d="M900 525c0-2.76 2.24-5 5-5h30c2.76 0 5 2.24 5 5v830c0 2.76-2.24 5-5 5h-30c-2.76 0-5-2.24-5-5z" stroke="#666" stroke-width="2" fill="#fff"/><path d="M920 520v-35c0-2.76 2.24-5 5-5h50c2.76 0 5 2.24 5 5v86.64c0 2.76-2.24 5-5 5h-35" stroke="#999" stroke-width="2" fill="none"/><path d="M954.27 581.28L940 576.64l14.27-4.63z" fill="#999"/><path d="M955.27 582.65L940 577.7v-2.1l15.27-4.97zm-12.03-6l10.03 3.25v-6.52z" fill="#999"/><use xlink:href="#n" transform="matrix(1,0,0,1,951.6469110136829,454.1706328586338) translate(0.0049999999999954525 17.77777777777778)"/><path d="M940 607.33h35c2.76 0 5 2.24 5 5V677c0 2.76-2.24 5-5 5h-35" stroke="#999" stroke-width="2" fill="none"/><path d="M954.27 686.64L940 682l14.27-4.64z" fill="#999"/><path d="M955.27 688L940 683.06v-2.1l15.27-4.96zm-12.03-6l10.03 3.26v-6.52z" fill="#999"/><use xlink:href="#o" transform="matrix(1,0,0,1,988.0000000000001,633.8666666666672) translate(0.0049999999999954525 14.4)"/><use xlink:href="#p" transform="matrix(1,0,0,1,988.0000000000001,633.8666666666672) translate(80.955 14.4)"/><use xlink:href="#q" transform="matrix(1,0,0,1,988.0000000000001,633.8666666666672) translate(101.455 14.4)"/><path d="M1360 185c0-2.76 2.24-5 5-5h190c2.76 0 5 2.24 5 5v50c0 2.76-2.24 5-5 5h-190c-2.76 0-5-2.24-5-5z" stroke="#666" stroke-width="2" fill="#fff"/><use xlink:href="#r" transform="matrix(1,0,0,1,1360,180) translate(10.523518518518523 36.333333333333336)"/><path d="M1440 705c0-2.76 2.24-5 5-5h30c2.76 0 5 2.24 5 5v70c0 2.76-2.24 5-5 5h-30c-2.76 0-5-2.24-5-5z" stroke="#666" stroke-width="2" fill="#fff"/><path d="M960 735.33h480" stroke="#999" stroke-width="2" fill="none"/><path d="M1440 735.33l-14.27 4.64v-9.27z" fill="#999"/><path d="M1440 734.28v2.1l-15.27 4.97v-12.03zm-13.27 4.3l10.03-3.25-10.03-3.26z" fill="#999"/><use xlink:href="#s" transform="matrix(1,0,0,1,984,709.733333333334) translate(0.0049999999999954525 14.4)"/><use xlink:href="#p" transform="matrix(1,0,0,1,984,709.733333333334) translate(88.955 14.4)"/><use xlink:href="#t" transform="matrix(1,0,0,1,984,709.733333333334) translate(109.455 14.4)"/><path d="M1460 240v459" fill="none"/><path d="M1460 240v10.2m0 10.2v20.4m0 10.2v20.4m0 10.2V342m0 10.2v20.4m0 10.2v20.4m0 10.2v20.4m0 10.2v20.4m0 10.2V495m0 10.2v20.4m0 10.2v20.4m0 10.2v20.4m0 10.2v20.4m0 10.2V648m0 10.2v20.4m0 10.2V699M1440 762.95H961" stroke="#999" stroke-width="2" fill="none"/><path d="M975.27 767.6L961 762.94l14.27-4.63z" fill="#999"/><path d="M976.27 768.96L960 763.68v-1.46l16.27-5.28zm-12.03-6l10.03 3.25v-6.5z" fill="#999"/><use xlink:href="#u" transform="matrix(1,0,0,1,1078.125,766.9512686172968) translate(0.0049999999999954525 14.4)"/><use xlink:href="#v" transform="matrix(1,0,0,1,1078.125,766.9512686172968) translate(15.004999999999995 14.4)"/><use xlink:href="#w" transform="matrix(1,0,0,1,1078.125,766.9512686172968) translate(77.955 14.4)"/><use xlink:href="#x" transform="matrix(1,0,0,1,1078.125,766.9512686172968) translate(92.955 14.4)"/><use xlink:href="#y" transform="matrix(1,0,0,1,1078.125,766.9512686172968) translate(155.85500000000002 14.4)"/><path d="M920 725c0-2.76 2.24-5 5-5h30c2.76 0 5 2.24 5 5v590c0 2.76-2.24 5-5 5h-30c-2.76 0-5-2.24-5-5zM1840 185c0-2.76 2.24-5 5-5h190c2.76 0 5 2.24 5 5v50c0 2.76-2.24 5-5 5h-190c-2.76 0-5-2.24-5-5z" stroke="#666" stroke-width="2" fill="#fff"/><use xlink:href="#z" transform="matrix(1,0,0,1,1840,180) translate(63.78277777777777 36.333333333333336)"/><path d="M1920 1005c0-2.76 2.24-5 5-5h30c2.76 0 5 2.24 5 5v130c0 2.76-2.24 5-5 5h-30c-2.76 0-5-2.24-5-5z" stroke="#666" stroke-width="2" fill="#fff"/><path d="M1940 240v759" fill="none"/><path d="M1940 240v10.12m0 10.12v20.24m0 10.12v20.24m0 10.12v20.24m0 10.12v20.24m0 10.12v20.24m0 10.12v20.24m0 10.12v20.24m0 10.12V493m0 10.12v20.24m0 10.12v20.24m0 10.12v20.24m0 10.12v20.24m0 10.12v20.24m0 10.12v20.24m0 10.12v20.24m0 10.12v20.24m0 10.12v20.24m0 10.12v20.24m0 10.12v20.24m0 10.12v20.24m0 10.12v20.24m0 10.12v20.24m0 10.12v20.24m0 10.12v20.24m0 10.12V999" stroke="#999" stroke-width="2" fill="none"/><path d="M1941 1000h-2v-1h2z" fill="#999"/><path d="M1000 1055h920" stroke="#999" stroke-width="2" fill="none"/><path d="M1920 1055l-14.27 4.63v-9.27z" fill="#999"/><path d="M1920 1053.95v2.1l-15.27 4.96v-12zm-13.27 4.3l10.03-3.25-10.03-3.26z" fill="#999"/><use xlink:href="#u" transform="matrix(1,0,0,1,1207.775,1029.3996800213313) translate(0.0049999999999954525 14.4)"/><use xlink:href="#A" transform="matrix(1,0,0,1,1207.775,1029.3996800213313) translate(15.004999999999995 14.4)"/><use xlink:href="#B" transform="matrix(1,0,0,1,1207.775,1029.3996800213313) translate(73.85499999999999 14.4)"/><use xlink:href="#w" transform="matrix(1,0,0,1,1207.775,1029.3996800213313) translate(142.855 14.4)"/><use xlink:href="#C" transform="matrix(1,0,0,1,1207.775,1029.3996800213313) translate(157.855 14.4)"/><use xlink:href="#D" transform="matrix(1,0,0,1,1207.775,1029.3996800213313) translate(263.705 14.4)"/><use xlink:href="#E" transform="matrix(1,0,0,1,1207.775,1029.3996800213313) translate(323.655 14.4)"/><use xlink:href="#F" transform="matrix(1,0,0,1,1207.775,1029.3996800213313) translate(392.60499999999996 14.4)"/><use xlink:href="#G" transform="matrix(1,0,0,1,1207.775,1029.3996800213313) translate(435.55499999999995 14.4)"/><use xlink:href="#H" transform="matrix(1,0,0,1,1207.775,1029.3996800213313) translate(460.55499999999995 14.4)"/><path d="M1920 1107h-459.96c-.02 0-.04.02-.04.04s-.02.04-.04.04H1000" stroke="#999" stroke-width="2" fill="none"/><path d="M1014.27 1111.7l-14.27-4.62 14.27-4.64z" fill="#999"/><path d="M1015.27 1113.1l-15.27-4.97v-2.1l15.27-4.96zm-12.03-6.02l10.03 3.26v-6.52z" fill="#999"/><use xlink:href="#u" transform="matrix(1,0,0,1,1330.1008577242364,1111.0769138946662) translate(0.0049999999999954525 14.4)"/><use xlink:href="#v" transform="matrix(1,0,0,1,1330.1008577242364,1111.0769138946662) translate(15.004999999999995 14.4)"/><use xlink:href="#w" transform="matrix(1,0,0,1,1330.1008577242364,1111.0769138946662) translate(77.955 14.4)"/><use xlink:href="#D" transform="matrix(1,0,0,1,1330.1008577242364,1111.0769138946662) translate(92.955 14.4)"/><use xlink:href="#E" transform="matrix(1,0,0,1,1330.1008577242364,1111.0769138946662) translate(152.905 14.4)"/><use xlink:href="#I" transform="matrix(1,0,0,1,1330.1008577242364,1111.0769138946662) translate(221.85500000000002 14.4)"/><path d="M940 865c0-2.76 2.24-5 5-5h30c2.76 0 5 2.24 5 5v410c0 2.76-2.24 5-5 5h-30c-2.76 0-5-2.24-5-5zM2180 185c0-2.76 2.24-5 5-5h190c2.76 0 5 2.24 5 5v50c0 2.76-2.24 5-5 5h-190c-2.76 0-5-2.24-5-5z" stroke="#666" stroke-width="2" fill="#fff"/><g><use xlink:href="#J" transform="matrix(1,0,0,1,2180,180) translate(67.74574074074074 36.333333333333336)"/></g><path d="M2260 825c0-2.76 2.24-5 5-5h30c2.76 0 5 2.24 5 5v130c0 2.76-2.24 5-5 5h-30c-2.76 0-5-2.24-5-5z" stroke="#666" stroke-width="2" fill="#fff"/><path d="M2280 240v579" fill="none"/><path d="M2280 240v10.16m0 10.16v20.3m0 10.17v20.3m0 10.16v20.32m0 10.16v20.3m0 10.17v20.33m0 10.15V433m0 10.16v20.3m0 10.17v20.32m0 10.16v20.32m0 10.16v20.3m0 10.17v20.32m0 10.16v20.3m0 10.17v20.32m0 10.15v20.32m0 10.15v20.3m0 10.17v20.32m0 10.15v20.3m0 10.17v20.3m0 10.17V819M980 873h1280" stroke="#999" stroke-width="2" fill="none"/><path d="M2260 873l-14.27 4.63v-9.27z" fill="#999"/><path d="M2260 871.95v2.1l-15.27 4.96v-12zm-13.27 4.3l10.03-3.25-10.03-3.26z" fill="#999"/><g><use xlink:href="#u" transform="matrix(1,0,0,1,1448.224999501631,847.39962225932) translate(0.0049999999999954525 14.4)"/><use xlink:href="#A" transform="matrix(1,0,0,1,1448.224999501631,847.39962225932) translate(15.004999999999995 14.4)"/><use xlink:href="#B" transform="matrix(1,0,0,1,1448.224999501631,847.39962225932) translate(73.85499999999999 14.4)"/><use xlink:href="#w" transform="matrix(1,0,0,1,1448.224999501631,847.39962225932) translate(142.855 14.4)"/><use xlink:href="#K" transform="matrix(1,0,0,1,1448.224999501631,847.39962225932) translate(157.855 14.4)"/><use xlink:href="#L" transform="matrix(1,0,0,1,1448.224999501631,847.39962225932) translate(274.705 14.4)"/></g><path d="M2260 925H980" stroke="#999" stroke-width="2" fill="none"/><path d="M994.27 929.63L980 925l14.27-4.64z" fill="#999"/><path d="M995.27 931L980 926.06v-2.1l15.27-4.96zm-12.03-6l10.03 3.26v-6.52z" fill="#999"/><g><use xlink:href="#u" transform="matrix(1,0,0,1,1480.6750006078817,928.9996617115411) translate(0.0049999999999954525 14.4)"/><use xlink:href="#v" transform="matrix(1,0,0,1,1480.6750006078817,928.9996617115411) translate(15.004999999999995 14.4)"/><use xlink:href="#w" transform="matrix(1,0,0,1,1480.6750006078817,928.9996617115411) translate(77.955 14.4)"/><use xlink:href="#K" transform="matrix(1,0,0,1,1480.6750006078817,928.9996617115411) translate(92.955 14.4)"/><use xlink:href="#L" transform="matrix(1,0,0,1,1480.6750006078817,928.9996617115411) translate(209.805 14.4)"/></g><path d="M960 985c0-2.76 2.24-5 5-5h30c2.76 0 5 2.24 5 5v250c0 2.76-2.24 5-5 5h-30c-2.76 0-5-2.24-5-5z" stroke="#666" stroke-width="2" fill="#fff"/><path d="M1001 1151.4h35c2.76 0 5 2.25 5 5v56.77c0 2.76-2.24 5-5 5h-35" stroke="#999" stroke-width="2" fill="none"/><path d="M1001 1152.4h-1v-2h1zM1015.27 1222.8l-14.27-4.63 14.27-4.63z" fill="#999"/><path d="M1016.27 1224.18l-16.27-5.28v-1.45l16.27-5.3zm-12.03-6l10.03 3.25v-6.52z" fill="#999"/><g><use xlink:href="#u" transform="matrix(1,0,0,1,1049,1173.9898777573296) translate(0.0049999999999954525 14.4)"/><use xlink:href="#M" transform="matrix(1,0,0,1,1049,1173.9898777573296) translate(15.004999999999995 14.4)"/><use xlink:href="#N" transform="matrix(1,0,0,1,1049,1173.9898777573296) translate(88.705 14.4)"/><use xlink:href="#O" transform="matrix(1,0,0,1,1049,1173.9898777573296) translate(201.60500000000002 14.4)"/><use xlink:href="#P" transform="matrix(1,0,0,1,1049,1173.9898777573296) translate(265.45500000000004 14.4)"/><use xlink:href="#Q" transform="matrix(1,0,0,1,1049,1173.9898777573296) translate(279.45500000000004 14.4)"/><use xlink:href="#R" transform="matrix(1,0,0,1,1049,1173.9898777573296) translate(377.30500000000006 14.4)"/><use xlink:href="#S" transform="matrix(1,0,0,1,1049,1173.9898777573296) translate(396.25500000000005 14.4)"/><use xlink:href="#T" transform="matrix(1,0,0,1,1049,1173.9898777573296) translate(419.15500000000003 14.4)"/></g><path d="M961 789.66h35c2.76 0 5 2.24 5 5v44.62c0 2.77-2.24 5-5 5h-35" stroke="#999" stroke-width="2" fill="none"/><path d="M961 790.66h-1v-2h1zM975.27 848.92L961 844.28l14.27-4.63z" fill="#999"/><path d="M976.27 850.3L960 845v-1.44l16.27-5.3zm-12.03-6.02l10.03 3.26v-6.5z" fill="#999"/><g><use xlink:href="#u" transform="matrix(1,0,0,1,1009.0000000000001,806.1708890683227) translate(0.0049999999999954525 14.4)"/><use xlink:href="#U" transform="matrix(1,0,0,1,1009.0000000000001,806.1708890683227) translate(15.004999999999995 14.4)"/><use xlink:href="#V" transform="matrix(1,0,0,1,1009.0000000000001,806.1708890683227) translate(59.855 14.4)"/><use xlink:href="#W" transform="matrix(1,0,0,1,1009.0000000000001,806.1708890683227) translate(141.705 14.4)"/><use xlink:href="#X" transform="matrix(1,0,0,1,1009.0000000000001,806.1708890683227) translate(165.705 14.4)"/><use xlink:href="#Y" transform="matrix(1,0,0,1,1009.0000000000001,806.1708890683227) translate(184.655 14.4)"/><use xlink:href="#Z" transform="matrix(1,0,0,1,1009.0000000000001,806.1708890683227) translate(268.555 14.4)"/><use xlink:href="#G" transform="matrix(1,0,0,1,1009.0000000000001,806.1708890683227) translate(319.355 14.4)"/><use xlink:href="#aa" transform="matrix(1,0,0,1,1009.0000000000001,806.1708890683227) translate(344.355 14.4)"/><use xlink:href="#ab" transform="matrix(1,0,0,1,1009.0000000000001,806.1708890683227) translate(369.355 14.4)"/></g><defs><path fill="#333" d="M30-248c87 1 191-15 191 75 0 78-77 80-158 76V0H30v-248zm33 125c57 0 124 11 124-50 0-59-68-47-124-48v98" id="ac"/><path fill="#333" d="M114-163C36-179 61-72 57 0H25l-1-190h30c1 12-1 29 2 39 6-27 23-49 58-41v29" id="ad"/><path fill="#333" d="M24-231v-30h32v30H24zM24 0v-190h32V0H24" id="ae"/><path fill="#333" d="M143 0L79-87 56-68V0H24v-261h32v163l83-92h37l-77 82L181 0h-38" id="af"/><path fill="#333" d="M141-36C126-15 110 5 73 4 37 3 15-17 15-53c-1-64 63-63 125-63 3-35-9-54-41-54-24 1-41 7-42 31l-33-3c5-37 33-52 76-52 45 0 72 20 72 64v82c-1 20 7 32 28 27v20c-31 9-61-2-59-35zM48-53c0 20 12 33 32 33 41-3 63-29 60-74-43 2-92-5-92 41" id="ag"/><path fill="#333" d="M9 0v-24l116-142H16v-24h144v24L44-24h123V0H9" id="ah"/><g id="a"><use transform="matrix(0.08024691358024691,0,0,0.08024691358024691,0,0)" xlink:href="#ac"/><use transform="matrix(0.08024691358024691,0,0,0.08024691358024691,19.25925925925926,0)" xlink:href="#ad"/><use transform="matrix(0.08024691358024691,0,0,0.08024691358024691,28.80864197530864,0)" xlink:href="#ae"/><use transform="matrix(0.08024691358024691,0,0,0.08024691358024691,35.148148148148145,0)" xlink:href="#af"/><use transform="matrix(0.08024691358024691,0,0,0.08024691358024691,49.59259259259259,0)" xlink:href="#ag"/><use transform="matrix(0.08024691358024691,0,0,0.08024691358024691,65.64197530864197,0)" xlink:href="#ah"/></g><path fill="#333" d="M210-169c-67 3-38 105-44 169h-31v-121c0-29-5-50-35-48C34-165 62-65 56 0H25l-1-190h30c1 10-1 24 2 32 10-44 99-50 107 0 11-21 27-35 58-36 85-2 47 119 55 194h-31v-121c0-29-5-49-35-48" id="ai"/><path fill="#333" d="M100-194c63 0 86 42 84 106H49c0 40 14 67 53 68 26 1 43-12 49-29l28 8c-11 28-37 45-77 45C44 4 14-33 15-96c1-61 26-98 85-98zm52 81c6-60-76-77-97-28-3 7-6 17-6 28h103" id="aj"/><path fill="#333" d="M59-47c-2 24 18 29 38 22v24C64 9 27 4 27-40v-127H5v-23h24l9-43h21v43h35v23H59v120" id="ak"/><path fill="#333" d="M108 0H70L1-190h34L89-25l56-165h34" id="al"/><g id="b"><use transform="matrix(0.08024691358024691,0,0,0.08024691358024691,0,0)" xlink:href="#ai"/><use transform="matrix(0.08024691358024691,0,0,0.08024691358024691,23.993827160493826,0)" xlink:href="#aj"/><use transform="matrix(0.08024691358024691,0,0,0.08024691358024691,40.04320987654321,0)" xlink:href="#ad"/><use transform="matrix(0.08024691358024691,0,0,0.08024691358024691,49.5925925925926,0)" xlink:href="#ae"/><use transform="matrix(0.08024691358024691,0,0,0.08024691358024691,55.9320987654321,0)" xlink:href="#ak"/><use transform="matrix(0.08024691358024691,0,0,0.08024691358024691,63.9567901234568,0)" xlink:href="#aj"/><use transform="matrix(0.08024691358024691,0,0,0.08024691358024691,80.00617283950618,0)" xlink:href="#al"/></g><path fill="#333" d="M100-194c62-1 85 37 85 99 1 63-27 99-86 99S16-35 15-95c0-66 28-99 85-99zM99-20c44 1 53-31 53-75 0-43-8-75-51-75s-53 32-53 75 10 74 51 75" id="am"/><use transform="matrix(0.08024691358024691,0,0,0.08024691358024691,0,0)" xlink:href="#am" id="c"/><path fill="#333" d="M117-194c89-4 53 116 60 194h-32v-121c0-31-8-49-39-48C34-167 62-67 57 0H25l-1-190h30c1 10-1 24 2 32 11-22 29-35 61-36" id="an"/><g id="d"><use transform="matrix(0.08024691358024691,0,0,0.08024691358024691,0,0)" xlink:href="#af"/><use transform="matrix(0.08024691358024691,0,0,0.08024691358024691,14.444444444444443,0)" xlink:href="#ad"/><use transform="matrix(0.08024691358024691,0,0,0.08024691358024691,23.993827160493826,0)" xlink:href="#al"/><use transform="matrix(0.08024691358024691,0,0,0.08024691358024691,38.438271604938265,0)" xlink:href="#an"/><use transform="matrix(0.08024691358024691,0,0,0.08024691358024691,54.487654320987644,0)" xlink:href="#aj"/><use transform="matrix(0.08024691358024691,0,0,0.08024691358024691,70.53703703703702,0)" xlink:href="#ai"/></g><path fill="#333" d="M24 0v-261h32V0H24" id="ao"/><path fill="#333" d="M84 4C-5 8 30-112 23-190h32v120c0 31 7 50 39 49 72-2 45-101 50-169h31l1 190h-30c-1-10 1-25-2-33-11 22-28 36-60 37" id="ap"/><g id="e"><use transform="matrix(0.08024691358024691,0,0,0.08024691358024691,0,0)" xlink:href="#ak"/><use transform="matrix(0.08024691358024691,0,0,0.08024691358024691,8.024691358024691,0)" xlink:href="#ao"/><use transform="matrix(0.08024691358024691,0,0,0.08024691358024691,14.364197530864196,0)" xlink:href="#ag"/><use transform="matrix(0.08024691358024691,0,0,0.08024691358024691,30.41358024691358,0)" xlink:href="#af"/><use transform="matrix(0.08024691358024691,0,0,0.08024691358024691,44.858024691358025,0)" xlink:href="#ap"/></g><path d="M33-154v-36h34v36H33zM33 0v-36h34V0H33" id="aq"/><path d="M24-231v-30h32v30H24zM24 0v-190h32V0H24" id="ar"/><path d="M117-194c89-4 53 116 60 194h-32v-121c0-31-8-49-39-48C34-167 62-67 57 0H25l-1-190h30c1 10-1 24 2 32 11-22 29-35 61-36" id="as"/><path d="M85-194c31 0 48 13 60 33l-1-100h32l1 261h-30c-2-10 0-23-3-31C134-8 116 4 85 4 32 4 16-35 15-94c0-66 23-100 70-100zm9 24c-40 0-46 34-46 75 0 40 6 74 45 74 42 0 51-32 51-76 0-42-9-74-50-73" id="at"/><path d="M100-194c63 0 86 42 84 106H49c0 40 14 67 53 68 26 1 43-12 49-29l28 8c-11 28-37 45-77 45C44 4 14-33 15-96c1-61 26-98 85-98zm52 81c6-60-76-77-97-28-3 7-6 17-6 28h103" id="au"/><path d="M141 0L90-78 38 0H4l68-98-65-92h35l48 74 47-74h35l-64 92 68 98h-35" id="av"/><g id="f"><use transform="matrix(0.07407407407407408,0,0,0.07407407407407408,0,0)" xlink:href="#aq"/><use transform="matrix(0.07407407407407408,0,0,0.07407407407407408,7.407407407407408,0)" xlink:href="#ar"/><use transform="matrix(0.07407407407407408,0,0,0.07407407407407408,13.259259259259261,0)" xlink:href="#as"/><use transform="matrix(0.07407407407407408,0,0,0.07407407407407408,28.074074074074076,0)" xlink:href="#at"/><use transform="matrix(0.07407407407407408,0,0,0.07407407407407408,42.88888888888889,0)" xlink:href="#au"/><use transform="matrix(0.07407407407407408,0,0,0.07407407407407408,57.70370370370371,0)" xlink:href="#av"/><path d="M-1.33 1.85h73.7V3.8h-73.7z"/></g><path fill="#333" d="M0 4l72-265h28L28 4H0" id="aw"/><g id="g"><use transform="matrix(0.06790123456790123,0,0,0.06790123456790123,0,0)" xlink:href="#aw"/><use transform="matrix(0.06790123456790123,0,0,0.06790123456790123,6.790123456790123,0)" xlink:href="#aw"/></g><path fill="#333" d="M33 0v-248h34V0H33" id="ax"/><path fill="#333" d="M115-194c53 0 69 39 70 98 0 66-23 100-70 100C84 3 66-7 56-30L54 0H23l1-261h32v101c10-23 28-34 59-34zm-8 174c40 0 45-34 45-75 0-40-5-75-45-74-42 0-51 32-51 76 0 43 10 73 51 73" id="ay"/><g id="h"><use transform="matrix(0.06790123456790123,0,0,0.06790123456790123,0,0)" xlink:href="#ax"/><use transform="matrix(0.06790123456790123,0,0,0.06790123456790123,6.790123456790123,0)" xlink:href="#ah"/><use transform="matrix(0.06790123456790123,0,0,0.06790123456790123,19.012345679012345,0)" xlink:href="#ay"/><use transform="matrix(0.06790123456790123,0,0,0.06790123456790123,32.592592592592595,0)" xlink:href="#aj"/><use transform="matrix(0.06790123456790123,0,0,0.06790123456790123,46.17283950617284,0)" xlink:href="#ad"/><use transform="matrix(0.06790123456790123,0,0,0.06790123456790123,54.25308641975309,0)" xlink:href="#ae"/></g><path fill="#333" d="M115-194c55 1 70 41 70 98S169 2 115 4C84 4 66-9 55-30l1 105H24l-1-265h31l2 30c10-21 28-34 59-34zm-8 174c40 0 45-34 45-75s-6-73-45-74c-42 0-51 32-51 76 0 43 10 73 51 73" id="az"/><g id="i"><use transform="matrix(0.06790123456790123,0,0,0.06790123456790123,0,0)" xlink:href="#ap"/><use transform="matrix(0.06790123456790123,0,0,0.06790123456790123,13.580246913580247,0)" xlink:href="#az"/><use transform="matrix(0.06790123456790123,0,0,0.06790123456790123,27.160493827160494,0)" xlink:href="#am"/><use transform="matrix(0.06790123456790123,0,0,0.06790123456790123,40.74074074074074,0)" xlink:href="#ad"/><use transform="matrix(0.06790123456790123,0,0,0.06790123456790123,48.82098765432099,0)" xlink:href="#ag"/><use transform="matrix(0.06790123456790123,0,0,0.06790123456790123,62.401234567901234,0)" xlink:href="#ay"/><use transform="matrix(0.06790123456790123,0,0,0.06790123456790123,75.98148148148148,0)" xlink:href="#an"/><use transform="matrix(0.06790123456790123,0,0,0.06790123456790123,89.56172839506172,0)" xlink:href="#ae"/><use transform="matrix(0.06790123456790123,0,0,0.06790123456790123,94.92592592592592,0)" xlink:href="#af"/><use transform="matrix(0.06790123456790123,0,0,0.06790123456790123,107.14814814814815,0)" xlink:href="#ag"/></g><g id="j"><use transform="matrix(0.06790123456790123,0,0,0.06790123456790123,0,0)" xlink:href="#ae"/><use transform="matrix(0.06790123456790123,0,0,0.06790123456790123,5.364197530864197,0)" xlink:href="#ah"/></g><path fill="#333" d="M135-143c-3-34-86-38-87 0 15 53 115 12 119 90S17 21 10-45l28-5c4 36 97 45 98 0-10-56-113-15-118-90-4-57 82-63 122-42 12 7 21 19 24 35" id="aA"/><g id="k"><use transform="matrix(0.06790123456790123,0,0,0.06790123456790123,0,0)" xlink:href="#aA"/><use transform="matrix(0.06790123456790123,0,0,0.06790123456790123,12.222222222222221,0)" xlink:href="#aj"/><use transform="matrix(0.06790123456790123,0,0,0.06790123456790123,25.80246913580247,0)" xlink:href="#ah"/><use transform="matrix(0.06790123456790123,0,0,0.06790123456790123,38.02469135802469,0)" xlink:href="#an"/><use transform="matrix(0.06790123456790123,0,0,0.06790123456790123,51.60493827160494,0)" xlink:href="#ag"/><use transform="matrix(0.06790123456790123,0,0,0.06790123456790123,65.18518518518519,0)" xlink:href="#ai"/><use transform="matrix(0.06790123456790123,0,0,0.06790123456790123,85.48765432098766,0)" xlink:href="#ag"/></g><path d="M143 0L79-87 56-68V0H24v-261h32v163l83-92h37l-77 82L181 0h-38" id="aB"/><path d="M100-194c62-1 85 37 85 99 1 63-27 99-86 99S16-35 15-95c0-66 28-99 85-99zM99-20c44 1 53-31 53-75 0-43-8-75-51-75s-53 32-53 75 10 74 51 75" id="aC"/><path d="M141-36C126-15 110 5 73 4 37 3 15-17 15-53c-1-64 63-63 125-63 3-35-9-54-41-54-24 1-41 7-42 31l-33-3c5-37 33-52 76-52 45 0 72 20 72 64v82c-1 20 7 32 28 27v20c-31 9-61-2-59-35zM48-53c0 20 12 33 32 33 41-3 63-29 60-74-43 2-92-5-92 41" id="aD"/><g id="l"><use transform="matrix(0.07407407407407408,0,0,0.07407407407407408,0,0)" xlink:href="#aq"/><use transform="matrix(0.07407407407407408,0,0,0.07407407407407408,7.407407407407408,0)" xlink:href="#aB"/><use transform="matrix(0.07407407407407408,0,0,0.07407407407407408,20.740740740740744,0)" xlink:href="#aC"/><use transform="matrix(0.07407407407407408,0,0,0.07407407407407408,35.55555555555556,0)" xlink:href="#at"/><use transform="matrix(0.07407407407407408,0,0,0.07407407407407408,50.370370370370374,0)" xlink:href="#aD"/><path d="M-1.33 1.85h67.85V3.8H-1.33z"/></g><path fill="#333" d="M240 0l2-218c-23 76-54 145-80 218h-23L58-218 59 0H30v-248h44l77 211c21-75 51-140 76-211h43V0h-30" id="aE"/><path fill="#333" d="M212-179c-10-28-35-45-73-45-59 0-87 40-87 99 0 60 29 101 89 101 43 0 62-24 78-52l27 14C228-24 195 4 139 4 59 4 22-46 18-125c-6-104 99-153 187-111 19 9 31 26 39 46" id="aF"/><path fill="#333" d="M96-169c-40 0-48 33-48 73s9 75 48 75c24 0 41-14 43-38l32 2c-6 37-31 61-74 61-59 0-76-41-82-99-10-93 101-131 147-64 4 7 5 14 7 22l-32 3c-4-21-16-35-41-35" id="aG"/><path fill="#333" d="M87 75C49 33 22-17 22-94c0-76 28-126 65-167h31c-38 41-64 92-64 168S80 34 118 75H87" id="aH"/><path fill="#333" d="M33-261c38 41 65 92 65 168S71 34 33 75H2C39 34 66-17 66-93S39-220 2-261h31" id="aI"/><g id="m"><use transform="matrix(0.06172839506172839,0,0,0.06172839506172839,0,0)" xlink:href="#az"/><use transform="matrix(0.06172839506172839,0,0,0.06172839506172839,12.345679012345679,0)" xlink:href="#ad"/><use transform="matrix(0.06172839506172839,0,0,0.06172839506172839,19.691358024691358,0)" xlink:href="#aj"/><use transform="matrix(0.06172839506172839,0,0,0.06172839506172839,32.03703703703704,0)" xlink:href="#ay"/><use transform="matrix(0.06172839506172839,0,0,0.06172839506172839,44.382716049382715,0)" xlink:href="#aj"/><use transform="matrix(0.06172839506172839,0,0,0.06172839506172839,56.72839506172839,0)" xlink:href="#ad"/><use transform="matrix(0.06172839506172839,0,0,0.06172839506172839,64.07407407407408,0)" xlink:href="#ae"/><use transform="matrix(0.06172839506172839,0,0,0.06172839506172839,68.95061728395062,0)" xlink:href="#aE"/><use transform="matrix(0.06172839506172839,0,0,0.06172839506172839,87.4074074074074,0)" xlink:href="#aj"/><use transform="matrix(0.06172839506172839,0,0,0.06172839506172839,99.75308641975309,0)" xlink:href="#ad"/><use transform="matrix(0.06172839506172839,0,0,0.06172839506172839,107.09876543209877,0)" xlink:href="#ae"/><use transform="matrix(0.06172839506172839,0,0,0.06172839506172839,111.97530864197532,0)" xlink:href="#ak"/><use transform="matrix(0.06172839506172839,0,0,0.06172839506172839,118.14814814814815,0)" xlink:href="#al"/><use transform="matrix(0.06172839506172839,0,0,0.06172839506172839,129.25925925925927,0)" xlink:href="#aj"/><use transform="matrix(0.06172839506172839,0,0,0.06172839506172839,141.60493827160494,0)" xlink:href="#aF"/><use transform="matrix(0.06172839506172839,0,0,0.06172839506172839,157.59259259259258,0)" xlink:href="#ao"/><use transform="matrix(0.06172839506172839,0,0,0.06172839506172839,162.4691358024691,0)" xlink:href="#ae"/><use transform="matrix(0.06172839506172839,0,0,0.06172839506172839,167.34567901234564,0)" xlink:href="#aG"/><use transform="matrix(0.06172839506172839,0,0,0.06172839506172839,178.45679012345676,0)" xlink:href="#af"/><use transform="matrix(0.06172839506172839,0,0,0.06172839506172839,189.56790123456787,0)" xlink:href="#aH"/><use transform="matrix(0.06172839506172839,0,0,0.06172839506172839,196.91358024691354,0)" xlink:href="#aI"/></g><path fill="#333" d="M106-169C34-169 62-67 57 0H25v-261h32l-1 103c12-21 28-36 61-36 89 0 53 116 60 194h-32v-121c2-32-8-49-39-48" id="aJ"/><path fill="#333" d="M85-194c31 0 48 13 60 33l-1-100h32l1 261h-30c-2-10 0-23-3-31C134-8 116 4 85 4 32 4 16-35 15-94c0-66 23-100 70-100zm9 24c-40 0-46 34-46 75 0 40 6 74 45 74 42 0 51-32 51-76 0-42-9-74-50-73" id="aK"/><g id="n"><use transform="matrix(0.06172839506172839,0,0,0.06172839506172839,0,0)" xlink:href="#az"/><use transform="matrix(0.06172839506172839,0,0,0.06172839506172839,12.345679012345679,0)" xlink:href="#ad"/><use transform="matrix(0.06172839506172839,0,0,0.06172839506172839,19.691358024691358,0)" xlink:href="#aj"/><use transform="matrix(0.06172839506172839,0,0,0.06172839506172839,32.03703703703704,0)" xlink:href="#ay"/><use transform="matrix(0.06172839506172839,0,0,0.06172839506172839,44.382716049382715,0)" xlink:href="#aj"/><use transform="matrix(0.06172839506172839,0,0,0.06172839506172839,56.72839506172839,0)" xlink:href="#ad"/><use transform="matrix(0.06172839506172839,0,0,0.06172839506172839,64.07407407407408,0)" xlink:href="#ae"/><use transform="matrix(0.06172839506172839,0,0,0.06172839506172839,68.95061728395062,0)" xlink:href="#aE"/><use transform="matrix(0.06172839506172839,0,0,0.06172839506172839,87.4074074074074,0)" xlink:href="#aj"/><use transform="matrix(0.06172839506172839,0,0,0.06172839506172839,99.75308641975309,0)" xlink:href="#ad"/><use transform="matrix(0.06172839506172839,0,0,0.06172839506172839,107.09876543209877,0)" xlink:href="#ae"/><use transform="matrix(0.06172839506172839,0,0,0.06172839506172839,111.97530864197532,0)" xlink:href="#ak"/><use transform="matrix(0.06172839506172839,0,0,0.06172839506172839,118.14814814814815,0)" xlink:href="#al"/><use transform="matrix(0.06172839506172839,0,0,0.06172839506172839,129.25925925925927,0)" xlink:href="#aj"/><use transform="matrix(0.06172839506172839,0,0,0.06172839506172839,141.60493827160494,0)" xlink:href="#aH"/><use transform="matrix(0.06172839506172839,0,0,0.06172839506172839,148.9506172839506,0)" xlink:href="#aj"/><use transform="matrix(0.06172839506172839,0,0,0.06172839506172839,161.29629629629628,0)" xlink:href="#aJ"/><use transform="matrix(0.06172839506172839,0,0,0.06172839506172839,173.64197530864195,0)" xlink:href="#ad"/><use transform="matrix(0.06172839506172839,0,0,0.06172839506172839,180.98765432098762,0)" xlink:href="#ax"/><use transform="matrix(0.06172839506172839,0,0,0.06172839506172839,187.16049382716045,0)" xlink:href="#aK"/><use transform="matrix(0.06172839506172839,0,0,0.06172839506172839,199.50617283950612,0)" xlink:href="#aI"/></g><g id="o"><use transform="matrix(0.05,0,0,0.05,0,0)" xlink:href="#aA"/><use transform="matrix(0.05,0,0,0.05,9,0)" xlink:href="#aj"/><use transform="matrix(0.05,0,0,0.05,19,0)" xlink:href="#aA"/><use transform="matrix(0.05,0,0,0.05,28,0)" xlink:href="#aA"/><use transform="matrix(0.05,0,0,0.05,37,0)" xlink:href="#ae"/><use transform="matrix(0.05,0,0,0.05,40.95,0)" xlink:href="#am"/><use transform="matrix(0.05,0,0,0.05,50.95,0)" xlink:href="#an"/><use transform="matrix(0.05,0,0,0.05,60.95,0)" xlink:href="#ax"/><use transform="matrix(0.05,0,0,0.05,65.95,0)" xlink:href="#aK"/></g><path fill="#333" d="M33-154v-36h34v36H33zM33 0v-36h34V0H33" id="aL"/><path fill="#333" d="M18-150v-26h174v26H18zm0 90v-26h174v26H18" id="aM"/><g id="p"><use transform="matrix(0.05,0,0,0.05,0,0)" xlink:href="#aL"/><use transform="matrix(0.05,0,0,0.05,5,0)" xlink:href="#aM"/></g><path fill="#333" d="M177-190C167-65 218 103 67 71c-23-6-38-20-44-43l32-5c15 47 100 32 89-28v-30C133-14 115 1 83 1 29 1 15-40 15-95c0-56 16-97 71-98 29-1 48 16 59 35 1-10 0-23 2-32h30zM94-22c36 0 50-32 50-73 0-42-14-75-50-75-39 0-46 34-46 75s6 73 46 73" id="aN"/><path fill="#333" d="M185-189c-5-48-123-54-124 2 14 75 158 14 163 119 3 78-121 87-175 55-17-10-28-26-33-46l33-7c5 56 141 63 141-1 0-78-155-14-162-118-5-82 145-84 179-34 5 7 8 16 11 25" id="aO"/><g id="q"><use transform="matrix(0.05,0,0,0.05,0,0)" xlink:href="#aN"/><use transform="matrix(0.05,0,0,0.05,10,0)" xlink:href="#aj"/><use transform="matrix(0.05,0,0,0.05,20,0)" xlink:href="#ak"/><use transform="matrix(0.05,0,0,0.05,25,0)" xlink:href="#aO"/><use transform="matrix(0.05,0,0,0.05,37,0)" xlink:href="#aj"/><use transform="matrix(0.05,0,0,0.05,47,0)" xlink:href="#aA"/><use transform="matrix(0.05,0,0,0.05,56,0)" xlink:href="#aA"/><use transform="matrix(0.05,0,0,0.05,65,0)" xlink:href="#ae"/><use transform="matrix(0.05,0,0,0.05,68.95,0)" xlink:href="#am"/><use transform="matrix(0.05,0,0,0.05,78.95,0)" xlink:href="#an"/><use transform="matrix(0.05,0,0,0.05,88.95,0)" xlink:href="#ax"/><use transform="matrix(0.05,0,0,0.05,93.95,0)" xlink:href="#aK"/><use transform="matrix(0.05,0,0,0.05,103.95,0)" xlink:href="#aH"/><use transform="matrix(0.05,0,0,0.05,109.9,0)" xlink:href="#aI"/></g><path d="M30-248c118-7 216 8 213 122C240-48 200 0 122 0H30v-248zM63-27c89 8 146-16 146-99s-60-101-146-95v194" id="aP"/><path d="M210-169c-67 3-38 105-44 169h-31v-121c0-29-5-50-35-48C34-165 62-65 56 0H25l-1-190h30c1 10-1 24 2 32 10-44 99-50 107 0 11-21 27-35 58-36 85-2 47 119 55 194h-31v-121c0-29-5-49-35-48" id="aQ"/><path d="M177-190C167-65 218 103 67 71c-23-6-38-20-44-43l32-5c15 47 100 32 89-28v-30C133-14 115 1 83 1 29 1 15-40 15-95c0-56 16-97 71-98 29-1 48 16 59 35 1-10 0-23 2-32h30zM94-22c36 0 50-32 50-73 0-42-14-75-50-75-39 0-46 34-46 75s6 73 46 73" id="aR"/><path d="M114-163C36-179 61-72 57 0H25l-1-190h30c1 12-1 29 2 39 6-27 23-49 58-41v29" id="aS"/><path d="M115-194c55 1 70 41 70 98S169 2 115 4C84 4 66-9 55-30l1 105H24l-1-265h31l2 30c10-21 28-34 59-34zm-8 174c40 0 45-34 45-75s-6-73-45-74c-42 0-51 32-51 76 0 43 10 73 51 73" id="aT"/><path d="M106-169C34-169 62-67 57 0H25v-261h32l-1 103c12-21 28-36 61-36 89 0 53 116 60 194h-32v-121c2-32-8-49-39-48" id="aU"/><path d="M96-169c-40 0-48 33-48 73s9 75 48 75c24 0 41-14 43-38l32 2c-6 37-31 61-74 61-59 0-76-41-82-99-10-93 101-131 147-64 4 7 5 14 7 22l-32 3c-4-21-16-35-41-35" id="aV"/><path d="M135-143c-3-34-86-38-87 0 15 53 115 12 119 90S17 21 10-45l28-5c4 36 97 45 98 0-10-56-113-15-118-90-4-57 82-63 122-42 12 7 21 19 24 35" id="aW"/><g id="r"><use transform="matrix(0.07407407407407408,0,0,0.07407407407407408,0,0)" xlink:href="#aq"/><use transform="matrix(0.07407407407407408,0,0,0.07407407407407408,7.407407407407408,0)" xlink:href="#aP"/><use transform="matrix(0.07407407407407408,0,0,0.07407407407407408,26.592592592592595,0)" xlink:href="#au"/><use transform="matrix(0.07407407407407408,0,0,0.07407407407407408,41.40740740740741,0)" xlink:href="#aQ"/><use transform="matrix(0.07407407407407408,0,0,0.07407407407407408,63.555555555555564,0)" xlink:href="#aC"/><use transform="matrix(0.07407407407407408,0,0,0.07407407407407408,78.37037037037038,0)" xlink:href="#aR"/><use transform="matrix(0.07407407407407408,0,0,0.07407407407407408,93.18518518518519,0)" xlink:href="#aS"/><use transform="matrix(0.07407407407407408,0,0,0.07407407407407408,102,0)" xlink:href="#aD"/><use transform="matrix(0.07407407407407408,0,0,0.07407407407407408,116.81481481481481,0)" xlink:href="#aT"/><use transform="matrix(0.07407407407407408,0,0,0.07407407407407408,131.62962962962962,0)" xlink:href="#aU"/><use transform="matrix(0.07407407407407408,0,0,0.07407407407407408,146.44444444444443,0)" xlink:href="#ar"/><use transform="matrix(0.07407407407407408,0,0,0.07407407407407408,152.29629629629628,0)" xlink:href="#aV"/><use transform="matrix(0.07407407407407408,0,0,0.07407407407407408,165.62962962962962,0)" xlink:href="#aW"/><path d="M-1.33 1.85H180.3V3.8H-1.33z"/></g><path fill="#333" d="M101-251c82-7 93 87 43 132L82-64C71-53 59-42 53-27h129V0H18c2-99 128-94 128-182 0-28-16-43-45-43s-46 15-49 41l-32-3c6-41 34-60 81-64" id="aX"/><g id="s"><use transform="matrix(0.05,0,0,0.05,0,0)" xlink:href="#ad"/><use transform="matrix(0.05,0,0,0.05,5.95,0)" xlink:href="#aj"/><use transform="matrix(0.05,0,0,0.05,15.949999999999998,0)" xlink:href="#aA"/><use transform="matrix(0.05,0,0,0.05,24.95,0)" xlink:href="#az"/><use transform="matrix(0.05,0,0,0.05,34.95,0)" xlink:href="#am"/><use transform="matrix(0.05,0,0,0.05,44.95,0)" xlink:href="#an"/><use transform="matrix(0.05,0,0,0.05,54.95,0)" xlink:href="#aA"/><use transform="matrix(0.05,0,0,0.05,63.95,0)" xlink:href="#aj"/><use transform="matrix(0.05,0,0,0.05,73.95,0)" xlink:href="#aX"/></g><path fill="#333" d="M179-190L93 31C79 59 56 82 12 73V49c39 6 53-20 64-50L1-190h34L92-34l54-156h33" id="aY"/><g id="t"><use transform="matrix(0.05,0,0,0.05,0,0)" xlink:href="#aK"/><use transform="matrix(0.05,0,0,0.05,10,0)" xlink:href="#aj"/><use transform="matrix(0.05,0,0,0.05,20,0)" xlink:href="#ai"/><use transform="matrix(0.05,0,0,0.05,34.95,0)" xlink:href="#am"/><use transform="matrix(0.05,0,0,0.05,44.95,0)" xlink:href="#aN"/><use transform="matrix(0.05,0,0,0.05,54.95,0)" xlink:href="#ad"/><use transform="matrix(0.05,0,0,0.05,60.900000000000006,0)" xlink:href="#ag"/><use transform="matrix(0.05,0,0,0.05,70.9,0)" xlink:href="#az"/><use transform="matrix(0.05,0,0,0.05,80.9,0)" xlink:href="#aJ"/><use transform="matrix(0.05,0,0,0.05,90.9,0)" xlink:href="#ae"/><use transform="matrix(0.05,0,0,0.05,94.85000000000001,0)" xlink:href="#aG"/><use transform="matrix(0.05,0,0,0.05,103.85000000000001,0)" xlink:href="#aA"/><use transform="matrix(0.05,0,0,0.05,112.85000000000001,0)" xlink:href="#aw"/><use transform="matrix(0.05,0,0,0.05,117.85000000000001,0)" xlink:href="#aj"/><use transform="matrix(0.05,0,0,0.05,127.85000000000001,0)" xlink:href="#aJ"/><use transform="matrix(0.05,0,0,0.05,137.85000000000002,0)" xlink:href="#ad"/><use transform="matrix(0.05,0,0,0.05,143.8,0)" xlink:href="#aw"/><use transform="matrix(0.05,0,0,0.05,148.8,0)" xlink:href="#aj"/><use transform="matrix(0.05,0,0,0.05,158.8,0)" xlink:href="#aJ"/><use transform="matrix(0.05,0,0,0.05,168.8,0)" xlink:href="#ad"/><use transform="matrix(0.05,0,0,0.05,174.75,0)" xlink:href="#ax"/><use transform="matrix(0.05,0,0,0.05,179.75,0)" xlink:href="#aK"/><use transform="matrix(0.05,0,0,0.05,189.75,0)" xlink:href="#aw"/><use transform="matrix(0.05,0,0,0.05,194.75,0)" xlink:href="#az"/><use transform="matrix(0.05,0,0,0.05,204.75,0)" xlink:href="#ag"/><use transform="matrix(0.05,0,0,0.05,214.75,0)" xlink:href="#ad"/><use transform="matrix(0.05,0,0,0.05,220.69999999999996,0)" xlink:href="#ak"/><use transform="matrix(0.05,0,0,0.05,225.69999999999996,0)" xlink:href="#aY"/><use transform="matrix(0.05,0,0,0.05,234.69999999999996,0)" xlink:href="#aH"/><use transform="matrix(0.05,0,0,0.05,240.64999999999998,0)" xlink:href="#aA"/><use transform="matrix(0.05,0,0,0.05,249.64999999999998,0)" xlink:href="#aj"/><use transform="matrix(0.05,0,0,0.05,259.65,0)" xlink:href="#aA"/><use transform="matrix(0.05,0,0,0.05,268.65,0)" xlink:href="#aA"/><use transform="matrix(0.05,0,0,0.05,277.65,0)" xlink:href="#ae"/><use transform="matrix(0.05,0,0,0.05,281.59999999999997,0)" xlink:href="#am"/><use transform="matrix(0.05,0,0,0.05,291.59999999999997,0)" xlink:href="#an"/><use transform="matrix(0.05,0,0,0.05,301.59999999999997,0)" xlink:href="#ax"/><use transform="matrix(0.05,0,0,0.05,306.59999999999997,0)" xlink:href="#aK"/><use transform="matrix(0.05,0,0,0.05,316.59999999999997,0)" xlink:href="#aI"/></g><g id="u"><use transform="matrix(0.05,0,0,0.05,0,0)" xlink:href="#aw"/><use transform="matrix(0.05,0,0,0.05,5,0)" xlink:href="#aw"/></g><g id="v"><use transform="matrix(0.05,0,0,0.05,0,0)" xlink:href="#az"/><use transform="matrix(0.05,0,0,0.05,10,0)" xlink:href="#am"/><use transform="matrix(0.05,0,0,0.05,20,0)" xlink:href="#aK"/><use transform="matrix(0.05,0,0,0.05,30,0)" xlink:href="#ag"/><use transform="matrix(0.05,0,0,0.05,40,0)" xlink:href="#ak"/><use transform="matrix(0.05,0,0,0.05,45,0)" xlink:href="#af"/><use transform="matrix(0.05,0,0,0.05,54,0)" xlink:href="#ae"/></g><use transform="matrix(0.05,0,0,0.05,0,0)" xlink:href="#am" id="w"/><g id="x"><use transform="matrix(0.05,0,0,0.05,0,0)" xlink:href="#aA"/><use transform="matrix(0.05,0,0,0.05,9,0)" xlink:href="#ak"/><use transform="matrix(0.05,0,0,0.05,14,0)" xlink:href="#ag"/><use transform="matrix(0.05,0,0,0.05,24,0)" xlink:href="#ad"/><use transform="matrix(0.05,0,0,0.05,29.950000000000003,0)" xlink:href="#am"/><use transform="matrix(0.05,0,0,0.05,39.95,0)" xlink:href="#aA"/><use transform="matrix(0.05,0,0,0.05,48.95,0)" xlink:href="#ak"/><use transform="matrix(0.05,0,0,0.05,53.95,0)" xlink:href="#ae"/></g><g id="y"><use transform="matrix(0.05,0,0,0.05,0,0)" xlink:href="#ap"/><use transform="matrix(0.05,0,0,0.05,10,0)" xlink:href="#az"/><use transform="matrix(0.05,0,0,0.05,20,0)" xlink:href="#am"/><use transform="matrix(0.05,0,0,0.05,30,0)" xlink:href="#ad"/><use transform="matrix(0.05,0,0,0.05,35.95,0)" xlink:href="#ag"/><use transform="matrix(0.05,0,0,0.05,45.95,0)" xlink:href="#ay"/><use transform="matrix(0.05,0,0,0.05,55.95,0)" xlink:href="#an"/><use transform="matrix(0.05,0,0,0.05,65.95,0)" xlink:href="#ae"/><use transform="matrix(0.05,0,0,0.05,69.9,0)" xlink:href="#af"/><use transform="matrix(0.05,0,0,0.05,78.9,0)" xlink:href="#ag"/></g><path d="M266 0h-40l-56-210L115 0H75L2-248h35L96-30l15-64 43-154h32l59 218 59-218h35" id="aZ"/><path d="M197 0v-115H63V0H30v-248h33v105h134v-105h34V0h-34" id="ba"/><path d="M140-251c81 0 123 46 123 126C263-46 219 4 140 4 59 4 17-45 17-125s42-126 123-126zm0 227c63 0 89-41 89-101s-29-99-89-99c-61 0-89 39-89 99S79-25 140-24" id="bb"/><g id="z"><use transform="matrix(0.07407407407407408,0,0,0.07407407407407408,0,0)" xlink:href="#aq"/><use transform="matrix(0.07407407407407408,0,0,0.07407407407407408,7.407407407407408,0)" xlink:href="#aZ"/><use transform="matrix(0.07407407407407408,0,0,0.07407407407407408,32.51851851851852,0)" xlink:href="#ba"/><use transform="matrix(0.07407407407407408,0,0,0.07407407407407408,51.70370370370371,0)" xlink:href="#bb"/><path d="M-1.33 1.85h75.1V3.8h-75.1z"/></g><g id="A"><use transform="matrix(0.05,0,0,0.05,0,0)" xlink:href="#az"/><use transform="matrix(0.05,0,0,0.05,10,0)" xlink:href="#ad"/><use transform="matrix(0.05,0,0,0.05,15.949999999999998,0)" xlink:href="#ae"/><use transform="matrix(0.05,0,0,0.05,19.9,0)" xlink:href="#aK"/><use transform="matrix(0.05,0,0,0.05,29.899999999999995,0)" xlink:href="#am"/><use transform="matrix(0.05,0,0,0.05,39.9,0)" xlink:href="#ay"/><use transform="matrix(0.05,0,0,0.05,49.9,0)" xlink:href="#ae"/></g><g id="B"><use transform="matrix(0.05,0,0,0.05,0,0)" xlink:href="#az"/><use transform="matrix(0.05,0,0,0.05,10,0)" xlink:href="#am"/><use transform="matrix(0.05,0,0,0.05,20,0)" xlink:href="#aK"/><use transform="matrix(0.05,0,0,0.05,30,0)" xlink:href="#ag"/><use transform="matrix(0.05,0,0,0.05,40,0)" xlink:href="#ak"/><use transform="matrix(0.05,0,0,0.05,45,0)" xlink:href="#af"/><use transform="matrix(0.05,0,0,0.05,54,0)" xlink:href="#aj"/></g><path fill="#333" d="M96-169c-40 0-48 33-48 73s9 75 48 75c24 0 41-14 43-38l32 2c-6 37-31 61-74 61-59 0-76-41-82-99-10-93 101-131 147-64 4 7 5 14 7 22l-32 3c-4-21-16-35-41-35zm19-42H79c-13-18-31-30-41-51 32-2 39 20 59 30 19-10 26-32 57-30-9 21-27 33-39 51" id="bc"/><g id="C"><use transform="matrix(0.05,0,0,0.05,0,0)" xlink:href="#az"/><use transform="matrix(0.05,0,0,0.05,10,0)" xlink:href="#ad"/><use transform="matrix(0.05,0,0,0.05,15.949999999999998,0)" xlink:href="#ae"/><use transform="matrix(0.05,0,0,0.05,19.9,0)" xlink:href="#bc"/><use transform="matrix(0.05,0,0,0.05,28.899999999999995,0)" xlink:href="#ag"/><use transform="matrix(0.05,0,0,0.05,38.9,0)" xlink:href="#af"/><use transform="matrix(0.05,0,0,0.05,47.9,0)" xlink:href="#am"/><use transform="matrix(0.05,0,0,0.05,57.900000000000006,0)" xlink:href="#al"/><use transform="matrix(0.05,0,0,0.05,66.9,0)" xlink:href="#ag"/><use transform="matrix(0.05,0,0,0.05,76.9,0)" xlink:href="#an"/><use transform="matrix(0.05,0,0,0.05,86.9,0)" xlink:href="#ae"/><use transform="matrix(0.05,0,0,0.05,90.85000000000001,0)" xlink:href="#aJ"/></g><g id="D"><use transform="matrix(0.05,0,0,0.05,0,0)" xlink:href="#ad"/><use transform="matrix(0.05,0,0,0.05,5.95,0)" xlink:href="#ag"/><use transform="matrix(0.05,0,0,0.05,15.949999999999998,0)" xlink:href="#al"/><use transform="matrix(0.05,0,0,0.05,24.95,0)" xlink:href="#an"/><use transform="matrix(0.05,0,0,0.05,34.95,0)" xlink:href="#aj"/><use transform="matrix(0.05,0,0,0.05,44.95,0)" xlink:href="#aJ"/></g><g id="E"><use transform="matrix(0.05,0,0,0.05,0,0)" xlink:href="#af"/><use transform="matrix(0.05,0,0,0.05,9,0)" xlink:href="#ad"/><use transform="matrix(0.05,0,0,0.05,14.949999999999998,0)" xlink:href="#al"/><use transform="matrix(0.05,0,0,0.05,23.95,0)" xlink:href="#an"/><use transform="matrix(0.05,0,0,0.05,33.95,0)" xlink:href="#aj"/><use transform="matrix(0.05,0,0,0.05,43.95,0)" xlink:href="#aN"/><use transform="matrix(0.05,0,0,0.05,53.95,0)" xlink:href="#ag"/></g><g id="F"><use transform="matrix(0.05,0,0,0.05,0,0)" xlink:href="#ak"/><use transform="matrix(0.05,0,0,0.05,5,0)" xlink:href="#ao"/><use transform="matrix(0.05,0,0,0.05,8.95,0)" xlink:href="#ag"/><use transform="matrix(0.05,0,0,0.05,18.95,0)" xlink:href="#af"/><use transform="matrix(0.05,0,0,0.05,27.950000000000003,0)" xlink:href="#ag"/></g><g id="G"><use transform="matrix(0.05,0,0,0.05,0,0)" xlink:href="#am"/><use transform="matrix(0.05,0,0,0.05,10,0)" xlink:href="#aK"/></g><path fill="#333" d="M266 0h-40l-56-210L115 0H75L2-248h35L96-30l15-64 43-154h32l59 218 59-218h35" id="bd"/><path fill="#333" d="M197 0v-115H63V0H30v-248h33v105h134v-105h34V0h-34" id="be"/><path fill="#333" d="M140-251c81 0 123 46 123 126C263-46 219 4 140 4 59 4 17-45 17-125s42-126 123-126zm0 227c63 0 89-41 89-101s-29-99-89-99c-61 0-89 39-89 99S79-25 140-24" id="bf"/><g id="H"><use transform="matrix(0.05,0,0,0.05,0,0)" xlink:href="#bd"/><use transform="matrix(0.05,0,0,0.05,16.95,0)" xlink:href="#be"/><use transform="matrix(0.05,0,0,0.05,29.899999999999995,0)" xlink:href="#bf"/></g><g id="I"><use transform="matrix(0.05,0,0,0.05,0,0)" xlink:href="#ak"/><use transform="matrix(0.05,0,0,0.05,5,0)" xlink:href="#ao"/><use transform="matrix(0.05,0,0,0.05,8.95,0)" xlink:href="#ag"/><use transform="matrix(0.05,0,0,0.05,18.95,0)" xlink:href="#af"/><use transform="matrix(0.05,0,0,0.05,27.950000000000003,0)" xlink:href="#ag"/></g><path d="M137 0h-34L2-248h35l83 218 83-218h36" id="bg"/><path d="M206 0h-36l-40-164L89 0H53L-1-190h32L70-26l43-164h34l41 164 42-164h31" id="bh"/><g id="J"><use transform="matrix(0.07407407407407408,0,0,0.07407407407407408,0,0)" xlink:href="#aq"/><use transform="matrix(0.07407407407407408,0,0,0.07407407407407408,7.407407407407408,0)" xlink:href="#bg"/><use transform="matrix(0.07407407407407408,0,0,0.07407407407407408,24.66666666666667,0)" xlink:href="#ar"/><use transform="matrix(0.07407407407407408,0,0,0.07407407407407408,30.51851851851852,0)" xlink:href="#au"/><use transform="matrix(0.07407407407407408,0,0,0.07407407407407408,45.33333333333334,0)" xlink:href="#bh"/><path d="M-1.33 1.85h67.2V3.8h-67.2z"/></g><g id="K"><use transform="matrix(0.05,0,0,0.05,0,0)" xlink:href="#ap"/><use transform="matrix(0.05,0,0,0.05,10,0)" xlink:href="#az"/><use transform="matrix(0.05,0,0,0.05,20,0)" xlink:href="#am"/><use transform="matrix(0.05,0,0,0.05,30,0)" xlink:href="#ad"/><use transform="matrix(0.05,0,0,0.05,35.95,0)" xlink:href="#ag"/><use transform="matrix(0.05,0,0,0.05,45.95,0)" xlink:href="#ay"/><use transform="matrix(0.05,0,0,0.05,55.95,0)" xlink:href="#an"/><use transform="matrix(0.05,0,0,0.05,65.95,0)" xlink:href="#ae"/><use transform="matrix(0.05,0,0,0.05,69.9,0)" xlink:href="#af"/><use transform="matrix(0.05,0,0,0.05,78.9,0)" xlink:href="#am"/><use transform="matrix(0.05,0,0,0.05,88.9,0)" xlink:href="#al"/><use transform="matrix(0.05,0,0,0.05,97.9,0)" xlink:href="#ae"/><use transform="matrix(0.05,0,0,0.05,101.85000000000001,0)" xlink:href="#aJ"/></g><g id="L"><use transform="matrix(0.05,0,0,0.05,0,0)" xlink:href="#ai"/><use transform="matrix(0.05,0,0,0.05,14.950000000000001,0)" xlink:href="#aj"/><use transform="matrix(0.05,0,0,0.05,24.950000000000003,0)" xlink:href="#ad"/><use transform="matrix(0.05,0,0,0.05,30.900000000000002,0)" xlink:href="#ae"/><use transform="matrix(0.05,0,0,0.05,34.85,0)" xlink:href="#ak"/><use transform="matrix(0.05,0,0,0.05,39.85,0)" xlink:href="#al"/><use transform="matrix(0.05,0,0,0.05,48.85,0)" xlink:href="#ag"/><use transform="matrix(0.05,0,0,0.05,58.85,0)" xlink:href="#aJ"/></g><path fill="#333" d="M24-231v-30h32v30H24zM-9 49c24 4 33-6 33-30v-209h32V24c2 40-23 58-65 49V49" id="bi"/><g id="M"><use transform="matrix(0.05,0,0,0.05,0,0)" xlink:href="#az"/><use transform="matrix(0.05,0,0,0.05,10,0)" xlink:href="#ad"/><use transform="matrix(0.05,0,0,0.05,15.949999999999998,0)" xlink:href="#ae"/><use transform="matrix(0.05,0,0,0.05,19.9,0)" xlink:href="#ai"/><use transform="matrix(0.05,0,0,0.05,34.85,0)" xlink:href="#aj"/><use transform="matrix(0.05,0,0,0.05,44.85,0)" xlink:href="#ad"/><use transform="matrix(0.05,0,0,0.05,50.800000000000004,0)" xlink:href="#bi"/><use transform="matrix(0.05,0,0,0.05,54.75,0)" xlink:href="#ag"/><use transform="matrix(0.05,0,0,0.05,64.75,0)" xlink:href="#bi"/></g><g id="N"><use transform="matrix(0.05,0,0,0.05,0,0)" xlink:href="#ap"/><use transform="matrix(0.05,0,0,0.05,10,0)" xlink:href="#az"/><use transform="matrix(0.05,0,0,0.05,20,0)" xlink:href="#am"/><use transform="matrix(0.05,0,0,0.05,30,0)" xlink:href="#ad"/><use transform="matrix(0.05,0,0,0.05,35.95,0)" xlink:href="#ag"/><use transform="matrix(0.05,0,0,0.05,45.95,0)" xlink:href="#ay"/><use transform="matrix(0.05,0,0,0.05,55.95,0)" xlink:href="#an"/><use transform="matrix(0.05,0,0,0.05,65.95,0)" xlink:href="#ae"/><use transform="matrix(0.05,0,0,0.05,69.9,0)" xlink:href="#af"/><use transform="matrix(0.05,0,0,0.05,78.9,0)" xlink:href="#am"/><use transform="matrix(0.05,0,0,0.05,88.9,0)" xlink:href="#al"/><use transform="matrix(0.05,0,0,0.05,97.9,0)" xlink:href="#aj"/></g><g id="O"><use transform="matrix(0.05,0,0,0.05,0,0)" xlink:href="#ai"/><use transform="matrix(0.05,0,0,0.05,14.950000000000001,0)" xlink:href="#aj"/><use transform="matrix(0.05,0,0,0.05,24.950000000000003,0)" xlink:href="#ad"/><use transform="matrix(0.05,0,0,0.05,30.900000000000002,0)" xlink:href="#ae"/><use transform="matrix(0.05,0,0,0.05,34.85,0)" xlink:href="#ak"/><use transform="matrix(0.05,0,0,0.05,39.85,0)" xlink:href="#al"/><use transform="matrix(0.05,0,0,0.05,48.85,0)" xlink:href="#aj"/></g><use transform="matrix(0.05,0,0,0.05,0,0)" xlink:href="#aA" id="P"/><g id="Q"><use transform="matrix(0.05,0,0,0.05,0,0)" xlink:href="#az"/><use transform="matrix(0.05,0,0,0.05,10,0)" xlink:href="#am"/><use transform="matrix(0.05,0,0,0.05,20,0)" xlink:href="#al"/><use transform="matrix(0.05,0,0,0.05,29,0)" xlink:href="#az"/><use transform="matrix(0.05,0,0,0.05,39,0)" xlink:href="#ad"/><use transform="matrix(0.05,0,0,0.05,44.95,0)" xlink:href="#aj"/><use transform="matrix(0.05,0,0,0.05,54.95,0)" xlink:href="#bc"/><use transform="matrix(0.05,0,0,0.05,63.95,0)" xlink:href="#bi"/><use transform="matrix(0.05,0,0,0.05,67.9,0)" xlink:href="#aj"/><use transform="matrix(0.05,0,0,0.05,77.9,0)" xlink:href="#ai"/></g><g id="R"><use transform="matrix(0.05,0,0,0.05,0,0)" xlink:href="#ae"/><use transform="matrix(0.05,0,0,0.05,3.95,0)" xlink:href="#an"/></g><g id="S"><use transform="matrix(0.05,0,0,0.05,0,0)" xlink:href="#bi"/><use transform="matrix(0.05,0,0,0.05,3.95,0)" xlink:href="#ae"/><use transform="matrix(0.05,0,0,0.05,7.9,0)" xlink:href="#aJ"/></g><path fill="#333" d="M9 0v-24l116-142H16v-24h144v24L44-24h123V0H9zm95-211H68c-13-18-31-30-41-51 32-2 39 20 59 30 19-10 26-32 57-30-9 21-27 33-39 51" id="bj"/><g id="T"><use transform="matrix(0.05,0,0,0.05,0,0)" xlink:href="#az"/><use transform="matrix(0.05,0,0,0.05,10,0)" xlink:href="#ad"/><use transform="matrix(0.05,0,0,0.05,15.949999999999998,0)" xlink:href="#ae"/><use transform="matrix(0.05,0,0,0.05,19.9,0)" xlink:href="#af"/><use transform="matrix(0.05,0,0,0.05,28.899999999999995,0)" xlink:href="#ag"/><use transform="matrix(0.05,0,0,0.05,38.9,0)" xlink:href="#bj"/><use transform="matrix(0.05,0,0,0.05,47.9,0)" xlink:href="#ae"/></g><path fill="#333" d="M135-143c-3-34-86-38-87 0 15 53 115 12 119 90S17 21 10-45l28-5c4 36 97 45 98 0-10-56-113-15-118-90-4-57 82-63 122-42 12 7 21 19 24 35zm-28-68H71c-13-18-31-30-41-51 32-2 39 20 59 30 19-10 26-32 57-30-9 21-27 33-39 51" id="bk"/><g id="U"><use transform="matrix(0.05,0,0,0.05,0,0)" xlink:href="#ae"/><use transform="matrix(0.05,0,0,0.05,3.95,0)" xlink:href="#ah"/><use transform="matrix(0.05,0,0,0.05,12.949999999999998,0)" xlink:href="#az"/><use transform="matrix(0.05,0,0,0.05,22.95,0)" xlink:href="#ae"/><use transform="matrix(0.05,0,0,0.05,26.899999999999995,0)" xlink:href="#bk"/><use transform="matrix(0.05,0,0,0.05,35.9,0)" xlink:href="#ae"/></g><path fill="#333" d="M68-38c1 34 0 65-14 84H32c9-13 17-26 17-46H33v-38h35" id="bl"/><g id="V"><use transform="matrix(0.05,0,0,0.05,0,0)" xlink:href="#aA"/><use transform="matrix(0.05,0,0,0.05,9,0)" xlink:href="#az"/><use transform="matrix(0.05,0,0,0.05,19,0)" xlink:href="#am"/><use transform="matrix(0.05,0,0,0.05,29,0)" xlink:href="#ad"/><use transform="matrix(0.05,0,0,0.05,34.95,0)" xlink:href="#am"/><use transform="matrix(0.05,0,0,0.05,44.95,0)" xlink:href="#bc"/><use transform="matrix(0.05,0,0,0.05,53.95,0)" xlink:href="#ae"/><use transform="matrix(0.05,0,0,0.05,57.900000000000006,0)" xlink:href="#ao"/><use transform="matrix(0.05,0,0,0.05,61.85,0)" xlink:href="#am"/><use transform="matrix(0.05,0,0,0.05,71.85000000000001,0)" xlink:href="#bl"/></g><g id="W"><use transform="matrix(0.05,0,0,0.05,0,0)" xlink:href="#bc"/><use transform="matrix(0.05,0,0,0.05,9,0)" xlink:href="#aj"/></g><g id="X"><use transform="matrix(0.05,0,0,0.05,0,0)" xlink:href="#bi"/><use transform="matrix(0.05,0,0,0.05,3.95,0)" xlink:href="#aj"/></g><g id="Y"><use transform="matrix(0.05,0,0,0.05,0,0)" xlink:href="#ap"/><use transform="matrix(0.05,0,0,0.05,10,0)" xlink:href="#az"/><use transform="matrix(0.05,0,0,0.05,20,0)" xlink:href="#am"/><use transform="matrix(0.05,0,0,0.05,30,0)" xlink:href="#ad"/><use transform="matrix(0.05,0,0,0.05,35.95,0)" xlink:href="#ag"/><use transform="matrix(0.05,0,0,0.05,45.95,0)" xlink:href="#ay"/><use transform="matrix(0.05,0,0,0.05,55.95,0)" xlink:href="#an"/><use transform="matrix(0.05,0,0,0.05,65.95,0)" xlink:href="#ae"/><use transform="matrix(0.05,0,0,0.05,69.9,0)" xlink:href="#af"/></g><g id="Z"><use transform="matrix(0.05,0,0,0.05,0,0)" xlink:href="#ai"/><use transform="matrix(0.05,0,0,0.05,14.950000000000001,0)" xlink:href="#ao"/><use transform="matrix(0.05,0,0,0.05,18.900000000000002,0)" xlink:href="#ag"/><use transform="matrix(0.05,0,0,0.05,28.900000000000002,0)" xlink:href="#bi"/><use transform="matrix(0.05,0,0,0.05,32.85,0)" xlink:href="#bk"/><use transform="matrix(0.05,0,0,0.05,41.85,0)" xlink:href="#ae"/></g><path fill="#333" d="M27 0v-27h64v-190l-56 39v-29l58-41h29v221h61V0H27" id="bm"/><path fill="#333" d="M134-131c28 9 52 24 51 62-1 50-34 73-85 73S17-19 16-69c0-36 21-54 49-61-75-25-45-126 34-121 46 3 78 18 79 63 0 33-17 51-44 57zm-34-11c31 1 46-15 46-44 0-28-17-43-47-42-29 0-46 13-45 42 1 28 16 44 46 44zm1 122c35 0 51-18 51-52 0-30-18-46-53-46-33 0-51 17-51 47 0 34 19 51 53 51" id="bn"/><g id="aa"><use transform="matrix(0.05,0,0,0.05,0,0)" xlink:href="#bm"/><use transform="matrix(0.05,0,0,0.05,10,0)" xlink:href="#bn"/></g><g id="ab"><use transform="matrix(0.05,0,0,0.05,0,0)" xlink:href="#ao"/><use transform="matrix(0.05,0,0,0.05,3.95,0)" xlink:href="#aj"/><use transform="matrix(0.05,0,0,0.05,13.949999999999998,0)" xlink:href="#ak"/></g></defs></g></svg>